G75*
%MOIN*%
%OFA0B0*%
%FSLAX24Y24*%
%IPPOS*%
%LPD*%
%AMOC8*
5,1,8,0,0,1.08239X$1,22.5*
%
%ADD10C,0.1340*%
%ADD11C,0.0316*%
%ADD12C,0.0600*%
%ADD13OC8,0.0600*%
%ADD14C,0.0820*%
%ADD15C,0.0730*%
%ADD16C,0.0848*%
%ADD17R,0.0820X0.0820*%
%ADD18OC8,0.0820*%
%ADD19C,0.0480*%
%ADD20R,0.0476X0.0476*%
D10*
X003473Y003529D03*
X016473Y003279D03*
X016473Y033029D03*
X003473Y033029D03*
D11*
X003190Y017624D03*
X004190Y017624D03*
X004165Y015762D03*
X003165Y015762D03*
X003168Y013879D03*
X004168Y013879D03*
X003098Y011654D03*
X003098Y010654D03*
X003123Y009054D03*
X003123Y008054D03*
D12*
X007043Y007674D02*
X007563Y007674D01*
X007563Y008674D02*
X007043Y008674D01*
X007043Y009674D02*
X007563Y009674D01*
X007563Y010674D02*
X007043Y010674D01*
X007043Y011674D02*
X007563Y011674D01*
X007563Y012674D02*
X007043Y012674D01*
X007043Y013674D02*
X007563Y013674D01*
X007563Y014674D02*
X007043Y014674D01*
X007043Y015674D02*
X007563Y015674D01*
X007563Y016674D02*
X007043Y016674D01*
X007043Y017674D02*
X007563Y017674D01*
X007563Y018674D02*
X007043Y018674D01*
X007043Y019674D02*
X007563Y019674D01*
X007563Y020674D02*
X007043Y020674D01*
X010043Y020674D02*
X010563Y020674D01*
X010563Y019674D02*
X010043Y019674D01*
X010043Y018674D02*
X010563Y018674D01*
X010563Y017674D02*
X010043Y017674D01*
X010043Y016674D02*
X010563Y016674D01*
X010563Y015674D02*
X010043Y015674D01*
X010043Y014674D02*
X010563Y014674D01*
X010563Y013674D02*
X010043Y013674D01*
X010043Y012674D02*
X010563Y012674D01*
X010563Y011674D02*
X010043Y011674D01*
X010043Y010674D02*
X010563Y010674D01*
X010563Y009674D02*
X010043Y009674D01*
X010043Y008674D02*
X010563Y008674D01*
X010563Y007674D02*
X010043Y007674D01*
D13*
X015478Y007027D03*
X016983Y008077D03*
X016998Y009274D03*
X015478Y010027D03*
X015503Y011294D03*
X016998Y012274D03*
X017020Y013537D03*
X015503Y014294D03*
X015475Y015517D03*
X017020Y016537D03*
X016975Y017787D03*
X015475Y018517D03*
X015505Y019792D03*
X016975Y020787D03*
X016963Y022049D03*
X015505Y022792D03*
X015468Y024002D03*
X016963Y025049D03*
X016998Y026284D03*
X015468Y027002D03*
X015470Y028279D03*
X016998Y029284D03*
X015470Y031279D03*
X010213Y022794D03*
X007213Y022794D03*
X016983Y005077D03*
D14*
X013273Y005549D03*
X013273Y006549D03*
X013273Y008219D03*
X013273Y009219D03*
X013273Y010889D03*
X013273Y011889D03*
X013273Y013559D03*
X013273Y014559D03*
X013273Y016229D03*
X013273Y017229D03*
X013273Y018899D03*
X013273Y019899D03*
X013273Y021569D03*
X013273Y022569D03*
X013273Y024239D03*
X013273Y025239D03*
X013273Y026909D03*
X013273Y027909D03*
X013273Y029579D03*
X013273Y030579D03*
X013273Y032249D03*
X013273Y033249D03*
X010523Y033179D03*
X009523Y033179D03*
X008523Y033179D03*
X003933Y021949D03*
X003933Y020949D03*
X003933Y019949D03*
X013273Y003879D03*
X013273Y002879D03*
X007833Y003679D03*
X006833Y003679D03*
X005833Y003679D03*
D15*
X005063Y009399D03*
X005063Y011399D03*
D16*
X003050Y027702D03*
X010924Y027702D03*
D17*
X010863Y004689D03*
D18*
X009863Y004689D03*
X008863Y004689D03*
X008863Y003689D03*
X009863Y003689D03*
X010863Y003689D03*
D19*
X005973Y026529D03*
D20*
X010723Y006529D03*
X009973Y006029D03*
X011473Y005529D03*
M02*
