G75*
%MOIN*%
%OFA0B0*%
%FSLAX25Y25*%
%IPPOS*%
%LPD*%
%AMOC8*
5,1,8,0,0,1.08239X$1,22.5*
%
%ADD10C,0.00000*%
%ADD11C,0.00400*%
%ADD12C,0.06500*%
%ADD13C,0.05200*%
%ADD14OC8,0.05200*%
%ADD15C,0.07400*%
%ADD16C,0.01040*%
%ADD17R,0.07400X0.07400*%
%ADD18OC8,0.07400*%
%ADD19C,0.07677*%
%ADD20C,0.09449*%
%ADD21C,0.01600*%
%ADD22C,0.04000*%
D10*
X0003767Y0003500D02*
X0003767Y0268200D01*
X0140867Y0268200D01*
X0140867Y0003500D01*
X0003767Y0003500D01*
X0011068Y0017900D02*
X0011070Y0018058D01*
X0011076Y0018216D01*
X0011086Y0018374D01*
X0011100Y0018532D01*
X0011118Y0018689D01*
X0011139Y0018846D01*
X0011165Y0019002D01*
X0011195Y0019158D01*
X0011228Y0019313D01*
X0011266Y0019466D01*
X0011307Y0019619D01*
X0011352Y0019771D01*
X0011401Y0019922D01*
X0011454Y0020071D01*
X0011510Y0020219D01*
X0011570Y0020365D01*
X0011634Y0020510D01*
X0011702Y0020653D01*
X0011773Y0020795D01*
X0011847Y0020935D01*
X0011925Y0021072D01*
X0012007Y0021208D01*
X0012091Y0021342D01*
X0012180Y0021473D01*
X0012271Y0021602D01*
X0012366Y0021729D01*
X0012463Y0021854D01*
X0012564Y0021976D01*
X0012668Y0022095D01*
X0012775Y0022212D01*
X0012885Y0022326D01*
X0012998Y0022437D01*
X0013113Y0022546D01*
X0013231Y0022651D01*
X0013352Y0022753D01*
X0013475Y0022853D01*
X0013601Y0022949D01*
X0013729Y0023042D01*
X0013859Y0023132D01*
X0013992Y0023218D01*
X0014127Y0023302D01*
X0014263Y0023381D01*
X0014402Y0023458D01*
X0014543Y0023530D01*
X0014685Y0023600D01*
X0014829Y0023665D01*
X0014975Y0023727D01*
X0015122Y0023785D01*
X0015271Y0023840D01*
X0015421Y0023891D01*
X0015572Y0023938D01*
X0015724Y0023981D01*
X0015877Y0024020D01*
X0016032Y0024056D01*
X0016187Y0024087D01*
X0016343Y0024115D01*
X0016499Y0024139D01*
X0016656Y0024159D01*
X0016814Y0024175D01*
X0016971Y0024187D01*
X0017130Y0024195D01*
X0017288Y0024199D01*
X0017446Y0024199D01*
X0017604Y0024195D01*
X0017763Y0024187D01*
X0017920Y0024175D01*
X0018078Y0024159D01*
X0018235Y0024139D01*
X0018391Y0024115D01*
X0018547Y0024087D01*
X0018702Y0024056D01*
X0018857Y0024020D01*
X0019010Y0023981D01*
X0019162Y0023938D01*
X0019313Y0023891D01*
X0019463Y0023840D01*
X0019612Y0023785D01*
X0019759Y0023727D01*
X0019905Y0023665D01*
X0020049Y0023600D01*
X0020191Y0023530D01*
X0020332Y0023458D01*
X0020471Y0023381D01*
X0020607Y0023302D01*
X0020742Y0023218D01*
X0020875Y0023132D01*
X0021005Y0023042D01*
X0021133Y0022949D01*
X0021259Y0022853D01*
X0021382Y0022753D01*
X0021503Y0022651D01*
X0021621Y0022546D01*
X0021736Y0022437D01*
X0021849Y0022326D01*
X0021959Y0022212D01*
X0022066Y0022095D01*
X0022170Y0021976D01*
X0022271Y0021854D01*
X0022368Y0021729D01*
X0022463Y0021602D01*
X0022554Y0021473D01*
X0022643Y0021342D01*
X0022727Y0021208D01*
X0022809Y0021072D01*
X0022887Y0020935D01*
X0022961Y0020795D01*
X0023032Y0020653D01*
X0023100Y0020510D01*
X0023164Y0020365D01*
X0023224Y0020219D01*
X0023280Y0020071D01*
X0023333Y0019922D01*
X0023382Y0019771D01*
X0023427Y0019619D01*
X0023468Y0019466D01*
X0023506Y0019313D01*
X0023539Y0019158D01*
X0023569Y0019002D01*
X0023595Y0018846D01*
X0023616Y0018689D01*
X0023634Y0018532D01*
X0023648Y0018374D01*
X0023658Y0018216D01*
X0023664Y0018058D01*
X0023666Y0017900D01*
X0023664Y0017742D01*
X0023658Y0017584D01*
X0023648Y0017426D01*
X0023634Y0017268D01*
X0023616Y0017111D01*
X0023595Y0016954D01*
X0023569Y0016798D01*
X0023539Y0016642D01*
X0023506Y0016487D01*
X0023468Y0016334D01*
X0023427Y0016181D01*
X0023382Y0016029D01*
X0023333Y0015878D01*
X0023280Y0015729D01*
X0023224Y0015581D01*
X0023164Y0015435D01*
X0023100Y0015290D01*
X0023032Y0015147D01*
X0022961Y0015005D01*
X0022887Y0014865D01*
X0022809Y0014728D01*
X0022727Y0014592D01*
X0022643Y0014458D01*
X0022554Y0014327D01*
X0022463Y0014198D01*
X0022368Y0014071D01*
X0022271Y0013946D01*
X0022170Y0013824D01*
X0022066Y0013705D01*
X0021959Y0013588D01*
X0021849Y0013474D01*
X0021736Y0013363D01*
X0021621Y0013254D01*
X0021503Y0013149D01*
X0021382Y0013047D01*
X0021259Y0012947D01*
X0021133Y0012851D01*
X0021005Y0012758D01*
X0020875Y0012668D01*
X0020742Y0012582D01*
X0020607Y0012498D01*
X0020471Y0012419D01*
X0020332Y0012342D01*
X0020191Y0012270D01*
X0020049Y0012200D01*
X0019905Y0012135D01*
X0019759Y0012073D01*
X0019612Y0012015D01*
X0019463Y0011960D01*
X0019313Y0011909D01*
X0019162Y0011862D01*
X0019010Y0011819D01*
X0018857Y0011780D01*
X0018702Y0011744D01*
X0018547Y0011713D01*
X0018391Y0011685D01*
X0018235Y0011661D01*
X0018078Y0011641D01*
X0017920Y0011625D01*
X0017763Y0011613D01*
X0017604Y0011605D01*
X0017446Y0011601D01*
X0017288Y0011601D01*
X0017130Y0011605D01*
X0016971Y0011613D01*
X0016814Y0011625D01*
X0016656Y0011641D01*
X0016499Y0011661D01*
X0016343Y0011685D01*
X0016187Y0011713D01*
X0016032Y0011744D01*
X0015877Y0011780D01*
X0015724Y0011819D01*
X0015572Y0011862D01*
X0015421Y0011909D01*
X0015271Y0011960D01*
X0015122Y0012015D01*
X0014975Y0012073D01*
X0014829Y0012135D01*
X0014685Y0012200D01*
X0014543Y0012270D01*
X0014402Y0012342D01*
X0014263Y0012419D01*
X0014127Y0012498D01*
X0013992Y0012582D01*
X0013859Y0012668D01*
X0013729Y0012758D01*
X0013601Y0012851D01*
X0013475Y0012947D01*
X0013352Y0013047D01*
X0013231Y0013149D01*
X0013113Y0013254D01*
X0012998Y0013363D01*
X0012885Y0013474D01*
X0012775Y0013588D01*
X0012668Y0013705D01*
X0012564Y0013824D01*
X0012463Y0013946D01*
X0012366Y0014071D01*
X0012271Y0014198D01*
X0012180Y0014327D01*
X0012091Y0014458D01*
X0012007Y0014592D01*
X0011925Y0014728D01*
X0011847Y0014865D01*
X0011773Y0015005D01*
X0011702Y0015147D01*
X0011634Y0015290D01*
X0011570Y0015435D01*
X0011510Y0015581D01*
X0011454Y0015729D01*
X0011401Y0015878D01*
X0011352Y0016029D01*
X0011307Y0016181D01*
X0011266Y0016334D01*
X0011228Y0016487D01*
X0011195Y0016642D01*
X0011165Y0016798D01*
X0011139Y0016954D01*
X0011118Y0017111D01*
X0011100Y0017268D01*
X0011086Y0017426D01*
X0011076Y0017584D01*
X0011070Y0017742D01*
X0011068Y0017900D01*
X0120268Y0017900D02*
X0120270Y0018058D01*
X0120276Y0018216D01*
X0120286Y0018374D01*
X0120300Y0018532D01*
X0120318Y0018689D01*
X0120339Y0018846D01*
X0120365Y0019002D01*
X0120395Y0019158D01*
X0120428Y0019313D01*
X0120466Y0019466D01*
X0120507Y0019619D01*
X0120552Y0019771D01*
X0120601Y0019922D01*
X0120654Y0020071D01*
X0120710Y0020219D01*
X0120770Y0020365D01*
X0120834Y0020510D01*
X0120902Y0020653D01*
X0120973Y0020795D01*
X0121047Y0020935D01*
X0121125Y0021072D01*
X0121207Y0021208D01*
X0121291Y0021342D01*
X0121380Y0021473D01*
X0121471Y0021602D01*
X0121566Y0021729D01*
X0121663Y0021854D01*
X0121764Y0021976D01*
X0121868Y0022095D01*
X0121975Y0022212D01*
X0122085Y0022326D01*
X0122198Y0022437D01*
X0122313Y0022546D01*
X0122431Y0022651D01*
X0122552Y0022753D01*
X0122675Y0022853D01*
X0122801Y0022949D01*
X0122929Y0023042D01*
X0123059Y0023132D01*
X0123192Y0023218D01*
X0123327Y0023302D01*
X0123463Y0023381D01*
X0123602Y0023458D01*
X0123743Y0023530D01*
X0123885Y0023600D01*
X0124029Y0023665D01*
X0124175Y0023727D01*
X0124322Y0023785D01*
X0124471Y0023840D01*
X0124621Y0023891D01*
X0124772Y0023938D01*
X0124924Y0023981D01*
X0125077Y0024020D01*
X0125232Y0024056D01*
X0125387Y0024087D01*
X0125543Y0024115D01*
X0125699Y0024139D01*
X0125856Y0024159D01*
X0126014Y0024175D01*
X0126171Y0024187D01*
X0126330Y0024195D01*
X0126488Y0024199D01*
X0126646Y0024199D01*
X0126804Y0024195D01*
X0126963Y0024187D01*
X0127120Y0024175D01*
X0127278Y0024159D01*
X0127435Y0024139D01*
X0127591Y0024115D01*
X0127747Y0024087D01*
X0127902Y0024056D01*
X0128057Y0024020D01*
X0128210Y0023981D01*
X0128362Y0023938D01*
X0128513Y0023891D01*
X0128663Y0023840D01*
X0128812Y0023785D01*
X0128959Y0023727D01*
X0129105Y0023665D01*
X0129249Y0023600D01*
X0129391Y0023530D01*
X0129532Y0023458D01*
X0129671Y0023381D01*
X0129807Y0023302D01*
X0129942Y0023218D01*
X0130075Y0023132D01*
X0130205Y0023042D01*
X0130333Y0022949D01*
X0130459Y0022853D01*
X0130582Y0022753D01*
X0130703Y0022651D01*
X0130821Y0022546D01*
X0130936Y0022437D01*
X0131049Y0022326D01*
X0131159Y0022212D01*
X0131266Y0022095D01*
X0131370Y0021976D01*
X0131471Y0021854D01*
X0131568Y0021729D01*
X0131663Y0021602D01*
X0131754Y0021473D01*
X0131843Y0021342D01*
X0131927Y0021208D01*
X0132009Y0021072D01*
X0132087Y0020935D01*
X0132161Y0020795D01*
X0132232Y0020653D01*
X0132300Y0020510D01*
X0132364Y0020365D01*
X0132424Y0020219D01*
X0132480Y0020071D01*
X0132533Y0019922D01*
X0132582Y0019771D01*
X0132627Y0019619D01*
X0132668Y0019466D01*
X0132706Y0019313D01*
X0132739Y0019158D01*
X0132769Y0019002D01*
X0132795Y0018846D01*
X0132816Y0018689D01*
X0132834Y0018532D01*
X0132848Y0018374D01*
X0132858Y0018216D01*
X0132864Y0018058D01*
X0132866Y0017900D01*
X0132864Y0017742D01*
X0132858Y0017584D01*
X0132848Y0017426D01*
X0132834Y0017268D01*
X0132816Y0017111D01*
X0132795Y0016954D01*
X0132769Y0016798D01*
X0132739Y0016642D01*
X0132706Y0016487D01*
X0132668Y0016334D01*
X0132627Y0016181D01*
X0132582Y0016029D01*
X0132533Y0015878D01*
X0132480Y0015729D01*
X0132424Y0015581D01*
X0132364Y0015435D01*
X0132300Y0015290D01*
X0132232Y0015147D01*
X0132161Y0015005D01*
X0132087Y0014865D01*
X0132009Y0014728D01*
X0131927Y0014592D01*
X0131843Y0014458D01*
X0131754Y0014327D01*
X0131663Y0014198D01*
X0131568Y0014071D01*
X0131471Y0013946D01*
X0131370Y0013824D01*
X0131266Y0013705D01*
X0131159Y0013588D01*
X0131049Y0013474D01*
X0130936Y0013363D01*
X0130821Y0013254D01*
X0130703Y0013149D01*
X0130582Y0013047D01*
X0130459Y0012947D01*
X0130333Y0012851D01*
X0130205Y0012758D01*
X0130075Y0012668D01*
X0129942Y0012582D01*
X0129807Y0012498D01*
X0129671Y0012419D01*
X0129532Y0012342D01*
X0129391Y0012270D01*
X0129249Y0012200D01*
X0129105Y0012135D01*
X0128959Y0012073D01*
X0128812Y0012015D01*
X0128663Y0011960D01*
X0128513Y0011909D01*
X0128362Y0011862D01*
X0128210Y0011819D01*
X0128057Y0011780D01*
X0127902Y0011744D01*
X0127747Y0011713D01*
X0127591Y0011685D01*
X0127435Y0011661D01*
X0127278Y0011641D01*
X0127120Y0011625D01*
X0126963Y0011613D01*
X0126804Y0011605D01*
X0126646Y0011601D01*
X0126488Y0011601D01*
X0126330Y0011605D01*
X0126171Y0011613D01*
X0126014Y0011625D01*
X0125856Y0011641D01*
X0125699Y0011661D01*
X0125543Y0011685D01*
X0125387Y0011713D01*
X0125232Y0011744D01*
X0125077Y0011780D01*
X0124924Y0011819D01*
X0124772Y0011862D01*
X0124621Y0011909D01*
X0124471Y0011960D01*
X0124322Y0012015D01*
X0124175Y0012073D01*
X0124029Y0012135D01*
X0123885Y0012200D01*
X0123743Y0012270D01*
X0123602Y0012342D01*
X0123463Y0012419D01*
X0123327Y0012498D01*
X0123192Y0012582D01*
X0123059Y0012668D01*
X0122929Y0012758D01*
X0122801Y0012851D01*
X0122675Y0012947D01*
X0122552Y0013047D01*
X0122431Y0013149D01*
X0122313Y0013254D01*
X0122198Y0013363D01*
X0122085Y0013474D01*
X0121975Y0013588D01*
X0121868Y0013705D01*
X0121764Y0013824D01*
X0121663Y0013946D01*
X0121566Y0014071D01*
X0121471Y0014198D01*
X0121380Y0014327D01*
X0121291Y0014458D01*
X0121207Y0014592D01*
X0121125Y0014728D01*
X0121047Y0014865D01*
X0120973Y0015005D01*
X0120902Y0015147D01*
X0120834Y0015290D01*
X0120770Y0015435D01*
X0120710Y0015581D01*
X0120654Y0015729D01*
X0120601Y0015878D01*
X0120552Y0016029D01*
X0120507Y0016181D01*
X0120466Y0016334D01*
X0120428Y0016487D01*
X0120395Y0016642D01*
X0120365Y0016798D01*
X0120339Y0016954D01*
X0120318Y0017111D01*
X0120300Y0017268D01*
X0120286Y0017426D01*
X0120276Y0017584D01*
X0120270Y0017742D01*
X0120268Y0017900D01*
X0120268Y0254800D02*
X0120270Y0254958D01*
X0120276Y0255116D01*
X0120286Y0255274D01*
X0120300Y0255432D01*
X0120318Y0255589D01*
X0120339Y0255746D01*
X0120365Y0255902D01*
X0120395Y0256058D01*
X0120428Y0256213D01*
X0120466Y0256366D01*
X0120507Y0256519D01*
X0120552Y0256671D01*
X0120601Y0256822D01*
X0120654Y0256971D01*
X0120710Y0257119D01*
X0120770Y0257265D01*
X0120834Y0257410D01*
X0120902Y0257553D01*
X0120973Y0257695D01*
X0121047Y0257835D01*
X0121125Y0257972D01*
X0121207Y0258108D01*
X0121291Y0258242D01*
X0121380Y0258373D01*
X0121471Y0258502D01*
X0121566Y0258629D01*
X0121663Y0258754D01*
X0121764Y0258876D01*
X0121868Y0258995D01*
X0121975Y0259112D01*
X0122085Y0259226D01*
X0122198Y0259337D01*
X0122313Y0259446D01*
X0122431Y0259551D01*
X0122552Y0259653D01*
X0122675Y0259753D01*
X0122801Y0259849D01*
X0122929Y0259942D01*
X0123059Y0260032D01*
X0123192Y0260118D01*
X0123327Y0260202D01*
X0123463Y0260281D01*
X0123602Y0260358D01*
X0123743Y0260430D01*
X0123885Y0260500D01*
X0124029Y0260565D01*
X0124175Y0260627D01*
X0124322Y0260685D01*
X0124471Y0260740D01*
X0124621Y0260791D01*
X0124772Y0260838D01*
X0124924Y0260881D01*
X0125077Y0260920D01*
X0125232Y0260956D01*
X0125387Y0260987D01*
X0125543Y0261015D01*
X0125699Y0261039D01*
X0125856Y0261059D01*
X0126014Y0261075D01*
X0126171Y0261087D01*
X0126330Y0261095D01*
X0126488Y0261099D01*
X0126646Y0261099D01*
X0126804Y0261095D01*
X0126963Y0261087D01*
X0127120Y0261075D01*
X0127278Y0261059D01*
X0127435Y0261039D01*
X0127591Y0261015D01*
X0127747Y0260987D01*
X0127902Y0260956D01*
X0128057Y0260920D01*
X0128210Y0260881D01*
X0128362Y0260838D01*
X0128513Y0260791D01*
X0128663Y0260740D01*
X0128812Y0260685D01*
X0128959Y0260627D01*
X0129105Y0260565D01*
X0129249Y0260500D01*
X0129391Y0260430D01*
X0129532Y0260358D01*
X0129671Y0260281D01*
X0129807Y0260202D01*
X0129942Y0260118D01*
X0130075Y0260032D01*
X0130205Y0259942D01*
X0130333Y0259849D01*
X0130459Y0259753D01*
X0130582Y0259653D01*
X0130703Y0259551D01*
X0130821Y0259446D01*
X0130936Y0259337D01*
X0131049Y0259226D01*
X0131159Y0259112D01*
X0131266Y0258995D01*
X0131370Y0258876D01*
X0131471Y0258754D01*
X0131568Y0258629D01*
X0131663Y0258502D01*
X0131754Y0258373D01*
X0131843Y0258242D01*
X0131927Y0258108D01*
X0132009Y0257972D01*
X0132087Y0257835D01*
X0132161Y0257695D01*
X0132232Y0257553D01*
X0132300Y0257410D01*
X0132364Y0257265D01*
X0132424Y0257119D01*
X0132480Y0256971D01*
X0132533Y0256822D01*
X0132582Y0256671D01*
X0132627Y0256519D01*
X0132668Y0256366D01*
X0132706Y0256213D01*
X0132739Y0256058D01*
X0132769Y0255902D01*
X0132795Y0255746D01*
X0132816Y0255589D01*
X0132834Y0255432D01*
X0132848Y0255274D01*
X0132858Y0255116D01*
X0132864Y0254958D01*
X0132866Y0254800D01*
X0132864Y0254642D01*
X0132858Y0254484D01*
X0132848Y0254326D01*
X0132834Y0254168D01*
X0132816Y0254011D01*
X0132795Y0253854D01*
X0132769Y0253698D01*
X0132739Y0253542D01*
X0132706Y0253387D01*
X0132668Y0253234D01*
X0132627Y0253081D01*
X0132582Y0252929D01*
X0132533Y0252778D01*
X0132480Y0252629D01*
X0132424Y0252481D01*
X0132364Y0252335D01*
X0132300Y0252190D01*
X0132232Y0252047D01*
X0132161Y0251905D01*
X0132087Y0251765D01*
X0132009Y0251628D01*
X0131927Y0251492D01*
X0131843Y0251358D01*
X0131754Y0251227D01*
X0131663Y0251098D01*
X0131568Y0250971D01*
X0131471Y0250846D01*
X0131370Y0250724D01*
X0131266Y0250605D01*
X0131159Y0250488D01*
X0131049Y0250374D01*
X0130936Y0250263D01*
X0130821Y0250154D01*
X0130703Y0250049D01*
X0130582Y0249947D01*
X0130459Y0249847D01*
X0130333Y0249751D01*
X0130205Y0249658D01*
X0130075Y0249568D01*
X0129942Y0249482D01*
X0129807Y0249398D01*
X0129671Y0249319D01*
X0129532Y0249242D01*
X0129391Y0249170D01*
X0129249Y0249100D01*
X0129105Y0249035D01*
X0128959Y0248973D01*
X0128812Y0248915D01*
X0128663Y0248860D01*
X0128513Y0248809D01*
X0128362Y0248762D01*
X0128210Y0248719D01*
X0128057Y0248680D01*
X0127902Y0248644D01*
X0127747Y0248613D01*
X0127591Y0248585D01*
X0127435Y0248561D01*
X0127278Y0248541D01*
X0127120Y0248525D01*
X0126963Y0248513D01*
X0126804Y0248505D01*
X0126646Y0248501D01*
X0126488Y0248501D01*
X0126330Y0248505D01*
X0126171Y0248513D01*
X0126014Y0248525D01*
X0125856Y0248541D01*
X0125699Y0248561D01*
X0125543Y0248585D01*
X0125387Y0248613D01*
X0125232Y0248644D01*
X0125077Y0248680D01*
X0124924Y0248719D01*
X0124772Y0248762D01*
X0124621Y0248809D01*
X0124471Y0248860D01*
X0124322Y0248915D01*
X0124175Y0248973D01*
X0124029Y0249035D01*
X0123885Y0249100D01*
X0123743Y0249170D01*
X0123602Y0249242D01*
X0123463Y0249319D01*
X0123327Y0249398D01*
X0123192Y0249482D01*
X0123059Y0249568D01*
X0122929Y0249658D01*
X0122801Y0249751D01*
X0122675Y0249847D01*
X0122552Y0249947D01*
X0122431Y0250049D01*
X0122313Y0250154D01*
X0122198Y0250263D01*
X0122085Y0250374D01*
X0121975Y0250488D01*
X0121868Y0250605D01*
X0121764Y0250724D01*
X0121663Y0250846D01*
X0121566Y0250971D01*
X0121471Y0251098D01*
X0121380Y0251227D01*
X0121291Y0251358D01*
X0121207Y0251492D01*
X0121125Y0251628D01*
X0121047Y0251765D01*
X0120973Y0251905D01*
X0120902Y0252047D01*
X0120834Y0252190D01*
X0120770Y0252335D01*
X0120710Y0252481D01*
X0120654Y0252629D01*
X0120601Y0252778D01*
X0120552Y0252929D01*
X0120507Y0253081D01*
X0120466Y0253234D01*
X0120428Y0253387D01*
X0120395Y0253542D01*
X0120365Y0253698D01*
X0120339Y0253854D01*
X0120318Y0254011D01*
X0120300Y0254168D01*
X0120286Y0254326D01*
X0120276Y0254484D01*
X0120270Y0254642D01*
X0120268Y0254800D01*
X0011068Y0254800D02*
X0011070Y0254958D01*
X0011076Y0255116D01*
X0011086Y0255274D01*
X0011100Y0255432D01*
X0011118Y0255589D01*
X0011139Y0255746D01*
X0011165Y0255902D01*
X0011195Y0256058D01*
X0011228Y0256213D01*
X0011266Y0256366D01*
X0011307Y0256519D01*
X0011352Y0256671D01*
X0011401Y0256822D01*
X0011454Y0256971D01*
X0011510Y0257119D01*
X0011570Y0257265D01*
X0011634Y0257410D01*
X0011702Y0257553D01*
X0011773Y0257695D01*
X0011847Y0257835D01*
X0011925Y0257972D01*
X0012007Y0258108D01*
X0012091Y0258242D01*
X0012180Y0258373D01*
X0012271Y0258502D01*
X0012366Y0258629D01*
X0012463Y0258754D01*
X0012564Y0258876D01*
X0012668Y0258995D01*
X0012775Y0259112D01*
X0012885Y0259226D01*
X0012998Y0259337D01*
X0013113Y0259446D01*
X0013231Y0259551D01*
X0013352Y0259653D01*
X0013475Y0259753D01*
X0013601Y0259849D01*
X0013729Y0259942D01*
X0013859Y0260032D01*
X0013992Y0260118D01*
X0014127Y0260202D01*
X0014263Y0260281D01*
X0014402Y0260358D01*
X0014543Y0260430D01*
X0014685Y0260500D01*
X0014829Y0260565D01*
X0014975Y0260627D01*
X0015122Y0260685D01*
X0015271Y0260740D01*
X0015421Y0260791D01*
X0015572Y0260838D01*
X0015724Y0260881D01*
X0015877Y0260920D01*
X0016032Y0260956D01*
X0016187Y0260987D01*
X0016343Y0261015D01*
X0016499Y0261039D01*
X0016656Y0261059D01*
X0016814Y0261075D01*
X0016971Y0261087D01*
X0017130Y0261095D01*
X0017288Y0261099D01*
X0017446Y0261099D01*
X0017604Y0261095D01*
X0017763Y0261087D01*
X0017920Y0261075D01*
X0018078Y0261059D01*
X0018235Y0261039D01*
X0018391Y0261015D01*
X0018547Y0260987D01*
X0018702Y0260956D01*
X0018857Y0260920D01*
X0019010Y0260881D01*
X0019162Y0260838D01*
X0019313Y0260791D01*
X0019463Y0260740D01*
X0019612Y0260685D01*
X0019759Y0260627D01*
X0019905Y0260565D01*
X0020049Y0260500D01*
X0020191Y0260430D01*
X0020332Y0260358D01*
X0020471Y0260281D01*
X0020607Y0260202D01*
X0020742Y0260118D01*
X0020875Y0260032D01*
X0021005Y0259942D01*
X0021133Y0259849D01*
X0021259Y0259753D01*
X0021382Y0259653D01*
X0021503Y0259551D01*
X0021621Y0259446D01*
X0021736Y0259337D01*
X0021849Y0259226D01*
X0021959Y0259112D01*
X0022066Y0258995D01*
X0022170Y0258876D01*
X0022271Y0258754D01*
X0022368Y0258629D01*
X0022463Y0258502D01*
X0022554Y0258373D01*
X0022643Y0258242D01*
X0022727Y0258108D01*
X0022809Y0257972D01*
X0022887Y0257835D01*
X0022961Y0257695D01*
X0023032Y0257553D01*
X0023100Y0257410D01*
X0023164Y0257265D01*
X0023224Y0257119D01*
X0023280Y0256971D01*
X0023333Y0256822D01*
X0023382Y0256671D01*
X0023427Y0256519D01*
X0023468Y0256366D01*
X0023506Y0256213D01*
X0023539Y0256058D01*
X0023569Y0255902D01*
X0023595Y0255746D01*
X0023616Y0255589D01*
X0023634Y0255432D01*
X0023648Y0255274D01*
X0023658Y0255116D01*
X0023664Y0254958D01*
X0023666Y0254800D01*
X0023664Y0254642D01*
X0023658Y0254484D01*
X0023648Y0254326D01*
X0023634Y0254168D01*
X0023616Y0254011D01*
X0023595Y0253854D01*
X0023569Y0253698D01*
X0023539Y0253542D01*
X0023506Y0253387D01*
X0023468Y0253234D01*
X0023427Y0253081D01*
X0023382Y0252929D01*
X0023333Y0252778D01*
X0023280Y0252629D01*
X0023224Y0252481D01*
X0023164Y0252335D01*
X0023100Y0252190D01*
X0023032Y0252047D01*
X0022961Y0251905D01*
X0022887Y0251765D01*
X0022809Y0251628D01*
X0022727Y0251492D01*
X0022643Y0251358D01*
X0022554Y0251227D01*
X0022463Y0251098D01*
X0022368Y0250971D01*
X0022271Y0250846D01*
X0022170Y0250724D01*
X0022066Y0250605D01*
X0021959Y0250488D01*
X0021849Y0250374D01*
X0021736Y0250263D01*
X0021621Y0250154D01*
X0021503Y0250049D01*
X0021382Y0249947D01*
X0021259Y0249847D01*
X0021133Y0249751D01*
X0021005Y0249658D01*
X0020875Y0249568D01*
X0020742Y0249482D01*
X0020607Y0249398D01*
X0020471Y0249319D01*
X0020332Y0249242D01*
X0020191Y0249170D01*
X0020049Y0249100D01*
X0019905Y0249035D01*
X0019759Y0248973D01*
X0019612Y0248915D01*
X0019463Y0248860D01*
X0019313Y0248809D01*
X0019162Y0248762D01*
X0019010Y0248719D01*
X0018857Y0248680D01*
X0018702Y0248644D01*
X0018547Y0248613D01*
X0018391Y0248585D01*
X0018235Y0248561D01*
X0018078Y0248541D01*
X0017920Y0248525D01*
X0017763Y0248513D01*
X0017604Y0248505D01*
X0017446Y0248501D01*
X0017288Y0248501D01*
X0017130Y0248505D01*
X0016971Y0248513D01*
X0016814Y0248525D01*
X0016656Y0248541D01*
X0016499Y0248561D01*
X0016343Y0248585D01*
X0016187Y0248613D01*
X0016032Y0248644D01*
X0015877Y0248680D01*
X0015724Y0248719D01*
X0015572Y0248762D01*
X0015421Y0248809D01*
X0015271Y0248860D01*
X0015122Y0248915D01*
X0014975Y0248973D01*
X0014829Y0249035D01*
X0014685Y0249100D01*
X0014543Y0249170D01*
X0014402Y0249242D01*
X0014263Y0249319D01*
X0014127Y0249398D01*
X0013992Y0249482D01*
X0013859Y0249568D01*
X0013729Y0249658D01*
X0013601Y0249751D01*
X0013475Y0249847D01*
X0013352Y0249947D01*
X0013231Y0250049D01*
X0013113Y0250154D01*
X0012998Y0250263D01*
X0012885Y0250374D01*
X0012775Y0250488D01*
X0012668Y0250605D01*
X0012564Y0250724D01*
X0012463Y0250846D01*
X0012366Y0250971D01*
X0012271Y0251098D01*
X0012180Y0251227D01*
X0012091Y0251358D01*
X0012007Y0251492D01*
X0011925Y0251628D01*
X0011847Y0251765D01*
X0011773Y0251905D01*
X0011702Y0252047D01*
X0011634Y0252190D01*
X0011570Y0252335D01*
X0011510Y0252481D01*
X0011454Y0252629D01*
X0011401Y0252778D01*
X0011352Y0252929D01*
X0011307Y0253081D01*
X0011266Y0253234D01*
X0011228Y0253387D01*
X0011195Y0253542D01*
X0011165Y0253698D01*
X0011139Y0253854D01*
X0011118Y0254011D01*
X0011100Y0254168D01*
X0011086Y0254326D01*
X0011076Y0254484D01*
X0011070Y0254642D01*
X0011068Y0254800D01*
D11*
X0017715Y0221615D02*
X0020017Y0221615D01*
X0020017Y0219313D01*
X0019249Y0218546D01*
X0018482Y0219313D01*
X0018482Y0221615D01*
X0017715Y0221615D02*
X0016947Y0220848D01*
X0016947Y0219313D01*
X0016947Y0217011D02*
X0016947Y0216244D01*
X0018482Y0214709D01*
X0018482Y0213175D02*
X0017715Y0213175D01*
X0016947Y0212407D01*
X0016947Y0210873D01*
X0017715Y0210105D01*
X0019249Y0210105D01*
X0020017Y0210873D01*
X0020017Y0212407D01*
X0018482Y0213175D02*
X0018482Y0210105D01*
X0018482Y0208571D02*
X0015413Y0208571D01*
X0018482Y0208571D02*
X0020017Y0207036D01*
X0018482Y0205502D01*
X0015413Y0205502D01*
X0016180Y0203967D02*
X0015413Y0203200D01*
X0015413Y0201665D01*
X0016180Y0200898D01*
X0019249Y0200898D01*
X0020017Y0201665D01*
X0020017Y0203200D01*
X0019249Y0203967D01*
X0016180Y0203967D01*
X0016180Y0199363D02*
X0017715Y0199363D01*
X0018482Y0198596D01*
X0018482Y0196294D01*
X0020017Y0196294D02*
X0015413Y0196294D01*
X0015413Y0198596D01*
X0016180Y0199363D01*
X0016947Y0190155D02*
X0016947Y0188620D01*
X0016180Y0189388D02*
X0019249Y0189388D01*
X0020017Y0190155D01*
X0020017Y0187086D02*
X0020017Y0185551D01*
X0020017Y0186318D02*
X0016947Y0186318D01*
X0016947Y0185551D01*
X0016947Y0184017D02*
X0016947Y0181715D01*
X0017715Y0180947D01*
X0019249Y0180947D01*
X0020017Y0181715D01*
X0020017Y0184017D01*
X0020784Y0184017D02*
X0016947Y0184017D01*
X0015413Y0186318D02*
X0014645Y0186318D01*
X0020784Y0184017D02*
X0021551Y0183249D01*
X0021551Y0182482D01*
X0020017Y0179413D02*
X0016947Y0179413D01*
X0015413Y0177878D01*
X0016947Y0176343D01*
X0020017Y0176343D01*
X0017715Y0176343D02*
X0017715Y0179413D01*
X0016947Y0214709D02*
X0020017Y0214709D01*
D12*
X0022742Y0115130D03*
X0012742Y0115130D03*
X0012492Y0096515D03*
X0022492Y0096515D03*
X0022517Y0077700D03*
X0012517Y0077700D03*
D13*
X0042167Y0076030D02*
X0047367Y0076030D01*
X0047367Y0066030D02*
X0042167Y0066030D01*
X0042167Y0056030D02*
X0047367Y0056030D01*
X0047367Y0046030D02*
X0042167Y0046030D01*
X0042167Y0036030D02*
X0047367Y0036030D01*
X0047367Y0026030D02*
X0042167Y0026030D01*
X0042167Y0016030D02*
X0047367Y0016030D01*
X0072167Y0016030D02*
X0077367Y0016030D01*
X0077367Y0026030D02*
X0072167Y0026030D01*
X0072167Y0036030D02*
X0077367Y0036030D01*
X0077367Y0046030D02*
X0072167Y0046030D01*
X0072167Y0056030D02*
X0077367Y0056030D01*
X0077367Y0066030D02*
X0072167Y0066030D01*
X0072167Y0076030D02*
X0077367Y0076030D01*
X0077367Y0086030D02*
X0072167Y0086030D01*
X0072167Y0096030D02*
X0077367Y0096030D01*
X0077367Y0106030D02*
X0072167Y0106030D01*
X0072167Y0116030D02*
X0077367Y0116030D01*
X0077367Y0126030D02*
X0072167Y0126030D01*
X0072167Y0136030D02*
X0077367Y0136030D01*
X0077367Y0146030D02*
X0072167Y0146030D01*
X0047367Y0146030D02*
X0042167Y0146030D01*
X0042167Y0136030D02*
X0047367Y0136030D01*
X0047367Y0126030D02*
X0042167Y0126030D01*
X0042167Y0116030D02*
X0047367Y0116030D01*
X0047367Y0106030D02*
X0042167Y0106030D01*
X0042167Y0096030D02*
X0047367Y0096030D01*
X0047367Y0086030D02*
X0042167Y0086030D01*
D14*
X0103467Y0133200D03*
X0103467Y0141100D03*
X0081337Y0151000D03*
X0081337Y0181000D03*
X0133467Y0141100D03*
X0133467Y0133200D03*
D15*
X0109667Y0126200D03*
X0099667Y0126200D03*
X0099667Y0104200D03*
X0109667Y0104200D03*
X0109667Y0082200D03*
X0099667Y0082200D03*
X0099667Y0060200D03*
X0109667Y0060200D03*
X0109667Y0038200D03*
X0099667Y0038200D03*
X0099667Y0016200D03*
X0109667Y0016200D03*
X0018267Y0140180D03*
X0018267Y0150180D03*
X0018267Y0160180D03*
X0099667Y0170200D03*
X0109667Y0170200D03*
X0109667Y0148200D03*
X0099667Y0148200D03*
X0099667Y0192200D03*
X0109667Y0192200D03*
X0109667Y0214200D03*
X0099667Y0214200D03*
X0099667Y0236200D03*
X0109667Y0236200D03*
X0109667Y0258200D03*
X0099667Y0258200D03*
X0087767Y0258700D03*
X0077767Y0258700D03*
X0067767Y0258700D03*
D16*
X0108026Y0227035D02*
X0108546Y0226515D01*
X0106882Y0226069D01*
X0105391Y0226930D01*
X0104945Y0228594D01*
X0105806Y0230085D01*
X0107470Y0230531D01*
X0108961Y0229670D01*
X0109407Y0228006D01*
X0108546Y0226515D01*
X0108032Y0227185D01*
X0106992Y0226906D01*
X0106061Y0227444D01*
X0105782Y0228484D01*
X0106320Y0229415D01*
X0107360Y0229694D01*
X0108291Y0229156D01*
X0108570Y0228116D01*
X0108032Y0227185D01*
X0107518Y0227854D01*
X0107103Y0227743D01*
X0106730Y0227958D01*
X0106619Y0228373D01*
X0106834Y0228746D01*
X0107249Y0228857D01*
X0107622Y0228642D01*
X0107733Y0228227D01*
X0107518Y0227854D01*
X0106311Y0205230D02*
X0106831Y0204710D01*
X0105268Y0203981D01*
X0103651Y0204570D01*
X0102922Y0206133D01*
X0103511Y0207750D01*
X0105074Y0208479D01*
X0106691Y0207890D01*
X0107420Y0206327D01*
X0106831Y0204710D01*
X0106208Y0205280D01*
X0105231Y0204825D01*
X0104221Y0205193D01*
X0103766Y0206170D01*
X0104134Y0207180D01*
X0105111Y0207635D01*
X0106121Y0207267D01*
X0106576Y0206290D01*
X0106208Y0205280D01*
X0105586Y0205851D01*
X0105195Y0205668D01*
X0104792Y0205815D01*
X0104609Y0206206D01*
X0104756Y0206609D01*
X0105147Y0206792D01*
X0105550Y0206645D01*
X0105733Y0206254D01*
X0105586Y0205851D01*
X0105744Y0183532D02*
X0106264Y0183012D01*
X0104771Y0182151D01*
X0103108Y0182596D01*
X0102247Y0184089D01*
X0102692Y0185752D01*
X0104185Y0186613D01*
X0105848Y0186168D01*
X0106709Y0184675D01*
X0106264Y0183012D01*
X0105594Y0183526D01*
X0104661Y0182988D01*
X0103622Y0183266D01*
X0103084Y0184199D01*
X0103362Y0185238D01*
X0104295Y0185776D01*
X0105334Y0185498D01*
X0105872Y0184565D01*
X0105594Y0183526D01*
X0104924Y0184040D01*
X0104551Y0183825D01*
X0104136Y0183936D01*
X0103921Y0184309D01*
X0104032Y0184724D01*
X0104405Y0184939D01*
X0104820Y0184828D01*
X0105035Y0184455D01*
X0104924Y0184040D01*
X0105573Y0162316D02*
X0106093Y0161796D01*
X0104681Y0160808D01*
X0102986Y0161107D01*
X0101998Y0162519D01*
X0102297Y0164214D01*
X0103709Y0165202D01*
X0105404Y0164903D01*
X0106392Y0163491D01*
X0106093Y0161796D01*
X0105381Y0162250D01*
X0104499Y0161632D01*
X0103440Y0161819D01*
X0102822Y0162701D01*
X0103009Y0163760D01*
X0103891Y0164378D01*
X0104950Y0164191D01*
X0105568Y0163309D01*
X0105381Y0162250D01*
X0104669Y0162703D01*
X0104316Y0162456D01*
X0103893Y0162531D01*
X0103646Y0162884D01*
X0103721Y0163307D01*
X0104074Y0163554D01*
X0104497Y0163479D01*
X0104744Y0163126D01*
X0104669Y0162703D01*
X0135117Y0157106D02*
X0135637Y0156586D01*
X0134225Y0155598D01*
X0132530Y0155897D01*
X0131542Y0157309D01*
X0131841Y0159004D01*
X0133253Y0159992D01*
X0134948Y0159693D01*
X0135936Y0158281D01*
X0135637Y0156586D01*
X0134925Y0157040D01*
X0134043Y0156422D01*
X0132984Y0156609D01*
X0132366Y0157491D01*
X0132553Y0158550D01*
X0133435Y0159168D01*
X0134494Y0158981D01*
X0135112Y0158099D01*
X0134925Y0157040D01*
X0134213Y0157493D01*
X0133860Y0157246D01*
X0133437Y0157321D01*
X0133190Y0157674D01*
X0133265Y0158097D01*
X0133618Y0158344D01*
X0134041Y0158269D01*
X0134288Y0157916D01*
X0134213Y0157493D01*
X0134722Y0175768D02*
X0135242Y0175248D01*
X0133749Y0174387D01*
X0132086Y0174832D01*
X0131225Y0176325D01*
X0131670Y0177988D01*
X0133163Y0178849D01*
X0134826Y0178404D01*
X0135687Y0176911D01*
X0135242Y0175248D01*
X0134572Y0175762D01*
X0133639Y0175224D01*
X0132600Y0175502D01*
X0132062Y0176435D01*
X0132340Y0177474D01*
X0133273Y0178012D01*
X0134312Y0177734D01*
X0134850Y0176801D01*
X0134572Y0175762D01*
X0133902Y0176276D01*
X0133529Y0176061D01*
X0133114Y0176172D01*
X0132899Y0176545D01*
X0133010Y0176960D01*
X0133383Y0177175D01*
X0133798Y0177064D01*
X0134013Y0176691D01*
X0133902Y0176276D01*
X0134502Y0194970D02*
X0135022Y0194450D01*
X0133459Y0193721D01*
X0131842Y0194310D01*
X0131113Y0195873D01*
X0131702Y0197490D01*
X0133265Y0198219D01*
X0134882Y0197630D01*
X0135611Y0196067D01*
X0135022Y0194450D01*
X0134399Y0195020D01*
X0133422Y0194565D01*
X0132412Y0194933D01*
X0131957Y0195910D01*
X0132325Y0196920D01*
X0133302Y0197375D01*
X0134312Y0197007D01*
X0134767Y0196030D01*
X0134399Y0195020D01*
X0133777Y0195591D01*
X0133386Y0195408D01*
X0132983Y0195555D01*
X0132800Y0195946D01*
X0132947Y0196349D01*
X0133338Y0196532D01*
X0133741Y0196385D01*
X0133924Y0195994D01*
X0133777Y0195591D01*
X0134007Y0212035D02*
X0134527Y0211515D01*
X0132863Y0211069D01*
X0131372Y0211930D01*
X0130926Y0213594D01*
X0131787Y0215085D01*
X0133451Y0215531D01*
X0134942Y0214670D01*
X0135388Y0213006D01*
X0134527Y0211515D01*
X0134013Y0212185D01*
X0132973Y0211906D01*
X0132042Y0212444D01*
X0131763Y0213484D01*
X0132301Y0214415D01*
X0133341Y0214694D01*
X0134272Y0214156D01*
X0134551Y0213116D01*
X0134013Y0212185D01*
X0133499Y0212854D01*
X0133084Y0212743D01*
X0132711Y0212958D01*
X0132600Y0213373D01*
X0132815Y0213746D01*
X0133230Y0213857D01*
X0133603Y0213642D01*
X0133714Y0213227D01*
X0133499Y0212854D01*
X0133676Y0229782D02*
X0134196Y0229262D01*
X0132480Y0229112D01*
X0131161Y0230219D01*
X0131011Y0231935D01*
X0132118Y0233254D01*
X0133834Y0233404D01*
X0135153Y0232297D01*
X0135303Y0230581D01*
X0134196Y0229262D01*
X0133807Y0230011D01*
X0132734Y0229917D01*
X0131910Y0230608D01*
X0131816Y0231681D01*
X0132507Y0232505D01*
X0133580Y0232599D01*
X0134404Y0231908D01*
X0134498Y0230835D01*
X0133807Y0230011D01*
X0133417Y0230760D01*
X0132988Y0230722D01*
X0132659Y0230998D01*
X0132621Y0231427D01*
X0132897Y0231756D01*
X0133326Y0231794D01*
X0133655Y0231518D01*
X0133693Y0231089D01*
X0133417Y0230760D01*
X0110695Y0249066D02*
X0111215Y0248546D01*
X0109499Y0248396D01*
X0108180Y0249503D01*
X0108030Y0251219D01*
X0109137Y0252538D01*
X0110853Y0252688D01*
X0112172Y0251581D01*
X0112322Y0249865D01*
X0111215Y0248546D01*
X0110826Y0249295D01*
X0109753Y0249201D01*
X0108929Y0249892D01*
X0108835Y0250965D01*
X0109526Y0251789D01*
X0110599Y0251883D01*
X0111423Y0251192D01*
X0111517Y0250119D01*
X0110826Y0249295D01*
X0110436Y0250044D01*
X0110007Y0250006D01*
X0109678Y0250282D01*
X0109640Y0250711D01*
X0109916Y0251040D01*
X0110345Y0251078D01*
X0110674Y0250802D01*
X0110712Y0250373D01*
X0110436Y0250044D01*
X0135016Y0117039D02*
X0135536Y0116519D01*
X0134548Y0115107D01*
X0132853Y0114808D01*
X0131441Y0115796D01*
X0131142Y0117491D01*
X0132130Y0118903D01*
X0133825Y0119202D01*
X0135237Y0118214D01*
X0135536Y0116519D01*
X0134712Y0116701D01*
X0134094Y0115819D01*
X0133035Y0115632D01*
X0132153Y0116250D01*
X0131966Y0117309D01*
X0132584Y0118191D01*
X0133643Y0118378D01*
X0134525Y0117760D01*
X0134712Y0116701D01*
X0133888Y0116884D01*
X0133641Y0116531D01*
X0133218Y0116456D01*
X0132865Y0116703D01*
X0132790Y0117126D01*
X0133037Y0117479D01*
X0133460Y0117554D01*
X0133813Y0117307D01*
X0133888Y0116884D01*
X0135091Y0099353D02*
X0135611Y0098833D01*
X0134882Y0097270D01*
X0133265Y0096681D01*
X0131702Y0097410D01*
X0131113Y0099027D01*
X0131842Y0100590D01*
X0133459Y0101179D01*
X0135022Y0100450D01*
X0135611Y0098833D01*
X0134767Y0098870D01*
X0134312Y0097893D01*
X0133302Y0097525D01*
X0132325Y0097980D01*
X0131957Y0098990D01*
X0132412Y0099967D01*
X0133422Y0100335D01*
X0134399Y0099880D01*
X0134767Y0098870D01*
X0133924Y0098906D01*
X0133741Y0098515D01*
X0133338Y0098368D01*
X0132947Y0098551D01*
X0132800Y0098954D01*
X0132983Y0099345D01*
X0133386Y0099492D01*
X0133777Y0099309D01*
X0133924Y0098906D01*
X0134889Y0079317D02*
X0135409Y0079837D01*
X0134820Y0078218D01*
X0133259Y0077491D01*
X0131640Y0078080D01*
X0130913Y0079641D01*
X0131502Y0081260D01*
X0133063Y0081987D01*
X0134682Y0081398D01*
X0135409Y0079837D01*
X0134566Y0079800D01*
X0134197Y0078789D01*
X0133222Y0078334D01*
X0132211Y0078703D01*
X0131756Y0079678D01*
X0132125Y0080689D01*
X0133100Y0081144D01*
X0134111Y0080775D01*
X0134566Y0079800D01*
X0133723Y0079763D01*
X0133575Y0079359D01*
X0133185Y0079177D01*
X0132781Y0079325D01*
X0132599Y0079715D01*
X0132747Y0080119D01*
X0133137Y0080301D01*
X0133541Y0080153D01*
X0133723Y0079763D01*
X0134868Y0060874D02*
X0135388Y0061394D01*
X0134942Y0059730D01*
X0133451Y0058869D01*
X0131787Y0059315D01*
X0130926Y0060806D01*
X0131372Y0062470D01*
X0132863Y0063331D01*
X0134527Y0062885D01*
X0135388Y0061394D01*
X0134551Y0061284D01*
X0134272Y0060244D01*
X0133341Y0059706D01*
X0132301Y0059985D01*
X0131763Y0060916D01*
X0132042Y0061956D01*
X0132973Y0062494D01*
X0134013Y0062215D01*
X0134551Y0061284D01*
X0133714Y0061173D01*
X0133603Y0060758D01*
X0133230Y0060543D01*
X0132815Y0060654D01*
X0132600Y0061027D01*
X0132711Y0061442D01*
X0133084Y0061657D01*
X0133499Y0061546D01*
X0133714Y0061173D01*
X0135183Y0043699D02*
X0135703Y0044219D01*
X0135553Y0042503D01*
X0134234Y0041396D01*
X0132518Y0041546D01*
X0131411Y0042865D01*
X0131561Y0044581D01*
X0132880Y0045688D01*
X0134596Y0045538D01*
X0135703Y0044219D01*
X0134898Y0043965D01*
X0134804Y0042892D01*
X0133980Y0042201D01*
X0132907Y0042295D01*
X0132216Y0043119D01*
X0132310Y0044192D01*
X0133134Y0044883D01*
X0134207Y0044789D01*
X0134898Y0043965D01*
X0134093Y0043711D01*
X0134055Y0043282D01*
X0133726Y0043006D01*
X0133297Y0043044D01*
X0133021Y0043373D01*
X0133059Y0043802D01*
X0133388Y0044078D01*
X0133817Y0044040D01*
X0134093Y0043711D01*
X0108887Y0045874D02*
X0109407Y0046394D01*
X0108961Y0044730D01*
X0107470Y0043869D01*
X0105806Y0044315D01*
X0104945Y0045806D01*
X0105391Y0047470D01*
X0106882Y0048331D01*
X0108546Y0047885D01*
X0109407Y0046394D01*
X0108570Y0046284D01*
X0108291Y0045244D01*
X0107360Y0044706D01*
X0106320Y0044985D01*
X0105782Y0045916D01*
X0106061Y0046956D01*
X0106992Y0047494D01*
X0108032Y0047215D01*
X0108570Y0046284D01*
X0107733Y0046173D01*
X0107622Y0045758D01*
X0107249Y0045543D01*
X0106834Y0045654D01*
X0106619Y0046027D01*
X0106730Y0046442D01*
X0107103Y0046657D01*
X0107518Y0046546D01*
X0107733Y0046173D01*
X0107700Y0066639D02*
X0108220Y0067159D01*
X0107631Y0065540D01*
X0106070Y0064813D01*
X0104451Y0065402D01*
X0103724Y0066963D01*
X0104313Y0068582D01*
X0105874Y0069309D01*
X0107493Y0068720D01*
X0108220Y0067159D01*
X0107377Y0067122D01*
X0107008Y0066111D01*
X0106033Y0065656D01*
X0105022Y0066025D01*
X0104567Y0067000D01*
X0104936Y0068011D01*
X0105911Y0068466D01*
X0106922Y0068097D01*
X0107377Y0067122D01*
X0106534Y0067085D01*
X0106386Y0066681D01*
X0105996Y0066499D01*
X0105592Y0066647D01*
X0105410Y0067037D01*
X0105558Y0067441D01*
X0105948Y0067623D01*
X0106352Y0067475D01*
X0106534Y0067085D01*
X0106900Y0089093D02*
X0107420Y0088573D01*
X0106691Y0087010D01*
X0105074Y0086421D01*
X0103511Y0087150D01*
X0102922Y0088767D01*
X0103651Y0090330D01*
X0105268Y0090919D01*
X0106831Y0090190D01*
X0107420Y0088573D01*
X0106576Y0088610D01*
X0106121Y0087633D01*
X0105111Y0087265D01*
X0104134Y0087720D01*
X0103766Y0088730D01*
X0104221Y0089707D01*
X0105231Y0090075D01*
X0106208Y0089620D01*
X0106576Y0088610D01*
X0105733Y0088646D01*
X0105550Y0088255D01*
X0105147Y0088108D01*
X0104756Y0088291D01*
X0104609Y0088694D01*
X0104792Y0089085D01*
X0105195Y0089232D01*
X0105586Y0089049D01*
X0105733Y0088646D01*
X0105472Y0111829D02*
X0105992Y0111309D01*
X0105004Y0109897D01*
X0103309Y0109598D01*
X0101897Y0110586D01*
X0101598Y0112281D01*
X0102586Y0113693D01*
X0104281Y0113992D01*
X0105693Y0113004D01*
X0105992Y0111309D01*
X0105168Y0111491D01*
X0104550Y0110609D01*
X0103491Y0110422D01*
X0102609Y0111040D01*
X0102422Y0112099D01*
X0103040Y0112981D01*
X0104099Y0113168D01*
X0104981Y0112550D01*
X0105168Y0111491D01*
X0104344Y0111674D01*
X0104097Y0111321D01*
X0103674Y0111246D01*
X0103321Y0111493D01*
X0103246Y0111916D01*
X0103493Y0112269D01*
X0103916Y0112344D01*
X0104269Y0112097D01*
X0104344Y0111674D01*
X0112202Y0024415D02*
X0112722Y0024935D01*
X0112572Y0023219D01*
X0111253Y0022112D01*
X0109537Y0022262D01*
X0108430Y0023581D01*
X0108580Y0025297D01*
X0109899Y0026404D01*
X0111615Y0026254D01*
X0112722Y0024935D01*
X0111917Y0024681D01*
X0111823Y0023608D01*
X0110999Y0022917D01*
X0109926Y0023011D01*
X0109235Y0023835D01*
X0109329Y0024908D01*
X0110153Y0025599D01*
X0111226Y0025505D01*
X0111917Y0024681D01*
X0111112Y0024427D01*
X0111074Y0023998D01*
X0110745Y0023722D01*
X0110316Y0023760D01*
X0110040Y0024089D01*
X0110078Y0024518D01*
X0110407Y0024794D01*
X0110836Y0024756D01*
X0111112Y0024427D01*
D17*
X0025167Y0040700D03*
D18*
X0025167Y0050700D03*
X0015167Y0050700D03*
X0015167Y0040700D03*
X0015167Y0060700D03*
X0025167Y0060700D03*
D19*
X0049567Y0244487D03*
D20*
X0049567Y0165746D03*
D21*
X0049566Y0165746D02*
X0049564Y0165598D01*
X0049558Y0165450D01*
X0049548Y0165302D01*
X0049534Y0165154D01*
X0049517Y0165007D01*
X0049495Y0164861D01*
X0049470Y0164715D01*
X0049440Y0164569D01*
X0049407Y0164425D01*
X0049370Y0164282D01*
X0049329Y0164139D01*
X0049284Y0163998D01*
X0049236Y0163858D01*
X0049184Y0163719D01*
X0049128Y0163582D01*
X0049069Y0163446D01*
X0049006Y0163312D01*
X0048939Y0163180D01*
X0048869Y0163049D01*
X0048795Y0162920D01*
X0048718Y0162794D01*
X0048638Y0162669D01*
X0048555Y0162547D01*
X0048468Y0162427D01*
X0048378Y0162309D01*
X0048285Y0162194D01*
X0048189Y0162081D01*
X0048090Y0161971D01*
X0047988Y0161863D01*
X0047883Y0161758D01*
X0047775Y0161656D01*
X0047665Y0161557D01*
X0047552Y0161461D01*
X0047437Y0161368D01*
X0047319Y0161278D01*
X0047199Y0161191D01*
X0047077Y0161108D01*
X0046952Y0161028D01*
X0046826Y0160951D01*
X0046697Y0160877D01*
X0046566Y0160807D01*
X0046434Y0160740D01*
X0046300Y0160677D01*
X0046164Y0160618D01*
X0046027Y0160562D01*
X0045888Y0160510D01*
X0045748Y0160462D01*
X0045607Y0160417D01*
X0045464Y0160376D01*
X0045321Y0160339D01*
X0045177Y0160306D01*
X0045031Y0160276D01*
X0044885Y0160251D01*
X0044739Y0160229D01*
X0044592Y0160212D01*
X0044444Y0160198D01*
X0044296Y0160188D01*
X0044148Y0160182D01*
X0044000Y0160180D01*
X0018267Y0160180D01*
X0023396Y0164950D02*
X0041542Y0164950D01*
X0041542Y0164280D02*
X0024066Y0164280D01*
X0022232Y0166114D01*
X0019659Y0167180D01*
X0016874Y0167180D01*
X0014301Y0166114D01*
X0012332Y0164145D01*
X0011267Y0161572D01*
X0011267Y0158788D01*
X0012332Y0156215D01*
X0013367Y0155180D01*
X0012332Y0154145D01*
X0011267Y0151572D01*
X0011267Y0148788D01*
X0012332Y0146215D01*
X0013367Y0145180D01*
X0012332Y0144145D01*
X0011267Y0141572D01*
X0011267Y0138788D01*
X0012332Y0136215D01*
X0014301Y0134246D01*
X0016874Y0133180D01*
X0019659Y0133180D01*
X0020242Y0133422D01*
X0020525Y0121301D01*
X0019031Y0120683D01*
X0017189Y0118840D01*
X0016862Y0118051D01*
X0016594Y0118420D01*
X0016032Y0118982D01*
X0015388Y0119449D01*
X0014680Y0119810D01*
X0013924Y0120056D01*
X0013139Y0120180D01*
X0012742Y0120180D01*
X0012742Y0115130D01*
X0012742Y0115130D01*
X0012742Y0110080D01*
X0013139Y0110080D01*
X0013924Y0110204D01*
X0014680Y0110450D01*
X0015388Y0110811D01*
X0016032Y0111278D01*
X0016594Y0111840D01*
X0016862Y0112209D01*
X0017189Y0111420D01*
X0018642Y0109967D01*
X0018642Y0101928D01*
X0016939Y0100225D01*
X0016612Y0099436D01*
X0016344Y0099805D01*
X0015782Y0100367D01*
X0015138Y0100834D01*
X0014430Y0101195D01*
X0013674Y0101441D01*
X0012889Y0101565D01*
X0012492Y0101565D01*
X0012492Y0096515D01*
X0012492Y0091465D01*
X0012889Y0091465D01*
X0013674Y0091589D01*
X0014430Y0091835D01*
X0015138Y0092196D01*
X0015782Y0092663D01*
X0016344Y0093225D01*
X0016612Y0093594D01*
X0016939Y0092805D01*
X0018642Y0091102D01*
X0018642Y0083088D01*
X0016964Y0081410D01*
X0016637Y0080621D01*
X0016369Y0080990D01*
X0015807Y0081552D01*
X0015163Y0082019D01*
X0014455Y0082380D01*
X0013699Y0082626D01*
X0012914Y0082750D01*
X0012517Y0082750D01*
X0012517Y0077700D01*
X0012517Y0072650D01*
X0012914Y0072650D01*
X0013699Y0072774D01*
X0014455Y0073020D01*
X0015163Y0073381D01*
X0015807Y0073848D01*
X0016369Y0074410D01*
X0016637Y0074779D01*
X0016964Y0073990D01*
X0018806Y0072147D01*
X0021214Y0071150D01*
X0023820Y0071150D01*
X0026227Y0072147D01*
X0026898Y0072818D01*
X0027495Y0072501D01*
X0028788Y0071162D01*
X0029604Y0069490D01*
X0029765Y0068765D01*
X0029756Y0066010D01*
X0028066Y0067700D01*
X0022267Y0067700D01*
X0019106Y0064539D01*
X0017445Y0066200D01*
X0015367Y0066200D01*
X0015367Y0060900D01*
X0014967Y0060900D01*
X0014967Y0066200D01*
X0012888Y0066200D01*
X0009667Y0062978D01*
X0009667Y0060900D01*
X0014967Y0060900D01*
X0014967Y0060500D01*
X0009667Y0060500D01*
X0009667Y0058422D01*
X0011328Y0056761D01*
X0008567Y0053999D01*
X0008567Y0074545D01*
X0008665Y0074410D01*
X0009227Y0073848D01*
X0009870Y0073381D01*
X0010578Y0073020D01*
X0011334Y0072774D01*
X0012119Y0072650D01*
X0012517Y0072650D01*
X0012517Y0077700D01*
X0012517Y0077700D01*
X0012517Y0077700D01*
X0012517Y0082750D01*
X0012119Y0082750D01*
X0011334Y0082626D01*
X0010578Y0082380D01*
X0009870Y0082019D01*
X0009227Y0081552D01*
X0008665Y0080990D01*
X0008567Y0080855D01*
X0008567Y0093326D01*
X0008640Y0093225D01*
X0009202Y0092663D01*
X0009845Y0092196D01*
X0010553Y0091835D01*
X0011309Y0091589D01*
X0012094Y0091465D01*
X0012492Y0091465D01*
X0012492Y0096515D01*
X0012492Y0096515D01*
X0012492Y0096515D01*
X0012492Y0101565D01*
X0012094Y0101565D01*
X0011309Y0101441D01*
X0010553Y0101195D01*
X0009845Y0100834D01*
X0009202Y0100367D01*
X0008640Y0099805D01*
X0008567Y0099704D01*
X0008567Y0112285D01*
X0008890Y0111840D01*
X0009452Y0111278D01*
X0010095Y0110811D01*
X0010803Y0110450D01*
X0011559Y0110204D01*
X0012344Y0110080D01*
X0012742Y0110080D01*
X0012742Y0115130D01*
X0012742Y0115130D01*
X0012742Y0120180D01*
X0012344Y0120180D01*
X0011559Y0120056D01*
X0010803Y0119810D01*
X0010095Y0119449D01*
X0009452Y0118982D01*
X0008890Y0118420D01*
X0008567Y0117975D01*
X0008567Y0247903D01*
X0010552Y0245918D01*
X0013083Y0244457D01*
X0015905Y0243701D01*
X0018828Y0243701D01*
X0021651Y0244457D01*
X0024182Y0245918D01*
X0026248Y0247985D01*
X0027709Y0250516D01*
X0028466Y0253339D01*
X0028466Y0256261D01*
X0027709Y0259084D01*
X0026248Y0261615D01*
X0024463Y0263400D01*
X0062567Y0263400D01*
X0061832Y0262665D01*
X0060767Y0260092D01*
X0060767Y0257308D01*
X0061832Y0254735D01*
X0063801Y0252766D01*
X0064021Y0252675D01*
X0063999Y0252217D01*
X0065059Y0245128D01*
X0067480Y0238382D01*
X0067480Y0238382D01*
X0071172Y0232238D01*
X0075991Y0226932D01*
X0081753Y0222669D01*
X0088235Y0219611D01*
X0093792Y0218225D01*
X0093732Y0218165D01*
X0092667Y0215592D01*
X0092667Y0215582D01*
X0091892Y0215152D01*
X0088306Y0211685D01*
X0088306Y0211685D01*
X0085740Y0207408D01*
X0085740Y0207408D01*
X0084368Y0202612D01*
X0084284Y0197625D01*
X0084284Y0197625D01*
X0084741Y0195797D01*
X0084271Y0186410D01*
X0083781Y0186900D01*
X0078893Y0186900D01*
X0075437Y0183444D01*
X0075437Y0178556D01*
X0077151Y0176842D01*
X0077126Y0176403D01*
X0076251Y0172567D01*
X0074544Y0169022D01*
X0074544Y0169022D01*
X0072091Y0165946D01*
X0069014Y0163493D01*
X0065470Y0161786D01*
X0061634Y0160910D01*
X0059667Y0160800D01*
X0055968Y0160800D01*
X0056369Y0161201D01*
X0057591Y0164150D01*
X0057591Y0167343D01*
X0056369Y0170292D01*
X0054112Y0172549D01*
X0051163Y0173771D01*
X0047970Y0173771D01*
X0045021Y0172549D01*
X0042764Y0170292D01*
X0041542Y0167343D01*
X0041542Y0164280D01*
X0041542Y0166548D02*
X0021184Y0166548D01*
X0015349Y0166548D02*
X0008567Y0166548D01*
X0008567Y0164950D02*
X0013137Y0164950D01*
X0012003Y0163351D02*
X0008567Y0163351D01*
X0008567Y0161753D02*
X0011341Y0161753D01*
X0011267Y0160154D02*
X0008567Y0160154D01*
X0008567Y0158556D02*
X0011363Y0158556D01*
X0012025Y0156957D02*
X0008567Y0156957D01*
X0008567Y0155359D02*
X0013189Y0155359D01*
X0012173Y0153760D02*
X0008567Y0153760D01*
X0008567Y0152162D02*
X0011511Y0152162D01*
X0011267Y0150563D02*
X0008567Y0150563D01*
X0008567Y0148965D02*
X0011267Y0148965D01*
X0011855Y0147366D02*
X0008567Y0147366D01*
X0008567Y0145768D02*
X0012780Y0145768D01*
X0012356Y0144169D02*
X0008567Y0144169D01*
X0008567Y0142570D02*
X0011680Y0142570D01*
X0011267Y0140972D02*
X0008567Y0140972D01*
X0008567Y0139373D02*
X0011267Y0139373D01*
X0011686Y0137775D02*
X0008567Y0137775D01*
X0008567Y0136176D02*
X0012371Y0136176D01*
X0013969Y0134578D02*
X0008567Y0134578D01*
X0008567Y0132979D02*
X0020253Y0132979D01*
X0020290Y0131381D02*
X0008567Y0131381D01*
X0008567Y0129782D02*
X0020327Y0129782D01*
X0020364Y0128184D02*
X0008567Y0128184D01*
X0008567Y0126585D02*
X0020402Y0126585D01*
X0020439Y0124987D02*
X0008567Y0124987D01*
X0008567Y0123388D02*
X0020476Y0123388D01*
X0020513Y0121790D02*
X0008567Y0121790D01*
X0008567Y0120191D02*
X0018540Y0120191D01*
X0017086Y0118593D02*
X0016421Y0118593D01*
X0012742Y0118593D02*
X0012742Y0118593D01*
X0012742Y0116994D02*
X0012742Y0116994D01*
X0012742Y0115396D02*
X0012742Y0115396D01*
X0012742Y0113797D02*
X0012742Y0113797D01*
X0012742Y0112199D02*
X0012742Y0112199D01*
X0012742Y0110600D02*
X0012742Y0110600D01*
X0014975Y0110600D02*
X0018008Y0110600D01*
X0018642Y0109002D02*
X0008567Y0109002D01*
X0008567Y0110600D02*
X0010508Y0110600D01*
X0008629Y0112199D02*
X0008567Y0112199D01*
X0008567Y0107403D02*
X0018642Y0107403D01*
X0018642Y0105805D02*
X0008567Y0105805D01*
X0008567Y0104206D02*
X0018642Y0104206D01*
X0018642Y0102608D02*
X0008567Y0102608D01*
X0008567Y0101009D02*
X0010188Y0101009D01*
X0012492Y0101009D02*
X0012492Y0101009D01*
X0012492Y0099411D02*
X0012492Y0099411D01*
X0012492Y0097812D02*
X0012492Y0097812D01*
X0012492Y0096214D02*
X0012492Y0096214D01*
X0012492Y0094615D02*
X0012492Y0094615D01*
X0012492Y0093017D02*
X0012492Y0093017D01*
X0016135Y0093017D02*
X0016851Y0093017D01*
X0018325Y0091418D02*
X0008567Y0091418D01*
X0008567Y0089820D02*
X0018642Y0089820D01*
X0018642Y0088221D02*
X0008567Y0088221D01*
X0008567Y0086623D02*
X0018642Y0086623D01*
X0018642Y0085024D02*
X0008567Y0085024D01*
X0008567Y0083426D02*
X0018642Y0083426D01*
X0017381Y0081827D02*
X0015428Y0081827D01*
X0012517Y0081827D02*
X0012517Y0081827D01*
X0012517Y0080229D02*
X0012517Y0080229D01*
X0012517Y0078630D02*
X0012517Y0078630D01*
X0012517Y0077032D02*
X0012517Y0077032D01*
X0012517Y0075433D02*
X0012517Y0075433D01*
X0012517Y0073834D02*
X0012517Y0073834D01*
X0015788Y0073834D02*
X0017119Y0073834D01*
X0018718Y0072236D02*
X0008567Y0072236D01*
X0008567Y0073834D02*
X0009245Y0073834D01*
X0008567Y0070637D02*
X0029045Y0070637D01*
X0029705Y0069039D02*
X0008567Y0069039D01*
X0008567Y0067440D02*
X0022008Y0067440D01*
X0022517Y0077700D02*
X0022758Y0077731D01*
X0022999Y0077756D01*
X0023241Y0077775D01*
X0023484Y0077789D01*
X0023727Y0077796D01*
X0023969Y0077798D01*
X0024212Y0077794D01*
X0024455Y0077784D01*
X0024697Y0077768D01*
X0024939Y0077746D01*
X0025180Y0077718D01*
X0025421Y0077685D01*
X0025660Y0077646D01*
X0025899Y0077601D01*
X0026136Y0077550D01*
X0026372Y0077493D01*
X0026607Y0077431D01*
X0026840Y0077363D01*
X0027072Y0077290D01*
X0027301Y0077211D01*
X0027529Y0077126D01*
X0027754Y0077036D01*
X0027978Y0076941D01*
X0028199Y0076840D01*
X0028417Y0076734D01*
X0028633Y0076623D01*
X0028846Y0076506D01*
X0029056Y0076384D01*
X0029263Y0076258D01*
X0029467Y0076126D01*
X0029668Y0075989D01*
X0029865Y0075848D01*
X0030059Y0075702D01*
X0030250Y0075551D01*
X0030436Y0075396D01*
X0030619Y0075236D01*
X0030798Y0075072D01*
X0030973Y0074904D01*
X0031144Y0074731D01*
X0031310Y0074554D01*
X0031473Y0074374D01*
X0031631Y0074189D01*
X0031784Y0074001D01*
X0031933Y0073809D01*
X0032077Y0073614D01*
X0032216Y0073415D01*
X0032350Y0073213D01*
X0032480Y0073007D01*
X0032604Y0072799D01*
X0032724Y0072587D01*
X0032838Y0072373D01*
X0032947Y0072156D01*
X0033051Y0071937D01*
X0033150Y0071715D01*
X0033243Y0071491D01*
X0033330Y0071264D01*
X0033413Y0071036D01*
X0033489Y0070805D01*
X0033560Y0070573D01*
X0033626Y0070339D01*
X0033685Y0070104D01*
X0033739Y0069867D01*
X0033788Y0069629D01*
X0033830Y0069390D01*
X0033867Y0069150D01*
X0033767Y0039600D01*
X0033749Y0039448D01*
X0033728Y0039297D01*
X0033703Y0039147D01*
X0033674Y0038997D01*
X0033641Y0038848D01*
X0033604Y0038699D01*
X0033563Y0038552D01*
X0033519Y0038406D01*
X0033471Y0038261D01*
X0033419Y0038117D01*
X0033364Y0037975D01*
X0033305Y0037834D01*
X0033242Y0037695D01*
X0033176Y0037558D01*
X0033106Y0037422D01*
X0033033Y0037288D01*
X0032956Y0037156D01*
X0032876Y0037026D01*
X0032792Y0036898D01*
X0032706Y0036772D01*
X0032616Y0036649D01*
X0032523Y0036527D01*
X0032427Y0036409D01*
X0032328Y0036293D01*
X0032226Y0036179D01*
X0032121Y0036068D01*
X0032013Y0035960D01*
X0031902Y0035855D01*
X0031789Y0035752D01*
X0031673Y0035653D01*
X0031555Y0035556D01*
X0031434Y0035463D01*
X0031311Y0035373D01*
X0031186Y0035286D01*
X0031058Y0035202D01*
X0030928Y0035121D01*
X0030796Y0035044D01*
X0030663Y0034970D01*
X0030527Y0034900D01*
X0030390Y0034833D01*
X0030251Y0034770D01*
X0030110Y0034711D01*
X0029968Y0034655D01*
X0029825Y0034602D01*
X0029680Y0034554D01*
X0029534Y0034509D01*
X0029387Y0034468D01*
X0029239Y0034431D01*
X0029090Y0034397D01*
X0028940Y0034368D01*
X0028789Y0034342D01*
X0028638Y0034320D01*
X0028486Y0034302D01*
X0028334Y0034288D01*
X0028182Y0034278D01*
X0028030Y0034272D01*
X0027877Y0034270D01*
X0027724Y0034272D01*
X0027572Y0034277D01*
X0027419Y0034287D01*
X0027267Y0034300D01*
X0020267Y0034300D01*
X0020117Y0034319D01*
X0019967Y0034342D01*
X0019818Y0034368D01*
X0019669Y0034399D01*
X0019522Y0034434D01*
X0019375Y0034472D01*
X0019230Y0034514D01*
X0019086Y0034560D01*
X0018943Y0034610D01*
X0018801Y0034664D01*
X0018661Y0034721D01*
X0018522Y0034782D01*
X0018385Y0034846D01*
X0018249Y0034915D01*
X0018116Y0034986D01*
X0017984Y0035061D01*
X0017855Y0035140D01*
X0017727Y0035221D01*
X0017602Y0035307D01*
X0017479Y0035395D01*
X0017358Y0035487D01*
X0017240Y0035581D01*
X0017124Y0035679D01*
X0017011Y0035780D01*
X0016901Y0035884D01*
X0016793Y0035990D01*
X0016688Y0036100D01*
X0016586Y0036212D01*
X0016487Y0036326D01*
X0016391Y0036444D01*
X0016298Y0036563D01*
X0016209Y0036685D01*
X0016122Y0036810D01*
X0016039Y0036936D01*
X0015959Y0037065D01*
X0015883Y0037196D01*
X0015810Y0037329D01*
X0015740Y0037463D01*
X0015674Y0037600D01*
X0015612Y0037738D01*
X0015553Y0037877D01*
X0015498Y0038019D01*
X0015447Y0038161D01*
X0015399Y0038305D01*
X0015356Y0038450D01*
X0015316Y0038596D01*
X0015279Y0038743D01*
X0015247Y0038891D01*
X0015219Y0039040D01*
X0015194Y0039190D01*
X0015174Y0039340D01*
X0015157Y0039490D01*
X0015144Y0039641D01*
X0015136Y0039792D01*
X0015131Y0039944D01*
X0015130Y0040095D01*
X0015133Y0040247D01*
X0015140Y0040398D01*
X0015152Y0040549D01*
X0015167Y0040700D01*
X0009220Y0054652D02*
X0008567Y0054652D01*
X0008567Y0056251D02*
X0010818Y0056251D01*
X0010239Y0057849D02*
X0008567Y0057849D01*
X0008567Y0059448D02*
X0009667Y0059448D01*
X0009667Y0061046D02*
X0008567Y0061046D01*
X0008567Y0062645D02*
X0009667Y0062645D01*
X0008567Y0064243D02*
X0010932Y0064243D01*
X0012530Y0065842D02*
X0008567Y0065842D01*
X0014967Y0065842D02*
X0015367Y0065842D01*
X0015367Y0064243D02*
X0014967Y0064243D01*
X0014967Y0062645D02*
X0015367Y0062645D01*
X0015367Y0061046D02*
X0014967Y0061046D01*
X0017803Y0065842D02*
X0020409Y0065842D01*
X0026316Y0072236D02*
X0027751Y0072236D01*
X0028326Y0067440D02*
X0029761Y0067440D01*
X0037855Y0070230D02*
X0037614Y0071940D01*
X0037614Y0071940D01*
X0035649Y0075968D01*
X0032535Y0079191D01*
X0028578Y0081295D01*
X0028081Y0081382D01*
X0028069Y0081410D01*
X0026842Y0082638D01*
X0026842Y0091602D01*
X0028044Y0092805D01*
X0029042Y0095212D01*
X0029042Y0097818D01*
X0028044Y0100225D01*
X0026842Y0101428D01*
X0026842Y0109967D01*
X0028294Y0111420D01*
X0029292Y0113827D01*
X0029292Y0116433D01*
X0028985Y0117173D01*
X0029029Y0119667D01*
X0028749Y0120379D01*
X0028183Y0144644D01*
X0028463Y0145435D01*
X0028463Y0145435D01*
X0028388Y0146845D01*
X0028722Y0148094D01*
X0029675Y0149744D01*
X0031023Y0151091D01*
X0032673Y0152044D01*
X0034514Y0152538D01*
X0035467Y0152600D01*
X0062570Y0152600D01*
X0068232Y0153892D01*
X0073464Y0156412D01*
X0078004Y0160033D01*
X0081625Y0164573D01*
X0083357Y0168169D01*
X0082792Y0156900D01*
X0078893Y0156900D01*
X0075437Y0153444D01*
X0075437Y0151930D01*
X0070993Y0151930D01*
X0068825Y0151032D01*
X0067165Y0149372D01*
X0066267Y0147204D01*
X0066267Y0144856D01*
X0067165Y0142688D01*
X0068823Y0141030D01*
X0067165Y0139372D01*
X0066267Y0137204D01*
X0066267Y0134856D01*
X0067165Y0132688D01*
X0068823Y0131030D01*
X0067165Y0129372D01*
X0066267Y0127204D01*
X0066267Y0124856D01*
X0067165Y0122688D01*
X0068823Y0121030D01*
X0067165Y0119372D01*
X0066267Y0117204D01*
X0066267Y0114856D01*
X0067165Y0112688D01*
X0068823Y0111030D01*
X0067165Y0109372D01*
X0066267Y0107204D01*
X0066267Y0104856D01*
X0067165Y0102688D01*
X0068823Y0101030D01*
X0067165Y0099372D01*
X0066267Y0097204D01*
X0066267Y0094856D01*
X0067165Y0092688D01*
X0068825Y0091028D01*
X0070797Y0090211D01*
X0070478Y0090108D01*
X0069861Y0089793D01*
X0069300Y0089386D01*
X0068811Y0088896D01*
X0068403Y0088336D01*
X0068089Y0087719D01*
X0067875Y0087060D01*
X0067767Y0086376D01*
X0067767Y0086030D01*
X0067767Y0085684D01*
X0067875Y0085000D01*
X0068089Y0084341D01*
X0068403Y0083724D01*
X0068811Y0083164D01*
X0069300Y0082674D01*
X0069861Y0082267D01*
X0070478Y0081952D01*
X0070797Y0081849D01*
X0068825Y0081032D01*
X0067165Y0079372D01*
X0066267Y0077204D01*
X0066267Y0074856D01*
X0067165Y0072688D01*
X0068823Y0071030D01*
X0067165Y0069372D01*
X0066267Y0067204D01*
X0066267Y0064856D01*
X0067165Y0062688D01*
X0068823Y0061030D01*
X0067165Y0059372D01*
X0066267Y0057204D01*
X0066267Y0054856D01*
X0067165Y0052688D01*
X0068823Y0051030D01*
X0067165Y0049372D01*
X0066267Y0047204D01*
X0066267Y0044856D01*
X0067165Y0042688D01*
X0068823Y0041030D01*
X0067165Y0039372D01*
X0066267Y0037204D01*
X0066267Y0034856D01*
X0067165Y0032688D01*
X0068823Y0031030D01*
X0067165Y0029372D01*
X0066267Y0027204D01*
X0066267Y0024856D01*
X0067165Y0022688D01*
X0068823Y0021030D01*
X0067165Y0019372D01*
X0066267Y0017204D01*
X0066267Y0015549D01*
X0053267Y0015590D01*
X0053267Y0017204D01*
X0052368Y0019372D01*
X0050711Y0021030D01*
X0052368Y0022688D01*
X0053267Y0024856D01*
X0053267Y0027204D01*
X0052368Y0029372D01*
X0050711Y0031030D01*
X0052368Y0032688D01*
X0053267Y0034856D01*
X0053267Y0037204D01*
X0052368Y0039372D01*
X0050711Y0041030D01*
X0052368Y0042688D01*
X0053267Y0044856D01*
X0053267Y0047204D01*
X0052368Y0049372D01*
X0050711Y0051030D01*
X0052368Y0052688D01*
X0053267Y0054856D01*
X0053267Y0057204D01*
X0052368Y0059372D01*
X0050711Y0061030D01*
X0052368Y0062688D01*
X0053267Y0064856D01*
X0053267Y0067204D01*
X0052368Y0069372D01*
X0050709Y0071032D01*
X0048737Y0071849D01*
X0049056Y0071952D01*
X0049673Y0072267D01*
X0050233Y0072674D01*
X0050723Y0073164D01*
X0051130Y0073724D01*
X0051444Y0074341D01*
X0051658Y0075000D01*
X0051767Y0075684D01*
X0051767Y0076030D01*
X0051767Y0076376D01*
X0051658Y0077060D01*
X0051444Y0077719D01*
X0051130Y0078336D01*
X0050723Y0078896D01*
X0050233Y0079386D01*
X0049673Y0079793D01*
X0049056Y0080108D01*
X0048737Y0080211D01*
X0050709Y0081028D01*
X0052368Y0082688D01*
X0053267Y0084856D01*
X0053267Y0087204D01*
X0052368Y0089372D01*
X0050711Y0091030D01*
X0052368Y0092688D01*
X0053267Y0094856D01*
X0053267Y0097204D01*
X0052368Y0099372D01*
X0050711Y0101030D01*
X0052368Y0102688D01*
X0053267Y0104856D01*
X0053267Y0107204D01*
X0052368Y0109372D01*
X0050711Y0111030D01*
X0052368Y0112688D01*
X0053267Y0114856D01*
X0053267Y0117204D01*
X0052368Y0119372D01*
X0050711Y0121030D01*
X0052368Y0122688D01*
X0053267Y0124856D01*
X0053267Y0127204D01*
X0052368Y0129372D01*
X0050711Y0131030D01*
X0052368Y0132688D01*
X0053267Y0134856D01*
X0053267Y0137204D01*
X0052368Y0139372D01*
X0050711Y0141030D01*
X0052368Y0142688D01*
X0053267Y0144856D01*
X0053267Y0147204D01*
X0052368Y0149372D01*
X0050709Y0151032D01*
X0048540Y0151930D01*
X0040993Y0151930D01*
X0038825Y0151032D01*
X0037165Y0149372D01*
X0036267Y0147204D01*
X0036267Y0144856D01*
X0037165Y0142688D01*
X0038823Y0141030D01*
X0037165Y0139372D01*
X0036267Y0137204D01*
X0036267Y0134856D01*
X0037165Y0132688D01*
X0038823Y0131030D01*
X0037165Y0129372D01*
X0036267Y0127204D01*
X0036267Y0124856D01*
X0037165Y0122688D01*
X0038823Y0121030D01*
X0037165Y0119372D01*
X0036267Y0117204D01*
X0036267Y0114856D01*
X0037165Y0112688D01*
X0038823Y0111030D01*
X0037165Y0109372D01*
X0036267Y0107204D01*
X0036267Y0104856D01*
X0037165Y0102688D01*
X0038823Y0101030D01*
X0037165Y0099372D01*
X0036267Y0097204D01*
X0036267Y0094856D01*
X0037165Y0092688D01*
X0038823Y0091030D01*
X0037165Y0089372D01*
X0036267Y0087204D01*
X0036267Y0084856D01*
X0037165Y0082688D01*
X0038825Y0081028D01*
X0040797Y0080211D01*
X0040478Y0080108D01*
X0039861Y0079793D01*
X0039300Y0079386D01*
X0038811Y0078896D01*
X0038403Y0078336D01*
X0038089Y0077719D01*
X0037875Y0077060D01*
X0037767Y0076376D01*
X0037767Y0076030D01*
X0037767Y0075684D01*
X0037875Y0075000D01*
X0038089Y0074341D01*
X0038403Y0073724D01*
X0038811Y0073164D01*
X0039300Y0072674D01*
X0039861Y0072267D01*
X0040478Y0071952D01*
X0040797Y0071849D01*
X0038825Y0071032D01*
X0037904Y0070111D01*
X0037855Y0070230D01*
X0037798Y0070637D02*
X0038430Y0070637D01*
X0037470Y0072236D02*
X0039921Y0072236D01*
X0038347Y0073834D02*
X0036690Y0073834D01*
X0035910Y0075433D02*
X0037806Y0075433D01*
X0037767Y0076030D02*
X0044767Y0076030D01*
X0051767Y0076030D01*
X0044767Y0076030D01*
X0044767Y0076030D01*
X0044767Y0071930D01*
X0044767Y0071930D01*
X0044767Y0076030D01*
X0044767Y0076030D01*
X0044767Y0076030D01*
X0044767Y0080130D01*
X0044767Y0080130D01*
X0044767Y0076030D01*
X0057397Y0075530D01*
X0053134Y0075433D02*
X0066467Y0075433D01*
X0066267Y0075433D02*
X0051727Y0075433D01*
X0051663Y0077032D02*
X0066267Y0077032D01*
X0066467Y0077032D02*
X0053141Y0077032D01*
X0053149Y0078630D02*
X0066467Y0078630D01*
X0066858Y0078630D02*
X0050916Y0078630D01*
X0048778Y0080229D02*
X0068021Y0080229D01*
X0067397Y0085530D02*
X0067256Y0085528D01*
X0067114Y0085522D01*
X0066973Y0085512D01*
X0066833Y0085499D01*
X0066692Y0085481D01*
X0066553Y0085460D01*
X0066414Y0085435D01*
X0066275Y0085406D01*
X0066138Y0085373D01*
X0066001Y0085336D01*
X0065866Y0085296D01*
X0065731Y0085252D01*
X0065598Y0085204D01*
X0065467Y0085153D01*
X0065336Y0085098D01*
X0065208Y0085039D01*
X0065081Y0084977D01*
X0064955Y0084912D01*
X0064832Y0084843D01*
X0064711Y0084770D01*
X0064591Y0084695D01*
X0064474Y0084616D01*
X0064359Y0084534D01*
X0064246Y0084448D01*
X0064136Y0084360D01*
X0064028Y0084269D01*
X0063923Y0084174D01*
X0063820Y0084077D01*
X0063720Y0083977D01*
X0063623Y0083874D01*
X0063528Y0083769D01*
X0063437Y0083661D01*
X0063349Y0083551D01*
X0063263Y0083438D01*
X0063181Y0083323D01*
X0063102Y0083206D01*
X0063027Y0083086D01*
X0062954Y0082965D01*
X0062885Y0082842D01*
X0062820Y0082716D01*
X0062758Y0082589D01*
X0062699Y0082461D01*
X0062644Y0082330D01*
X0062593Y0082199D01*
X0062545Y0082066D01*
X0062501Y0081931D01*
X0062461Y0081796D01*
X0062424Y0081659D01*
X0062391Y0081522D01*
X0062362Y0081383D01*
X0062337Y0081244D01*
X0062316Y0081105D01*
X0062298Y0080964D01*
X0062285Y0080824D01*
X0062275Y0080683D01*
X0062269Y0080541D01*
X0062267Y0080400D01*
X0066467Y0080229D02*
X0053156Y0080229D01*
X0053163Y0081827D02*
X0066467Y0081827D01*
X0066467Y0083426D02*
X0053170Y0083426D01*
X0052674Y0083426D02*
X0068620Y0083426D01*
X0067871Y0085024D02*
X0053267Y0085024D01*
X0053177Y0085024D02*
X0066467Y0085024D01*
X0067397Y0085530D02*
X0074767Y0086030D01*
X0081767Y0086030D01*
X0081767Y0086376D01*
X0081658Y0087060D01*
X0081444Y0087719D01*
X0081130Y0088336D01*
X0080723Y0088896D01*
X0080233Y0089386D01*
X0079673Y0089793D01*
X0079056Y0090108D01*
X0078737Y0090211D01*
X0080709Y0091028D01*
X0082045Y0092364D01*
X0089392Y0092810D01*
X0090957Y0092557D01*
X0090957Y0092557D01*
X0094990Y0093183D01*
X0098631Y0095025D01*
X0098631Y0095025D01*
X0100819Y0097200D01*
X0101059Y0097200D01*
X0103632Y0098266D01*
X0104667Y0099301D01*
X0105701Y0098266D01*
X0108274Y0097200D01*
X0111059Y0097200D01*
X0113632Y0098266D01*
X0115601Y0100235D01*
X0116667Y0102808D01*
X0116667Y0105592D01*
X0115601Y0108165D01*
X0113632Y0110134D01*
X0111059Y0111200D01*
X0109891Y0111200D01*
X0109181Y0115227D01*
X0105177Y0118030D01*
X0101646Y0117407D01*
X0102435Y0119770D01*
X0103632Y0120266D01*
X0104667Y0121301D01*
X0105701Y0120266D01*
X0108274Y0119200D01*
X0111059Y0119200D01*
X0113632Y0120266D01*
X0115601Y0122235D01*
X0116667Y0124808D01*
X0116667Y0127592D01*
X0115601Y0130165D01*
X0113632Y0132134D01*
X0111059Y0133200D01*
X0109367Y0133200D01*
X0109367Y0135644D01*
X0107860Y0137150D01*
X0109367Y0138656D01*
X0109367Y0141200D01*
X0111059Y0141200D01*
X0113632Y0142266D01*
X0115601Y0144235D01*
X0116667Y0146808D01*
X0116667Y0149592D01*
X0115601Y0152165D01*
X0113632Y0154134D01*
X0111059Y0155200D01*
X0108274Y0155200D01*
X0105701Y0154134D01*
X0104667Y0153099D01*
X0103632Y0154134D01*
X0101059Y0155200D01*
X0098274Y0155200D01*
X0097983Y0155079D01*
X0098121Y0161392D01*
X0100763Y0157619D01*
X0105577Y0156770D01*
X0109581Y0159573D01*
X0110220Y0163200D01*
X0111059Y0163200D01*
X0113632Y0164266D01*
X0115601Y0166235D01*
X0116667Y0168808D01*
X0116667Y0171592D01*
X0115601Y0174165D01*
X0113632Y0176134D01*
X0111059Y0177200D01*
X0108274Y0177200D01*
X0105701Y0176134D01*
X0104667Y0175099D01*
X0103632Y0176134D01*
X0101059Y0177200D01*
X0098274Y0177200D01*
X0095701Y0176134D01*
X0095022Y0175455D01*
X0095243Y0182114D01*
X0095299Y0182269D01*
X0095270Y0182924D01*
X0095291Y0183579D01*
X0095280Y0183609D01*
X0095288Y0183838D01*
X0095688Y0185289D01*
X0096197Y0186060D01*
X0098274Y0185200D01*
X0098589Y0185200D01*
X0098146Y0183549D01*
X0100590Y0179316D01*
X0105311Y0178051D01*
X0109544Y0180495D01*
X0110805Y0185200D01*
X0111059Y0185200D01*
X0113632Y0186266D01*
X0115601Y0188235D01*
X0116667Y0190808D01*
X0116667Y0193592D01*
X0115601Y0196165D01*
X0113632Y0198134D01*
X0111059Y0199200D01*
X0108274Y0199200D01*
X0105701Y0198134D01*
X0104667Y0197099D01*
X0103632Y0198134D01*
X0101059Y0199200D01*
X0098274Y0199200D01*
X0095701Y0198134D01*
X0093732Y0196165D01*
X0092942Y0194258D01*
X0092872Y0194201D01*
X0092951Y0195795D01*
X0093042Y0196403D01*
X0092992Y0196603D01*
X0093002Y0196809D01*
X0092823Y0197313D01*
X0092593Y0198577D01*
X0092640Y0201381D01*
X0093412Y0204078D01*
X0094855Y0206482D01*
X0096400Y0207976D01*
X0098274Y0207200D01*
X0099246Y0207200D01*
X0098791Y0205952D01*
X0100857Y0201522D01*
X0105450Y0199850D01*
X0109880Y0201916D01*
X0111551Y0206509D01*
X0111201Y0207259D01*
X0113632Y0208266D01*
X0115601Y0210235D01*
X0116667Y0212808D01*
X0116667Y0215592D01*
X0116084Y0216999D01*
X0120798Y0216807D01*
X0121535Y0216749D01*
X0121610Y0216773D01*
X0121690Y0216770D01*
X0122383Y0217025D01*
X0123086Y0217254D01*
X0123146Y0217305D01*
X0123221Y0217332D01*
X0123764Y0217833D01*
X0124326Y0218314D01*
X0124362Y0218384D01*
X0124420Y0218438D01*
X0124730Y0219109D01*
X0125066Y0219767D01*
X0125072Y0219846D01*
X0125105Y0219918D01*
X0125133Y0220608D01*
X0125263Y0221509D01*
X0125887Y0223274D01*
X0126947Y0224817D01*
X0128370Y0226034D01*
X0129539Y0226592D01*
X0131237Y0225168D01*
X0136067Y0225590D01*
X0136067Y0218433D01*
X0133991Y0219631D01*
X0129269Y0218366D01*
X0126826Y0214134D01*
X0128091Y0209412D01*
X0132323Y0206969D01*
X0136067Y0207972D01*
X0136067Y0201264D01*
X0133083Y0202350D01*
X0128654Y0200284D01*
X0126982Y0195691D01*
X0129048Y0191261D01*
X0133641Y0189590D01*
X0136067Y0190721D01*
X0136067Y0182026D01*
X0132622Y0182949D01*
X0128389Y0180505D01*
X0127124Y0175784D01*
X0129568Y0171551D01*
X0134289Y0170286D01*
X0136067Y0171313D01*
X0136067Y0163376D01*
X0132357Y0164030D01*
X0128353Y0161227D01*
X0127504Y0156413D01*
X0130308Y0152409D01*
X0135121Y0151561D01*
X0136067Y0152223D01*
X0136067Y0146844D01*
X0135911Y0147000D01*
X0131023Y0147000D01*
X0127567Y0143544D01*
X0127567Y0138656D01*
X0129073Y0137150D01*
X0127567Y0135644D01*
X0127567Y0130756D01*
X0131023Y0127300D01*
X0135911Y0127300D01*
X0136067Y0127456D01*
X0136067Y0122297D01*
X0134721Y0123239D01*
X0129908Y0122391D01*
X0127104Y0118387D01*
X0127953Y0113573D01*
X0131957Y0110770D01*
X0136067Y0111495D01*
X0136067Y0104179D01*
X0133641Y0105310D01*
X0129048Y0103639D01*
X0126982Y0099209D01*
X0128654Y0094616D01*
X0133083Y0092550D01*
X0136067Y0093636D01*
X0136067Y0084960D01*
X0132883Y0086119D01*
X0128453Y0084054D01*
X0126781Y0079461D01*
X0128847Y0075031D01*
X0133440Y0073359D01*
X0136067Y0074584D01*
X0136067Y0066428D01*
X0132323Y0067431D01*
X0128091Y0064988D01*
X0126826Y0060266D01*
X0129269Y0056034D01*
X0133991Y0054769D01*
X0136067Y0055967D01*
X0136067Y0049245D01*
X0131637Y0049632D01*
X0127893Y0046491D01*
X0127467Y0041621D01*
X0130609Y0037877D01*
X0135478Y0037451D01*
X0136067Y0037946D01*
X0136067Y0023644D01*
X0135448Y0024715D01*
X0133382Y0026782D01*
X0130851Y0028243D01*
X0128028Y0028999D01*
X0125105Y0028999D01*
X0122283Y0028243D01*
X0119752Y0026782D01*
X0117685Y0024715D01*
X0116334Y0022374D01*
X0116667Y0026179D01*
X0113525Y0029923D01*
X0108656Y0030349D01*
X0104911Y0027207D01*
X0104485Y0022338D01*
X0105133Y0021566D01*
X0104667Y0021099D01*
X0103632Y0022134D01*
X0101059Y0023200D01*
X0098274Y0023200D01*
X0095701Y0022134D01*
X0094967Y0021399D01*
X0094967Y0029400D01*
X0095025Y0030135D01*
X0095479Y0031534D01*
X0095939Y0032167D01*
X0098274Y0031200D01*
X0101059Y0031200D01*
X0103632Y0032266D01*
X0104667Y0033301D01*
X0105701Y0032266D01*
X0108274Y0031200D01*
X0111059Y0031200D01*
X0113632Y0032266D01*
X0115601Y0034235D01*
X0116667Y0036808D01*
X0116667Y0039592D01*
X0115601Y0042165D01*
X0113632Y0044134D01*
X0112845Y0044460D01*
X0113508Y0046934D01*
X0111064Y0051166D01*
X0106343Y0052431D01*
X0102110Y0049988D01*
X0100845Y0045266D01*
X0100883Y0045200D01*
X0098274Y0045200D01*
X0095701Y0044134D01*
X0093732Y0042165D01*
X0093062Y0040547D01*
X0091367Y0039315D01*
X0091367Y0047800D01*
X0091438Y0048883D01*
X0091998Y0050976D01*
X0093082Y0052853D01*
X0094614Y0054385D01*
X0095228Y0054739D01*
X0095701Y0054266D01*
X0098274Y0053200D01*
X0101059Y0053200D01*
X0103632Y0054266D01*
X0104667Y0055301D01*
X0105701Y0054266D01*
X0108274Y0053200D01*
X0111059Y0053200D01*
X0113632Y0054266D01*
X0115601Y0056235D01*
X0116667Y0058808D01*
X0116667Y0061592D01*
X0115601Y0064165D01*
X0113632Y0066134D01*
X0112139Y0066753D01*
X0112352Y0067339D01*
X0110286Y0071769D01*
X0105693Y0073441D01*
X0101264Y0071375D01*
X0099744Y0067200D01*
X0098274Y0067200D01*
X0095701Y0066134D01*
X0093732Y0064165D01*
X0093325Y0063183D01*
X0093298Y0063176D01*
X0093298Y0063176D01*
X0089535Y0061003D01*
X0087867Y0059334D01*
X0087867Y0068100D01*
X0087952Y0069405D01*
X0088628Y0071927D01*
X0089933Y0074188D01*
X0091779Y0076034D01*
X0094040Y0077339D01*
X0094504Y0077463D01*
X0095701Y0076266D01*
X0098274Y0075200D01*
X0101059Y0075200D01*
X0103632Y0076266D01*
X0104667Y0077301D01*
X0105701Y0076266D01*
X0108274Y0075200D01*
X0111059Y0075200D01*
X0113632Y0076266D01*
X0115601Y0078235D01*
X0116667Y0080808D01*
X0116667Y0083592D01*
X0115601Y0086165D01*
X0113632Y0088134D01*
X0111292Y0089103D01*
X0109880Y0092984D01*
X0105450Y0095050D01*
X0100857Y0093378D01*
X0098909Y0089200D01*
X0098274Y0089200D01*
X0095701Y0088134D01*
X0093732Y0086165D01*
X0093578Y0085793D01*
X0090842Y0085060D01*
X0090842Y0085060D01*
X0086692Y0082664D01*
X0086692Y0082664D01*
X0083303Y0079275D01*
X0082782Y0078373D01*
X0082368Y0079372D01*
X0080709Y0081032D01*
X0078737Y0081849D01*
X0079056Y0081952D01*
X0079673Y0082267D01*
X0080233Y0082674D01*
X0080723Y0083164D01*
X0081130Y0083724D01*
X0081444Y0084341D01*
X0081658Y0085000D01*
X0081767Y0085684D01*
X0081767Y0086030D01*
X0074767Y0086030D01*
X0074767Y0086030D01*
X0074767Y0081930D01*
X0074767Y0081930D01*
X0074767Y0086030D01*
X0074767Y0086030D01*
X0074767Y0090130D01*
X0074767Y0090130D01*
X0074767Y0086030D01*
X0074767Y0086030D01*
X0067767Y0086030D01*
X0074767Y0086030D01*
X0074767Y0086030D01*
X0074767Y0086623D02*
X0074767Y0086623D01*
X0074767Y0088221D02*
X0074767Y0088221D01*
X0074767Y0089820D02*
X0074767Y0089820D01*
X0074767Y0085024D02*
X0074767Y0085024D01*
X0074767Y0083426D02*
X0074767Y0083426D01*
X0078789Y0081827D02*
X0085855Y0081827D01*
X0084257Y0080229D02*
X0081512Y0080229D01*
X0082676Y0078630D02*
X0082931Y0078630D01*
X0083303Y0079275D02*
X0083303Y0079275D01*
X0080913Y0083426D02*
X0088011Y0083426D01*
X0090780Y0085024D02*
X0081662Y0085024D01*
X0081728Y0086623D02*
X0094190Y0086623D01*
X0095911Y0088221D02*
X0081188Y0088221D01*
X0079621Y0089820D02*
X0099198Y0089820D01*
X0099943Y0091418D02*
X0081099Y0091418D01*
X0074767Y0096030D02*
X0089597Y0096930D01*
X0093916Y0093017D02*
X0100688Y0093017D01*
X0097821Y0094615D02*
X0104256Y0094615D01*
X0106382Y0094615D02*
X0128655Y0094615D01*
X0128072Y0096214D02*
X0099827Y0096214D01*
X0102537Y0097812D02*
X0106796Y0097812D01*
X0109810Y0093017D02*
X0132083Y0093017D01*
X0134365Y0093017D02*
X0136067Y0093017D01*
X0136067Y0091418D02*
X0110450Y0091418D01*
X0111031Y0089820D02*
X0136067Y0089820D01*
X0136067Y0088221D02*
X0113422Y0088221D01*
X0115144Y0086623D02*
X0136067Y0086623D01*
X0136067Y0085024D02*
X0135892Y0085024D01*
X0130534Y0085024D02*
X0116074Y0085024D01*
X0116667Y0083426D02*
X0128224Y0083426D01*
X0127643Y0081827D02*
X0116667Y0081827D01*
X0116427Y0080229D02*
X0127061Y0080229D01*
X0127169Y0078630D02*
X0115765Y0078630D01*
X0114398Y0077032D02*
X0127914Y0077032D01*
X0128659Y0075433D02*
X0111622Y0075433D01*
X0107712Y0075433D02*
X0101622Y0075433D01*
X0104398Y0077032D02*
X0104936Y0077032D01*
X0109667Y0082200D02*
X0105171Y0088670D01*
X0099667Y0082200D02*
X0097867Y0082200D01*
X0094936Y0077032D02*
X0093508Y0077032D01*
X0091179Y0075433D02*
X0097712Y0075433D01*
X0100995Y0070637D02*
X0088282Y0070637D01*
X0087928Y0069039D02*
X0100413Y0069039D01*
X0099832Y0067440D02*
X0087867Y0067440D01*
X0087867Y0065842D02*
X0095409Y0065842D01*
X0093811Y0064243D02*
X0087867Y0064243D01*
X0087867Y0062645D02*
X0092379Y0062645D01*
X0089610Y0061046D02*
X0087867Y0061046D01*
X0087867Y0059448D02*
X0087980Y0059448D01*
X0089535Y0061003D02*
X0089535Y0061003D01*
X0095077Y0054652D02*
X0095315Y0054652D01*
X0093283Y0053054D02*
X0136067Y0053054D01*
X0136067Y0054652D02*
X0114019Y0054652D01*
X0115608Y0056251D02*
X0129144Y0056251D01*
X0128221Y0057849D02*
X0116270Y0057849D01*
X0116667Y0059448D02*
X0127298Y0059448D01*
X0127035Y0061046D02*
X0116667Y0061046D01*
X0116231Y0062645D02*
X0127463Y0062645D01*
X0127891Y0064243D02*
X0115523Y0064243D01*
X0113924Y0065842D02*
X0129570Y0065842D01*
X0136067Y0067440D02*
X0112305Y0067440D01*
X0111559Y0069039D02*
X0136067Y0069039D01*
X0136067Y0070637D02*
X0110814Y0070637D01*
X0109003Y0072236D02*
X0136067Y0072236D01*
X0136067Y0073834D02*
X0134459Y0073834D01*
X0132134Y0073834D02*
X0089729Y0073834D01*
X0088806Y0072236D02*
X0103110Y0072236D01*
X0105972Y0067061D02*
X0109667Y0060200D01*
X0105315Y0054652D02*
X0104019Y0054652D01*
X0104652Y0051455D02*
X0092275Y0051455D01*
X0093082Y0052853D02*
X0093082Y0052853D01*
X0091698Y0049857D02*
X0102075Y0049857D01*
X0101646Y0048258D02*
X0091397Y0048258D01*
X0091367Y0046660D02*
X0101218Y0046660D01*
X0099667Y0060200D02*
X0099367Y0060196D01*
X0099068Y0060186D01*
X0098769Y0060167D01*
X0098470Y0060142D01*
X0098172Y0060110D01*
X0097875Y0060070D01*
X0097579Y0060023D01*
X0097285Y0059969D01*
X0096991Y0059908D01*
X0096699Y0059840D01*
X0096409Y0059764D01*
X0096121Y0059682D01*
X0095835Y0059593D01*
X0095551Y0059497D01*
X0095270Y0059394D01*
X0094991Y0059285D01*
X0094715Y0059168D01*
X0094442Y0059045D01*
X0094171Y0058916D01*
X0093904Y0058780D01*
X0093641Y0058637D01*
X0093381Y0058488D01*
X0093124Y0058333D01*
X0092872Y0058172D01*
X0092623Y0058005D01*
X0092378Y0057832D01*
X0092138Y0057653D01*
X0091902Y0057468D01*
X0091671Y0057278D01*
X0091444Y0057082D01*
X0091222Y0056880D01*
X0091005Y0056673D01*
X0090794Y0056462D01*
X0090587Y0056245D01*
X0090385Y0056023D01*
X0090189Y0055796D01*
X0089999Y0055565D01*
X0089814Y0055329D01*
X0089635Y0055089D01*
X0089462Y0054844D01*
X0089295Y0054595D01*
X0089134Y0054343D01*
X0088979Y0054086D01*
X0088830Y0053826D01*
X0088687Y0053563D01*
X0088551Y0053296D01*
X0088422Y0053025D01*
X0088299Y0052752D01*
X0088182Y0052476D01*
X0088073Y0052197D01*
X0087970Y0051916D01*
X0087874Y0051632D01*
X0087785Y0051346D01*
X0087703Y0051058D01*
X0087627Y0050768D01*
X0087559Y0050476D01*
X0087498Y0050182D01*
X0087444Y0049888D01*
X0087397Y0049592D01*
X0087357Y0049295D01*
X0087325Y0048997D01*
X0087300Y0048698D01*
X0087281Y0048399D01*
X0087271Y0048100D01*
X0087267Y0047800D01*
X0087267Y0024700D01*
X0090867Y0020200D02*
X0090867Y0029400D01*
X0094967Y0029076D02*
X0107139Y0029076D01*
X0105234Y0027478D02*
X0094967Y0027478D01*
X0094967Y0025879D02*
X0104795Y0025879D01*
X0104655Y0024281D02*
X0094967Y0024281D01*
X0094967Y0022682D02*
X0097024Y0022682D01*
X0102309Y0022682D02*
X0104516Y0022682D01*
X0110576Y0024258D02*
X0109667Y0016200D01*
X0116361Y0022682D02*
X0116511Y0022682D01*
X0116500Y0024281D02*
X0117434Y0024281D01*
X0116640Y0025879D02*
X0118849Y0025879D01*
X0120957Y0027478D02*
X0115576Y0027478D01*
X0114235Y0029076D02*
X0136067Y0029076D01*
X0136067Y0027478D02*
X0132176Y0027478D01*
X0134284Y0025879D02*
X0136067Y0025879D01*
X0136067Y0024281D02*
X0135699Y0024281D01*
X0136067Y0030675D02*
X0095200Y0030675D01*
X0090867Y0029400D02*
X0090870Y0029613D01*
X0090877Y0029825D01*
X0090890Y0030037D01*
X0090908Y0030249D01*
X0090931Y0030461D01*
X0090959Y0030672D01*
X0090993Y0030882D01*
X0091031Y0031091D01*
X0091074Y0031299D01*
X0091123Y0031506D01*
X0091176Y0031712D01*
X0091234Y0031916D01*
X0091298Y0032119D01*
X0091366Y0032321D01*
X0091439Y0032521D01*
X0091517Y0032718D01*
X0091599Y0032914D01*
X0091687Y0033108D01*
X0091778Y0033300D01*
X0091875Y0033490D01*
X0091976Y0033677D01*
X0092082Y0033861D01*
X0092192Y0034043D01*
X0092306Y0034223D01*
X0092425Y0034399D01*
X0092548Y0034573D01*
X0092675Y0034743D01*
X0092806Y0034910D01*
X0092941Y0035075D01*
X0093080Y0035235D01*
X0093223Y0035393D01*
X0093370Y0035547D01*
X0093520Y0035697D01*
X0093674Y0035844D01*
X0093832Y0035987D01*
X0093992Y0036126D01*
X0094157Y0036261D01*
X0094324Y0036392D01*
X0094494Y0036519D01*
X0094668Y0036642D01*
X0094844Y0036761D01*
X0095024Y0036875D01*
X0095206Y0036985D01*
X0095390Y0037091D01*
X0095577Y0037192D01*
X0095767Y0037289D01*
X0095959Y0037380D01*
X0096153Y0037468D01*
X0096349Y0037550D01*
X0096546Y0037628D01*
X0096746Y0037701D01*
X0096948Y0037769D01*
X0097151Y0037833D01*
X0097355Y0037891D01*
X0097561Y0037944D01*
X0097768Y0037993D01*
X0097976Y0038036D01*
X0098185Y0038074D01*
X0098395Y0038108D01*
X0098606Y0038136D01*
X0098818Y0038159D01*
X0099030Y0038177D01*
X0099242Y0038190D01*
X0099454Y0038197D01*
X0099667Y0038200D01*
X0095030Y0043463D02*
X0091367Y0043463D01*
X0091367Y0045061D02*
X0097939Y0045061D01*
X0093608Y0041864D02*
X0091367Y0041864D01*
X0091367Y0040266D02*
X0092675Y0040266D01*
X0083767Y0035030D02*
X0083767Y0068100D01*
X0083771Y0068441D01*
X0083783Y0068781D01*
X0083804Y0069121D01*
X0083833Y0069461D01*
X0083870Y0069800D01*
X0083915Y0070137D01*
X0083968Y0070474D01*
X0084030Y0070809D01*
X0084099Y0071143D01*
X0084177Y0071474D01*
X0084262Y0071804D01*
X0084356Y0072132D01*
X0084457Y0072457D01*
X0084566Y0072780D01*
X0084683Y0073100D01*
X0084808Y0073417D01*
X0084940Y0073731D01*
X0085080Y0074042D01*
X0085227Y0074349D01*
X0085382Y0074653D01*
X0085544Y0074952D01*
X0085713Y0075248D01*
X0085890Y0075540D01*
X0086073Y0075827D01*
X0086263Y0076110D01*
X0086460Y0076388D01*
X0086663Y0076661D01*
X0086874Y0076929D01*
X0087090Y0077192D01*
X0087313Y0077450D01*
X0087542Y0077702D01*
X0087777Y0077949D01*
X0088018Y0078190D01*
X0088265Y0078425D01*
X0088517Y0078654D01*
X0088775Y0078877D01*
X0089038Y0079093D01*
X0089306Y0079304D01*
X0089579Y0079507D01*
X0089857Y0079704D01*
X0090140Y0079894D01*
X0090427Y0080077D01*
X0090719Y0080254D01*
X0091015Y0080423D01*
X0091314Y0080585D01*
X0091618Y0080740D01*
X0091925Y0080887D01*
X0092236Y0081027D01*
X0092550Y0081159D01*
X0092867Y0081284D01*
X0093187Y0081401D01*
X0093510Y0081510D01*
X0093835Y0081611D01*
X0094163Y0081705D01*
X0094493Y0081790D01*
X0094824Y0081868D01*
X0095158Y0081937D01*
X0095493Y0081999D01*
X0095830Y0082052D01*
X0096167Y0082097D01*
X0096506Y0082134D01*
X0096846Y0082163D01*
X0097186Y0082184D01*
X0097526Y0082196D01*
X0097867Y0082200D01*
X0094990Y0093183D02*
X0094990Y0093183D01*
X0089597Y0096930D02*
X0089807Y0096899D01*
X0090018Y0096873D01*
X0090229Y0096852D01*
X0090440Y0096836D01*
X0090652Y0096825D01*
X0090864Y0096819D01*
X0091077Y0096818D01*
X0091289Y0096823D01*
X0091501Y0096832D01*
X0091713Y0096847D01*
X0091924Y0096867D01*
X0092135Y0096892D01*
X0092345Y0096922D01*
X0092554Y0096957D01*
X0092762Y0096997D01*
X0092970Y0097042D01*
X0093176Y0097093D01*
X0093381Y0097148D01*
X0093584Y0097208D01*
X0093786Y0097273D01*
X0093987Y0097343D01*
X0094185Y0097417D01*
X0094382Y0097497D01*
X0094577Y0097581D01*
X0094770Y0097670D01*
X0094960Y0097763D01*
X0095149Y0097861D01*
X0095334Y0097964D01*
X0095518Y0098071D01*
X0095698Y0098182D01*
X0095876Y0098298D01*
X0096051Y0098418D01*
X0096223Y0098542D01*
X0096392Y0098671D01*
X0096558Y0098803D01*
X0096721Y0098939D01*
X0096880Y0099080D01*
X0097036Y0099224D01*
X0097188Y0099371D01*
X0097337Y0099523D01*
X0097482Y0099678D01*
X0097623Y0099836D01*
X0097760Y0099998D01*
X0097894Y0100163D01*
X0098023Y0100331D01*
X0098148Y0100503D01*
X0098269Y0100677D01*
X0098386Y0100854D01*
X0098499Y0101034D01*
X0098607Y0101217D01*
X0098711Y0101402D01*
X0098810Y0101589D01*
X0098904Y0101779D01*
X0098994Y0101972D01*
X0099080Y0102166D01*
X0099160Y0102362D01*
X0099236Y0102560D01*
X0099307Y0102760D01*
X0099373Y0102962D01*
X0099435Y0103165D01*
X0099491Y0103370D01*
X0099543Y0103576D01*
X0099589Y0103783D01*
X0099630Y0103991D01*
X0099667Y0104200D01*
X0103795Y0111795D02*
X0109667Y0104200D01*
X0116667Y0104206D02*
X0130607Y0104206D01*
X0128567Y0102608D02*
X0116584Y0102608D01*
X0115922Y0101009D02*
X0127822Y0101009D01*
X0127076Y0099411D02*
X0114777Y0099411D01*
X0112537Y0097812D02*
X0127490Y0097812D01*
X0136008Y0104206D02*
X0136067Y0104206D01*
X0136067Y0105805D02*
X0116579Y0105805D01*
X0115917Y0107403D02*
X0136067Y0107403D01*
X0136067Y0109002D02*
X0114764Y0109002D01*
X0112507Y0110600D02*
X0136067Y0110600D01*
X0129916Y0112199D02*
X0109714Y0112199D01*
X0109433Y0113797D02*
X0127913Y0113797D01*
X0127631Y0115396D02*
X0108939Y0115396D01*
X0106656Y0116994D02*
X0127350Y0116994D01*
X0127248Y0118593D02*
X0102042Y0118593D01*
X0103452Y0120191D02*
X0105881Y0120191D01*
X0109667Y0126200D02*
X0103467Y0133200D01*
X0108834Y0136176D02*
X0128099Y0136176D01*
X0128448Y0137775D02*
X0108485Y0137775D01*
X0109367Y0139373D02*
X0127567Y0139373D01*
X0127567Y0140972D02*
X0109367Y0140972D01*
X0113937Y0142570D02*
X0127567Y0142570D01*
X0128192Y0144169D02*
X0115535Y0144169D01*
X0116236Y0145768D02*
X0129790Y0145768D01*
X0136067Y0147366D02*
X0116667Y0147366D01*
X0116667Y0148965D02*
X0136067Y0148965D01*
X0136067Y0150563D02*
X0116265Y0150563D01*
X0115602Y0152162D02*
X0131712Y0152162D01*
X0129362Y0153760D02*
X0114006Y0153760D01*
X0109667Y0148200D02*
X0103467Y0141100D01*
X0097067Y0142000D02*
X0097167Y0145300D01*
X0097162Y0145401D01*
X0097160Y0145502D01*
X0097162Y0145604D01*
X0097168Y0145705D01*
X0097177Y0145805D01*
X0097191Y0145906D01*
X0097208Y0146006D01*
X0097228Y0146105D01*
X0097253Y0146203D01*
X0097281Y0146300D01*
X0097313Y0146396D01*
X0097348Y0146491D01*
X0097387Y0146585D01*
X0097429Y0146677D01*
X0097475Y0146767D01*
X0097524Y0146856D01*
X0097576Y0146942D01*
X0097632Y0147027D01*
X0097690Y0147109D01*
X0097752Y0147190D01*
X0097817Y0147268D01*
X0097884Y0147343D01*
X0097955Y0147416D01*
X0098027Y0147486D01*
X0098103Y0147553D01*
X0098181Y0147618D01*
X0098261Y0147679D01*
X0098344Y0147738D01*
X0098429Y0147793D01*
X0098516Y0147845D01*
X0098604Y0147894D01*
X0098695Y0147940D01*
X0098787Y0147982D01*
X0098880Y0148021D01*
X0098975Y0148056D01*
X0099071Y0148087D01*
X0099169Y0148115D01*
X0099267Y0148140D01*
X0099366Y0148160D01*
X0099466Y0148177D01*
X0099566Y0148190D01*
X0099667Y0148200D01*
X0104006Y0153760D02*
X0105327Y0153760D01*
X0105844Y0156957D02*
X0127600Y0156957D01*
X0127882Y0158556D02*
X0108127Y0158556D01*
X0109683Y0160154D02*
X0128164Y0160154D01*
X0129104Y0161753D02*
X0109965Y0161753D01*
X0111424Y0163351D02*
X0131387Y0163351D01*
X0136067Y0164950D02*
X0114316Y0164950D01*
X0115731Y0166548D02*
X0136067Y0166548D01*
X0136067Y0168147D02*
X0116393Y0168147D01*
X0116667Y0169745D02*
X0136067Y0169745D01*
X0130343Y0171344D02*
X0116667Y0171344D01*
X0116108Y0172942D02*
X0128765Y0172942D01*
X0127842Y0174541D02*
X0115225Y0174541D01*
X0113620Y0176139D02*
X0127219Y0176139D01*
X0127648Y0177738D02*
X0095098Y0177738D01*
X0095151Y0179336D02*
X0100578Y0179336D01*
X0099655Y0180935D02*
X0095204Y0180935D01*
X0095287Y0182533D02*
X0098733Y0182533D01*
X0091167Y0182900D02*
X0091160Y0183115D01*
X0091158Y0183330D01*
X0091161Y0183546D01*
X0091170Y0183761D01*
X0091184Y0183976D01*
X0091203Y0184190D01*
X0091227Y0184404D01*
X0091256Y0184617D01*
X0091290Y0184830D01*
X0091330Y0185042D01*
X0091375Y0185252D01*
X0091424Y0185462D01*
X0091479Y0185670D01*
X0091539Y0185877D01*
X0091603Y0186082D01*
X0091673Y0186286D01*
X0091748Y0186488D01*
X0091827Y0186688D01*
X0091912Y0186886D01*
X0092001Y0187082D01*
X0092094Y0187276D01*
X0092193Y0187467D01*
X0092296Y0187656D01*
X0092403Y0187843D01*
X0092515Y0188027D01*
X0092632Y0188208D01*
X0092752Y0188386D01*
X0092877Y0188561D01*
X0093007Y0188733D01*
X0093140Y0188902D01*
X0093277Y0189068D01*
X0093419Y0189231D01*
X0093564Y0189389D01*
X0093713Y0189545D01*
X0093866Y0189697D01*
X0094022Y0189844D01*
X0094182Y0189989D01*
X0094345Y0190129D01*
X0094512Y0190265D01*
X0094682Y0190397D01*
X0094855Y0190525D01*
X0095031Y0190649D01*
X0095210Y0190769D01*
X0095392Y0190884D01*
X0095577Y0190995D01*
X0095764Y0191101D01*
X0095954Y0191203D01*
X0096146Y0191300D01*
X0096340Y0191392D01*
X0096537Y0191480D01*
X0096736Y0191563D01*
X0096936Y0191641D01*
X0097139Y0191714D01*
X0097343Y0191782D01*
X0097549Y0191846D01*
X0097756Y0191904D01*
X0097965Y0191957D01*
X0098174Y0192006D01*
X0098385Y0192049D01*
X0098597Y0192087D01*
X0098810Y0192120D01*
X0099023Y0192148D01*
X0099237Y0192170D01*
X0099452Y0192188D01*
X0099667Y0192200D01*
X0096994Y0185730D02*
X0095980Y0185730D01*
X0095369Y0184132D02*
X0098303Y0184132D01*
X0104478Y0184382D02*
X0109667Y0192200D01*
X0112339Y0185730D02*
X0136067Y0185730D01*
X0136067Y0184132D02*
X0110519Y0184132D01*
X0110090Y0182533D02*
X0131902Y0182533D01*
X0134174Y0182533D02*
X0136067Y0182533D01*
X0136067Y0187329D02*
X0114695Y0187329D01*
X0115888Y0188927D02*
X0136067Y0188927D01*
X0136067Y0190526D02*
X0135648Y0190526D01*
X0131069Y0190526D02*
X0116550Y0190526D01*
X0116667Y0192124D02*
X0128645Y0192124D01*
X0127900Y0193723D02*
X0116613Y0193723D01*
X0115950Y0195321D02*
X0127154Y0195321D01*
X0127429Y0196920D02*
X0114846Y0196920D01*
X0112705Y0198518D02*
X0128011Y0198518D01*
X0128593Y0200117D02*
X0106022Y0200117D01*
X0104717Y0200117D02*
X0092619Y0200117D01*
X0092604Y0198518D02*
X0096629Y0198518D01*
X0094487Y0196920D02*
X0092963Y0196920D01*
X0092928Y0195321D02*
X0093383Y0195321D01*
X0088867Y0196200D02*
X0086667Y0152300D01*
X0082795Y0156957D02*
X0074148Y0156957D01*
X0073464Y0156412D02*
X0073464Y0156412D01*
X0071277Y0155359D02*
X0077351Y0155359D01*
X0075753Y0153760D02*
X0067653Y0153760D01*
X0068232Y0153892D02*
X0068232Y0153892D01*
X0068356Y0150563D02*
X0051177Y0150563D01*
X0052537Y0148965D02*
X0066996Y0148965D01*
X0066467Y0148965D02*
X0053464Y0148965D01*
X0053467Y0149300D02*
X0066467Y0149800D01*
X0066467Y0015700D01*
X0052867Y0015700D01*
X0053467Y0149600D01*
X0053467Y0149300D01*
X0053457Y0147366D02*
X0066467Y0147366D01*
X0066334Y0147366D02*
X0053199Y0147366D01*
X0053267Y0145768D02*
X0066267Y0145768D01*
X0066467Y0145768D02*
X0053449Y0145768D01*
X0053442Y0144169D02*
X0066467Y0144169D01*
X0066551Y0144169D02*
X0052982Y0144169D01*
X0053435Y0142570D02*
X0066467Y0142570D01*
X0067282Y0142570D02*
X0052251Y0142570D01*
X0053428Y0140972D02*
X0066467Y0140972D01*
X0066467Y0139373D02*
X0053421Y0139373D01*
X0052367Y0139373D02*
X0067166Y0139373D01*
X0066503Y0137775D02*
X0053030Y0137775D01*
X0053414Y0137775D02*
X0066467Y0137775D01*
X0066467Y0136176D02*
X0053406Y0136176D01*
X0053267Y0136176D02*
X0066267Y0136176D01*
X0066382Y0134578D02*
X0053151Y0134578D01*
X0053399Y0134578D02*
X0066467Y0134578D01*
X0066467Y0132979D02*
X0053392Y0132979D01*
X0052489Y0132979D02*
X0067044Y0132979D01*
X0066467Y0131381D02*
X0053385Y0131381D01*
X0053378Y0129782D02*
X0066467Y0129782D01*
X0067575Y0129782D02*
X0051958Y0129782D01*
X0051061Y0131381D02*
X0068472Y0131381D01*
X0066673Y0128184D02*
X0052861Y0128184D01*
X0053371Y0128184D02*
X0066467Y0128184D01*
X0066467Y0126585D02*
X0053364Y0126585D01*
X0053267Y0126585D02*
X0066267Y0126585D01*
X0066267Y0124987D02*
X0053267Y0124987D01*
X0053356Y0124987D02*
X0066467Y0124987D01*
X0066467Y0123388D02*
X0053349Y0123388D01*
X0052659Y0123388D02*
X0066875Y0123388D01*
X0066467Y0121790D02*
X0053342Y0121790D01*
X0053335Y0120191D02*
X0066467Y0120191D01*
X0067984Y0120191D02*
X0051549Y0120191D01*
X0051470Y0121790D02*
X0068063Y0121790D01*
X0066842Y0118593D02*
X0052691Y0118593D01*
X0053328Y0118593D02*
X0066467Y0118593D01*
X0066467Y0116994D02*
X0053321Y0116994D01*
X0053267Y0116994D02*
X0066267Y0116994D01*
X0066267Y0115396D02*
X0053267Y0115396D01*
X0053313Y0115396D02*
X0066467Y0115396D01*
X0066467Y0113797D02*
X0053306Y0113797D01*
X0052828Y0113797D02*
X0066705Y0113797D01*
X0066467Y0112199D02*
X0053299Y0112199D01*
X0051879Y0112199D02*
X0067654Y0112199D01*
X0068393Y0110600D02*
X0051140Y0110600D01*
X0052522Y0109002D02*
X0067011Y0109002D01*
X0066467Y0109002D02*
X0053285Y0109002D01*
X0053292Y0110600D02*
X0066467Y0110600D01*
X0066467Y0107403D02*
X0053278Y0107403D01*
X0053184Y0107403D02*
X0066349Y0107403D01*
X0066267Y0105805D02*
X0053267Y0105805D01*
X0053270Y0105805D02*
X0066467Y0105805D01*
X0066467Y0104206D02*
X0053263Y0104206D01*
X0052997Y0104206D02*
X0066536Y0104206D01*
X0066467Y0102608D02*
X0053256Y0102608D01*
X0052288Y0102608D02*
X0067245Y0102608D01*
X0066467Y0101009D02*
X0053249Y0101009D01*
X0053242Y0099411D02*
X0066467Y0099411D01*
X0067203Y0099411D02*
X0052330Y0099411D01*
X0053015Y0097812D02*
X0066519Y0097812D01*
X0066467Y0097812D02*
X0053235Y0097812D01*
X0053227Y0096214D02*
X0066467Y0096214D01*
X0066267Y0096214D02*
X0053267Y0096214D01*
X0053220Y0094615D02*
X0066467Y0094615D01*
X0066367Y0094615D02*
X0053167Y0094615D01*
X0053213Y0093017D02*
X0066467Y0093017D01*
X0067029Y0093017D02*
X0052505Y0093017D01*
X0053206Y0091418D02*
X0066467Y0091418D01*
X0066467Y0089820D02*
X0053199Y0089820D01*
X0051921Y0089820D02*
X0069912Y0089820D01*
X0068435Y0091418D02*
X0051099Y0091418D01*
X0052845Y0088221D02*
X0068345Y0088221D01*
X0067806Y0086623D02*
X0053267Y0086623D01*
X0053184Y0086623D02*
X0066467Y0086623D01*
X0066467Y0088221D02*
X0053192Y0088221D01*
X0051508Y0081827D02*
X0070745Y0081827D01*
X0066690Y0073834D02*
X0051186Y0073834D01*
X0053127Y0073834D02*
X0066467Y0073834D01*
X0066467Y0072236D02*
X0053120Y0072236D01*
X0053113Y0070637D02*
X0066467Y0070637D01*
X0066467Y0069039D02*
X0053106Y0069039D01*
X0052506Y0069039D02*
X0067027Y0069039D01*
X0066467Y0067440D02*
X0053098Y0067440D01*
X0053169Y0067440D02*
X0066365Y0067440D01*
X0066267Y0065842D02*
X0053267Y0065842D01*
X0053091Y0065842D02*
X0066467Y0065842D01*
X0066467Y0064243D02*
X0053084Y0064243D01*
X0053013Y0064243D02*
X0066521Y0064243D01*
X0066467Y0062645D02*
X0053077Y0062645D01*
X0052325Y0062645D02*
X0067208Y0062645D01*
X0066467Y0061046D02*
X0053070Y0061046D01*
X0053063Y0059448D02*
X0066467Y0059448D01*
X0067241Y0059448D02*
X0052293Y0059448D01*
X0052999Y0057849D02*
X0066534Y0057849D01*
X0066467Y0057849D02*
X0053056Y0057849D01*
X0053048Y0056251D02*
X0066467Y0056251D01*
X0066267Y0056251D02*
X0053267Y0056251D01*
X0053182Y0054652D02*
X0066351Y0054652D01*
X0066467Y0054652D02*
X0053041Y0054652D01*
X0053034Y0053054D02*
X0066467Y0053054D01*
X0067013Y0053054D02*
X0052520Y0053054D01*
X0053027Y0051455D02*
X0066467Y0051455D01*
X0066467Y0049857D02*
X0053020Y0049857D01*
X0051884Y0049857D02*
X0067650Y0049857D01*
X0068397Y0051455D02*
X0051136Y0051455D01*
X0052830Y0048258D02*
X0066704Y0048258D01*
X0066467Y0048258D02*
X0053013Y0048258D01*
X0053005Y0046660D02*
X0066467Y0046660D01*
X0066267Y0046660D02*
X0053267Y0046660D01*
X0053267Y0045061D02*
X0066267Y0045061D01*
X0066467Y0045061D02*
X0052998Y0045061D01*
X0052991Y0043463D02*
X0066467Y0043463D01*
X0066844Y0043463D02*
X0052689Y0043463D01*
X0052984Y0041864D02*
X0066467Y0041864D01*
X0067989Y0041864D02*
X0051545Y0041864D01*
X0051475Y0040266D02*
X0068059Y0040266D01*
X0066467Y0040266D02*
X0052977Y0040266D01*
X0052970Y0038667D02*
X0066467Y0038667D01*
X0066873Y0038667D02*
X0052660Y0038667D01*
X0052962Y0037069D02*
X0066467Y0037069D01*
X0066267Y0037069D02*
X0053267Y0037069D01*
X0053267Y0035470D02*
X0066267Y0035470D01*
X0066467Y0035470D02*
X0052955Y0035470D01*
X0052948Y0033872D02*
X0066467Y0033872D01*
X0066675Y0033872D02*
X0052859Y0033872D01*
X0052941Y0032273D02*
X0066467Y0032273D01*
X0067580Y0032273D02*
X0051954Y0032273D01*
X0051066Y0030675D02*
X0068468Y0030675D01*
X0066467Y0030675D02*
X0052934Y0030675D01*
X0052927Y0029076D02*
X0066467Y0029076D01*
X0067042Y0029076D02*
X0052491Y0029076D01*
X0052919Y0027478D02*
X0066467Y0027478D01*
X0066380Y0027478D02*
X0053153Y0027478D01*
X0053267Y0025879D02*
X0066267Y0025879D01*
X0066467Y0025879D02*
X0052912Y0025879D01*
X0052905Y0024281D02*
X0066467Y0024281D01*
X0066505Y0024281D02*
X0053028Y0024281D01*
X0052898Y0022682D02*
X0066467Y0022682D01*
X0067171Y0022682D02*
X0052363Y0022682D01*
X0052891Y0021084D02*
X0066467Y0021084D01*
X0066467Y0019485D02*
X0052884Y0019485D01*
X0052255Y0019485D02*
X0067278Y0019485D01*
X0066550Y0017887D02*
X0052984Y0017887D01*
X0052876Y0017887D02*
X0066467Y0017887D01*
X0066467Y0016288D02*
X0052869Y0016288D01*
X0053267Y0016288D02*
X0066267Y0016288D01*
X0068769Y0021084D02*
X0050764Y0021084D01*
X0044767Y0016030D02*
X0044778Y0015893D01*
X0044794Y0015757D01*
X0044813Y0015621D01*
X0044836Y0015486D01*
X0044863Y0015351D01*
X0044894Y0015217D01*
X0044929Y0015085D01*
X0044967Y0014953D01*
X0045009Y0014822D01*
X0045054Y0014693D01*
X0045103Y0014564D01*
X0045156Y0014438D01*
X0045212Y0014313D01*
X0045272Y0014189D01*
X0045335Y0014067D01*
X0045402Y0013947D01*
X0045472Y0013829D01*
X0045545Y0013713D01*
X0045621Y0013599D01*
X0045701Y0013487D01*
X0045784Y0013378D01*
X0045869Y0013270D01*
X0045958Y0013166D01*
X0046050Y0013063D01*
X0046144Y0012964D01*
X0046241Y0012867D01*
X0046341Y0012773D01*
X0046444Y0012681D01*
X0046548Y0012593D01*
X0046656Y0012508D01*
X0046766Y0012425D01*
X0046878Y0012346D01*
X0046992Y0012270D01*
X0047108Y0012197D01*
X0047227Y0012128D01*
X0047347Y0012061D01*
X0047469Y0011999D01*
X0047593Y0011939D01*
X0047718Y0011883D01*
X0047845Y0011831D01*
X0047973Y0011782D01*
X0048103Y0011737D01*
X0048234Y0011696D01*
X0048365Y0011658D01*
X0048498Y0011624D01*
X0048632Y0011593D01*
X0048767Y0011567D01*
X0048902Y0011544D01*
X0049038Y0011525D01*
X0049175Y0011510D01*
X0049311Y0011499D01*
X0049448Y0011491D01*
X0049586Y0011487D01*
X0049723Y0011488D01*
X0049860Y0011492D01*
X0049997Y0011500D01*
X0081967Y0011400D01*
X0078597Y0016030D02*
X0074767Y0016030D01*
X0081967Y0011400D02*
X0082181Y0011402D01*
X0082395Y0011408D01*
X0082608Y0011420D01*
X0082821Y0011437D01*
X0083034Y0011459D01*
X0083246Y0011486D01*
X0083458Y0011518D01*
X0083668Y0011555D01*
X0083878Y0011598D01*
X0084086Y0011645D01*
X0084294Y0011698D01*
X0084500Y0011755D01*
X0084704Y0011818D01*
X0084907Y0011885D01*
X0085108Y0011958D01*
X0085308Y0012035D01*
X0085505Y0012117D01*
X0085701Y0012203D01*
X0085894Y0012295D01*
X0086085Y0012391D01*
X0086274Y0012491D01*
X0086460Y0012596D01*
X0086644Y0012706D01*
X0086825Y0012820D01*
X0087003Y0012938D01*
X0087178Y0013061D01*
X0087351Y0013188D01*
X0087520Y0013319D01*
X0087686Y0013454D01*
X0087848Y0013593D01*
X0088007Y0013735D01*
X0088163Y0013882D01*
X0088315Y0014032D01*
X0088463Y0014186D01*
X0088608Y0014344D01*
X0088749Y0014505D01*
X0088886Y0014669D01*
X0089019Y0014837D01*
X0089147Y0015008D01*
X0089272Y0015182D01*
X0089392Y0015358D01*
X0089508Y0015538D01*
X0089620Y0015720D01*
X0089727Y0015905D01*
X0089830Y0016093D01*
X0089928Y0016283D01*
X0090022Y0016475D01*
X0090111Y0016670D01*
X0090195Y0016866D01*
X0090274Y0017065D01*
X0090349Y0017265D01*
X0090418Y0017468D01*
X0090483Y0017672D01*
X0090543Y0017877D01*
X0090598Y0018084D01*
X0090648Y0018292D01*
X0090692Y0018501D01*
X0090732Y0018711D01*
X0090767Y0018922D01*
X0090796Y0019134D01*
X0090821Y0019346D01*
X0090840Y0019559D01*
X0090854Y0019772D01*
X0090863Y0019986D01*
X0090867Y0020200D01*
X0099667Y0014400D02*
X0099658Y0014247D01*
X0099646Y0014094D01*
X0099630Y0013942D01*
X0099610Y0013790D01*
X0099585Y0013638D01*
X0099557Y0013487D01*
X0099526Y0013337D01*
X0099490Y0013188D01*
X0099450Y0013040D01*
X0099407Y0012893D01*
X0099360Y0012747D01*
X0099309Y0012602D01*
X0099254Y0012459D01*
X0099196Y0012317D01*
X0099134Y0012177D01*
X0099069Y0012038D01*
X0099000Y0011901D01*
X0098927Y0011766D01*
X0098851Y0011633D01*
X0098772Y0011502D01*
X0098689Y0011373D01*
X0098603Y0011246D01*
X0098514Y0011121D01*
X0098421Y0010999D01*
X0098326Y0010879D01*
X0098227Y0010762D01*
X0098126Y0010647D01*
X0098021Y0010534D01*
X0097914Y0010425D01*
X0097803Y0010318D01*
X0097691Y0010215D01*
X0097575Y0010114D01*
X0097457Y0010016D01*
X0097336Y0009921D01*
X0097213Y0009830D01*
X0097088Y0009741D01*
X0096961Y0009656D01*
X0096831Y0009574D01*
X0096699Y0009496D01*
X0096566Y0009420D01*
X0096430Y0009349D01*
X0096293Y0009281D01*
X0096153Y0009216D01*
X0096013Y0009155D01*
X0095871Y0009098D01*
X0095727Y0009044D01*
X0095582Y0008995D01*
X0095436Y0008948D01*
X0095288Y0008906D01*
X0095140Y0008867D01*
X0094990Y0008833D01*
X0094840Y0008802D01*
X0094689Y0008775D01*
X0094538Y0008752D01*
X0094386Y0008733D01*
X0094233Y0008717D01*
X0094080Y0008706D01*
X0093927Y0008699D01*
X0093774Y0008695D01*
X0093620Y0008696D01*
X0093467Y0008700D01*
X0045467Y0009000D01*
X0045281Y0008993D01*
X0045095Y0008990D01*
X0044908Y0008992D01*
X0044722Y0008998D01*
X0044536Y0009008D01*
X0044350Y0009023D01*
X0044165Y0009043D01*
X0043980Y0009067D01*
X0043796Y0009095D01*
X0043613Y0009128D01*
X0043430Y0009166D01*
X0043249Y0009208D01*
X0043068Y0009254D01*
X0042889Y0009304D01*
X0042711Y0009359D01*
X0042534Y0009418D01*
X0042359Y0009481D01*
X0042185Y0009549D01*
X0042013Y0009621D01*
X0041843Y0009696D01*
X0041675Y0009776D01*
X0041508Y0009860D01*
X0041344Y0009948D01*
X0041182Y0010040D01*
X0041022Y0010136D01*
X0040865Y0010236D01*
X0040710Y0010339D01*
X0040557Y0010446D01*
X0040408Y0010557D01*
X0040261Y0010672D01*
X0040116Y0010789D01*
X0039975Y0010911D01*
X0039837Y0011036D01*
X0039701Y0011164D01*
X0039569Y0011295D01*
X0039440Y0011429D01*
X0039314Y0011567D01*
X0039192Y0011707D01*
X0039073Y0011851D01*
X0038958Y0011997D01*
X0038846Y0012146D01*
X0038737Y0012298D01*
X0038633Y0012452D01*
X0038532Y0012609D01*
X0038435Y0012768D01*
X0038342Y0012929D01*
X0038253Y0013093D01*
X0038168Y0013258D01*
X0038087Y0013426D01*
X0038010Y0013596D01*
X0037937Y0013767D01*
X0037868Y0013940D01*
X0037803Y0014115D01*
X0037743Y0014291D01*
X0037687Y0014469D01*
X0037635Y0014648D01*
X0037588Y0014828D01*
X0037545Y0015009D01*
X0037506Y0015192D01*
X0037472Y0015375D01*
X0037442Y0015559D01*
X0037417Y0015743D01*
X0037396Y0015928D01*
X0037379Y0016114D01*
X0037367Y0016300D01*
X0037367Y0018630D01*
X0037369Y0018809D01*
X0037376Y0018988D01*
X0037386Y0019166D01*
X0037402Y0019344D01*
X0037421Y0019522D01*
X0037445Y0019699D01*
X0037473Y0019876D01*
X0037505Y0020052D01*
X0037541Y0020227D01*
X0037582Y0020401D01*
X0037627Y0020574D01*
X0037676Y0020746D01*
X0037729Y0020917D01*
X0037786Y0021086D01*
X0037848Y0021254D01*
X0037913Y0021421D01*
X0037983Y0021585D01*
X0038056Y0021748D01*
X0038133Y0021910D01*
X0038215Y0022069D01*
X0038300Y0022226D01*
X0038388Y0022382D01*
X0038481Y0022535D01*
X0038577Y0022685D01*
X0038677Y0022834D01*
X0038780Y0022980D01*
X0038887Y0023123D01*
X0038997Y0023264D01*
X0039111Y0023402D01*
X0039228Y0023537D01*
X0039348Y0023670D01*
X0039472Y0023799D01*
X0039598Y0023925D01*
X0039727Y0024049D01*
X0039860Y0024169D01*
X0039995Y0024286D01*
X0040133Y0024400D01*
X0040274Y0024510D01*
X0040417Y0024617D01*
X0040563Y0024720D01*
X0040712Y0024820D01*
X0040862Y0024916D01*
X0041015Y0025009D01*
X0041171Y0025097D01*
X0041328Y0025182D01*
X0041487Y0025264D01*
X0041649Y0025341D01*
X0041812Y0025414D01*
X0041976Y0025484D01*
X0042143Y0025549D01*
X0042311Y0025611D01*
X0042480Y0025668D01*
X0042651Y0025721D01*
X0042823Y0025770D01*
X0042996Y0025815D01*
X0043170Y0025856D01*
X0043345Y0025892D01*
X0043521Y0025924D01*
X0043698Y0025952D01*
X0043875Y0025976D01*
X0044053Y0025995D01*
X0044231Y0026011D01*
X0044409Y0026021D01*
X0044588Y0026028D01*
X0044767Y0026030D01*
X0074767Y0026030D02*
X0074984Y0026033D01*
X0075202Y0026041D01*
X0075419Y0026054D01*
X0075636Y0026072D01*
X0075852Y0026096D01*
X0076067Y0026124D01*
X0076282Y0026158D01*
X0076496Y0026198D01*
X0076709Y0026242D01*
X0076921Y0026292D01*
X0077131Y0026346D01*
X0077341Y0026406D01*
X0077548Y0026470D01*
X0077754Y0026540D01*
X0077958Y0026615D01*
X0078161Y0026694D01*
X0078361Y0026779D01*
X0078560Y0026868D01*
X0078756Y0026962D01*
X0078950Y0027061D01*
X0079141Y0027164D01*
X0079330Y0027272D01*
X0079516Y0027385D01*
X0079699Y0027502D01*
X0079880Y0027623D01*
X0080057Y0027749D01*
X0080231Y0027879D01*
X0080403Y0028013D01*
X0080571Y0028151D01*
X0080735Y0028293D01*
X0080896Y0028440D01*
X0081054Y0028590D01*
X0081207Y0028743D01*
X0081357Y0028901D01*
X0081504Y0029062D01*
X0081646Y0029226D01*
X0081784Y0029394D01*
X0081918Y0029566D01*
X0082048Y0029740D01*
X0082174Y0029917D01*
X0082295Y0030098D01*
X0082412Y0030281D01*
X0082525Y0030467D01*
X0082633Y0030656D01*
X0082736Y0030847D01*
X0082835Y0031041D01*
X0082929Y0031237D01*
X0083018Y0031436D01*
X0083103Y0031636D01*
X0083182Y0031839D01*
X0083257Y0032043D01*
X0083327Y0032249D01*
X0083391Y0032456D01*
X0083451Y0032666D01*
X0083505Y0032876D01*
X0083555Y0033088D01*
X0083599Y0033301D01*
X0083639Y0033515D01*
X0083673Y0033730D01*
X0083701Y0033945D01*
X0083725Y0034161D01*
X0083743Y0034378D01*
X0083756Y0034595D01*
X0083764Y0034813D01*
X0083767Y0035030D01*
X0087267Y0024700D02*
X0087264Y0024491D01*
X0087257Y0024281D01*
X0087244Y0024072D01*
X0087227Y0023863D01*
X0087204Y0023655D01*
X0087176Y0023447D01*
X0087143Y0023240D01*
X0087105Y0023034D01*
X0087063Y0022829D01*
X0087015Y0022625D01*
X0086962Y0022422D01*
X0086905Y0022221D01*
X0086843Y0022021D01*
X0086776Y0021822D01*
X0086704Y0021626D01*
X0086627Y0021431D01*
X0086546Y0021238D01*
X0086460Y0021046D01*
X0086369Y0020858D01*
X0086274Y0020671D01*
X0086174Y0020487D01*
X0086070Y0020305D01*
X0085962Y0020125D01*
X0085849Y0019949D01*
X0085732Y0019775D01*
X0085611Y0019604D01*
X0085486Y0019436D01*
X0085357Y0019271D01*
X0085224Y0019109D01*
X0085087Y0018951D01*
X0084946Y0018796D01*
X0084801Y0018644D01*
X0084653Y0018496D01*
X0084501Y0018351D01*
X0084346Y0018210D01*
X0084188Y0018073D01*
X0084026Y0017940D01*
X0083861Y0017811D01*
X0083693Y0017686D01*
X0083522Y0017565D01*
X0083348Y0017448D01*
X0083172Y0017335D01*
X0082992Y0017227D01*
X0082810Y0017123D01*
X0082626Y0017023D01*
X0082439Y0016928D01*
X0082251Y0016837D01*
X0082059Y0016751D01*
X0081866Y0016670D01*
X0081671Y0016593D01*
X0081475Y0016521D01*
X0081276Y0016454D01*
X0081076Y0016392D01*
X0080875Y0016335D01*
X0080672Y0016282D01*
X0080468Y0016234D01*
X0080263Y0016192D01*
X0080057Y0016154D01*
X0079850Y0016121D01*
X0079642Y0016093D01*
X0079434Y0016070D01*
X0079225Y0016053D01*
X0079016Y0016040D01*
X0078806Y0016033D01*
X0078597Y0016030D01*
X0099667Y0016200D02*
X0099667Y0014400D01*
X0103639Y0032273D02*
X0105694Y0032273D01*
X0113639Y0032273D02*
X0136067Y0032273D01*
X0136067Y0033872D02*
X0115238Y0033872D01*
X0116113Y0035470D02*
X0136067Y0035470D01*
X0136067Y0037069D02*
X0116667Y0037069D01*
X0116667Y0038667D02*
X0129946Y0038667D01*
X0128604Y0040266D02*
X0116388Y0040266D01*
X0115726Y0041864D02*
X0127488Y0041864D01*
X0127628Y0043463D02*
X0114303Y0043463D01*
X0113006Y0045061D02*
X0127768Y0045061D01*
X0128094Y0046660D02*
X0113434Y0046660D01*
X0112743Y0048258D02*
X0129999Y0048258D01*
X0136067Y0049857D02*
X0111820Y0049857D01*
X0109986Y0051455D02*
X0136067Y0051455D01*
X0107176Y0046100D02*
X0109667Y0038200D01*
X0068806Y0061046D02*
X0050727Y0061046D01*
X0051103Y0070637D02*
X0068430Y0070637D01*
X0067617Y0072236D02*
X0049612Y0072236D01*
X0044767Y0072236D02*
X0044767Y0072236D01*
X0044767Y0073834D02*
X0044767Y0073834D01*
X0044767Y0075433D02*
X0044767Y0075433D01*
X0044767Y0076030D02*
X0044767Y0076030D01*
X0037767Y0076030D01*
X0037870Y0077032D02*
X0034622Y0077032D01*
X0035649Y0075968D02*
X0035649Y0075968D01*
X0033078Y0078630D02*
X0038617Y0078630D01*
X0040755Y0080229D02*
X0030584Y0080229D01*
X0032535Y0079191D02*
X0032535Y0079191D01*
X0028578Y0081295D02*
X0028578Y0081295D01*
X0027653Y0081827D02*
X0038026Y0081827D01*
X0036859Y0083426D02*
X0026842Y0083426D01*
X0026842Y0085024D02*
X0036267Y0085024D01*
X0036267Y0086623D02*
X0026842Y0086623D01*
X0026842Y0088221D02*
X0036688Y0088221D01*
X0037612Y0089820D02*
X0026842Y0089820D01*
X0026842Y0091418D02*
X0038435Y0091418D01*
X0037029Y0093017D02*
X0028132Y0093017D01*
X0028794Y0094615D02*
X0036367Y0094615D01*
X0036267Y0096214D02*
X0029042Y0096214D01*
X0029042Y0097812D02*
X0036519Y0097812D01*
X0037203Y0099411D02*
X0028382Y0099411D01*
X0027261Y0101009D02*
X0038802Y0101009D01*
X0037245Y0102608D02*
X0026842Y0102608D01*
X0026842Y0104206D02*
X0036536Y0104206D01*
X0036267Y0105805D02*
X0026842Y0105805D01*
X0026842Y0107403D02*
X0036349Y0107403D01*
X0037011Y0109002D02*
X0026842Y0109002D01*
X0027475Y0110600D02*
X0038393Y0110600D01*
X0037654Y0112199D02*
X0028617Y0112199D01*
X0029279Y0113797D02*
X0036705Y0113797D01*
X0036267Y0115396D02*
X0029292Y0115396D01*
X0029059Y0116994D02*
X0036267Y0116994D01*
X0036842Y0118593D02*
X0029010Y0118593D01*
X0029029Y0119667D02*
X0029029Y0119667D01*
X0028822Y0120191D02*
X0037984Y0120191D01*
X0038063Y0121790D02*
X0028716Y0121790D01*
X0028678Y0123388D02*
X0036875Y0123388D01*
X0036267Y0124987D02*
X0028641Y0124987D01*
X0028604Y0126585D02*
X0036267Y0126585D01*
X0036673Y0128184D02*
X0028567Y0128184D01*
X0028529Y0129782D02*
X0037575Y0129782D01*
X0038472Y0131381D02*
X0028492Y0131381D01*
X0028455Y0132979D02*
X0037044Y0132979D01*
X0036382Y0134578D02*
X0028418Y0134578D01*
X0028380Y0136176D02*
X0036267Y0136176D01*
X0036503Y0137775D02*
X0028343Y0137775D01*
X0028306Y0139373D02*
X0037166Y0139373D01*
X0038765Y0140972D02*
X0028269Y0140972D01*
X0028231Y0142570D02*
X0037282Y0142570D01*
X0036551Y0144169D02*
X0028194Y0144169D01*
X0028445Y0145768D02*
X0036267Y0145768D01*
X0035467Y0156700D02*
X0035192Y0156697D01*
X0034916Y0156687D01*
X0034641Y0156670D01*
X0034367Y0156647D01*
X0034093Y0156617D01*
X0033820Y0156580D01*
X0033548Y0156537D01*
X0033277Y0156488D01*
X0033007Y0156431D01*
X0032739Y0156369D01*
X0032472Y0156300D01*
X0032207Y0156224D01*
X0031944Y0156142D01*
X0031683Y0156054D01*
X0031425Y0155959D01*
X0031168Y0155858D01*
X0030914Y0155751D01*
X0030663Y0155638D01*
X0030415Y0155519D01*
X0030169Y0155394D01*
X0029927Y0155263D01*
X0029688Y0155126D01*
X0029452Y0154984D01*
X0029220Y0154836D01*
X0028991Y0154682D01*
X0028766Y0154523D01*
X0028545Y0154358D01*
X0028328Y0154188D01*
X0028116Y0154013D01*
X0027907Y0153833D01*
X0027703Y0153648D01*
X0027504Y0153458D01*
X0027309Y0153263D01*
X0027119Y0153064D01*
X0026934Y0152860D01*
X0026754Y0152651D01*
X0026579Y0152439D01*
X0026409Y0152222D01*
X0026244Y0152001D01*
X0026085Y0151776D01*
X0025931Y0151547D01*
X0025783Y0151315D01*
X0025641Y0151079D01*
X0025504Y0150840D01*
X0025373Y0150598D01*
X0025248Y0150352D01*
X0025129Y0150104D01*
X0025016Y0149853D01*
X0024909Y0149599D01*
X0024808Y0149342D01*
X0024713Y0149084D01*
X0024625Y0148823D01*
X0024543Y0148560D01*
X0024467Y0148295D01*
X0024398Y0148028D01*
X0024336Y0147760D01*
X0024279Y0147490D01*
X0024230Y0147219D01*
X0024187Y0146947D01*
X0024150Y0146674D01*
X0024120Y0146400D01*
X0024097Y0146126D01*
X0024080Y0145851D01*
X0024070Y0145575D01*
X0024067Y0145300D01*
X0024667Y0119555D01*
X0024707Y0119448D01*
X0024743Y0119340D01*
X0024776Y0119231D01*
X0024805Y0119121D01*
X0024830Y0119009D01*
X0024852Y0118898D01*
X0024870Y0118785D01*
X0024884Y0118672D01*
X0024895Y0118558D01*
X0024901Y0118444D01*
X0024904Y0118330D01*
X0024903Y0118216D01*
X0024898Y0118102D01*
X0024889Y0117989D01*
X0024877Y0117875D01*
X0024861Y0117763D01*
X0024841Y0117650D01*
X0024817Y0117539D01*
X0024789Y0117428D01*
X0024758Y0117318D01*
X0024723Y0117210D01*
X0024685Y0117102D01*
X0024643Y0116996D01*
X0024598Y0116892D01*
X0024549Y0116789D01*
X0024496Y0116688D01*
X0024441Y0116588D01*
X0024382Y0116490D01*
X0024319Y0116395D01*
X0024254Y0116302D01*
X0024185Y0116210D01*
X0024114Y0116122D01*
X0024039Y0116035D01*
X0023962Y0115951D01*
X0023882Y0115870D01*
X0023799Y0115792D01*
X0023714Y0115716D01*
X0023626Y0115643D01*
X0023536Y0115573D01*
X0023444Y0115506D01*
X0023349Y0115443D01*
X0023253Y0115382D01*
X0023154Y0115325D01*
X0023053Y0115271D01*
X0022951Y0115221D01*
X0022847Y0115174D01*
X0022742Y0115130D01*
X0022742Y0077925D01*
X0022740Y0077898D01*
X0022735Y0077871D01*
X0022727Y0077845D01*
X0022716Y0077820D01*
X0022702Y0077797D01*
X0022685Y0077776D01*
X0022666Y0077757D01*
X0022645Y0077740D01*
X0022622Y0077726D01*
X0022597Y0077715D01*
X0022571Y0077707D01*
X0022544Y0077702D01*
X0022517Y0077700D01*
X0009605Y0081827D02*
X0008567Y0081827D01*
X0008567Y0093017D02*
X0008848Y0093017D01*
X0014795Y0101009D02*
X0017723Y0101009D01*
X0016866Y0112199D02*
X0016854Y0112199D01*
X0009063Y0118593D02*
X0008567Y0118593D01*
X0024067Y0145300D02*
X0024106Y0145416D01*
X0024141Y0145534D01*
X0024173Y0145652D01*
X0024201Y0145771D01*
X0024225Y0145892D01*
X0024246Y0146013D01*
X0024262Y0146134D01*
X0024275Y0146256D01*
X0024284Y0146378D01*
X0024289Y0146501D01*
X0024290Y0146623D01*
X0024287Y0146746D01*
X0024281Y0146868D01*
X0024270Y0146991D01*
X0024256Y0147112D01*
X0024238Y0147234D01*
X0024216Y0147354D01*
X0024191Y0147474D01*
X0024161Y0147593D01*
X0024128Y0147711D01*
X0024092Y0147828D01*
X0024051Y0147944D01*
X0024007Y0148059D01*
X0023960Y0148172D01*
X0023909Y0148283D01*
X0023854Y0148393D01*
X0023796Y0148501D01*
X0023734Y0148607D01*
X0023670Y0148711D01*
X0023602Y0148813D01*
X0023531Y0148913D01*
X0023457Y0149011D01*
X0023379Y0149106D01*
X0023299Y0149199D01*
X0023216Y0149289D01*
X0023130Y0149376D01*
X0023042Y0149461D01*
X0022950Y0149543D01*
X0022857Y0149622D01*
X0022761Y0149698D01*
X0022662Y0149771D01*
X0022561Y0149841D01*
X0022459Y0149908D01*
X0022354Y0149971D01*
X0022247Y0150031D01*
X0022138Y0150088D01*
X0022028Y0150141D01*
X0021916Y0150191D01*
X0021802Y0150237D01*
X0021687Y0150280D01*
X0018267Y0150180D01*
X0028527Y0147366D02*
X0036334Y0147366D01*
X0036996Y0148965D02*
X0029225Y0148965D01*
X0030494Y0150563D02*
X0038356Y0150563D01*
X0033111Y0152162D02*
X0075437Y0152162D01*
X0080797Y0145530D02*
X0080954Y0145543D01*
X0081111Y0145560D01*
X0081268Y0145581D01*
X0081424Y0145606D01*
X0081579Y0145635D01*
X0081734Y0145668D01*
X0081888Y0145704D01*
X0082040Y0145744D01*
X0082192Y0145789D01*
X0082343Y0145836D01*
X0082492Y0145888D01*
X0082640Y0145943D01*
X0082786Y0146002D01*
X0082931Y0146065D01*
X0083075Y0146131D01*
X0083217Y0146201D01*
X0083357Y0146274D01*
X0083495Y0146351D01*
X0083631Y0146431D01*
X0083765Y0146515D01*
X0083897Y0146602D01*
X0084026Y0146692D01*
X0084154Y0146785D01*
X0084279Y0146882D01*
X0084402Y0146981D01*
X0084522Y0147084D01*
X0084639Y0147189D01*
X0084754Y0147298D01*
X0084866Y0147409D01*
X0084976Y0147523D01*
X0085082Y0147640D01*
X0085185Y0147759D01*
X0085286Y0147881D01*
X0085383Y0148006D01*
X0085478Y0148132D01*
X0085569Y0148261D01*
X0085657Y0148393D01*
X0085741Y0148526D01*
X0085822Y0148662D01*
X0085900Y0148799D01*
X0085974Y0148939D01*
X0086045Y0149080D01*
X0086113Y0149223D01*
X0086176Y0149367D01*
X0086236Y0149513D01*
X0086293Y0149661D01*
X0086346Y0149810D01*
X0086395Y0149960D01*
X0086440Y0150111D01*
X0086481Y0150264D01*
X0086519Y0150417D01*
X0086553Y0150571D01*
X0086583Y0150727D01*
X0086609Y0150882D01*
X0086631Y0151039D01*
X0086649Y0151196D01*
X0086663Y0151353D01*
X0086674Y0151511D01*
X0086680Y0151668D01*
X0086683Y0151826D01*
X0086682Y0151984D01*
X0086676Y0152142D01*
X0086667Y0152300D01*
X0082875Y0158556D02*
X0076152Y0158556D01*
X0078004Y0160033D02*
X0078004Y0160033D01*
X0078004Y0160033D01*
X0078101Y0160154D02*
X0082955Y0160154D01*
X0083035Y0161753D02*
X0079376Y0161753D01*
X0080651Y0163351D02*
X0083115Y0163351D01*
X0083195Y0164950D02*
X0081806Y0164950D01*
X0082576Y0166548D02*
X0083276Y0166548D01*
X0083346Y0168147D02*
X0083356Y0168147D01*
X0075662Y0171344D02*
X0055318Y0171344D01*
X0056596Y0169745D02*
X0074892Y0169745D01*
X0073845Y0168147D02*
X0057258Y0168147D01*
X0057591Y0166548D02*
X0072571Y0166548D01*
X0070841Y0164950D02*
X0057591Y0164950D01*
X0057260Y0163351D02*
X0068720Y0163351D01*
X0065324Y0161753D02*
X0056598Y0161753D01*
X0059667Y0156700D02*
X0035467Y0156700D01*
X0041875Y0168147D02*
X0008567Y0168147D01*
X0008567Y0169745D02*
X0042537Y0169745D01*
X0043816Y0171344D02*
X0008567Y0171344D01*
X0008567Y0172942D02*
X0016012Y0172942D01*
X0016251Y0172843D02*
X0014965Y0173376D01*
X0013980Y0174361D01*
X0013980Y0174361D01*
X0013430Y0174911D01*
X0013430Y0174911D01*
X0012446Y0175895D01*
X0012220Y0176439D01*
X0011913Y0177182D01*
X0011913Y0178574D01*
X0012446Y0179861D01*
X0013493Y0180908D01*
X0013447Y0181018D01*
X0013447Y0183026D01*
X0012663Y0183351D01*
X0011678Y0184336D01*
X0011145Y0185622D01*
X0011145Y0187015D01*
X0011678Y0188301D01*
X0012663Y0189286D01*
X0012680Y0189293D01*
X0012680Y0190084D01*
X0013213Y0191370D01*
X0013980Y0192138D01*
X0014660Y0192817D01*
X0013430Y0193327D01*
X0012446Y0194311D01*
X0011913Y0195597D01*
X0011913Y0199292D01*
X0012260Y0200130D01*
X0012190Y0200300D01*
X0011913Y0200969D01*
X0011913Y0203896D01*
X0012101Y0204351D01*
X0011913Y0204805D01*
X0011913Y0206198D01*
X0012260Y0207036D01*
X0011913Y0207875D01*
X0011913Y0209267D01*
X0012446Y0210553D01*
X0013430Y0211538D01*
X0013447Y0211545D01*
X0013447Y0213104D01*
X0013636Y0213558D01*
X0013447Y0214013D01*
X0013447Y0215406D01*
X0013477Y0215477D01*
X0013447Y0215548D01*
X0013447Y0217708D01*
X0013636Y0218162D01*
X0013447Y0218617D01*
X0013447Y0221544D01*
X0013980Y0222830D01*
X0014748Y0223598D01*
X0015732Y0224582D01*
X0017019Y0225115D01*
X0020713Y0225115D01*
X0021999Y0224582D01*
X0022984Y0223598D01*
X0023517Y0222311D01*
X0023517Y0218617D01*
X0022984Y0217331D01*
X0022664Y0217011D01*
X0022984Y0216692D01*
X0023517Y0215406D01*
X0023517Y0214013D01*
X0023328Y0213558D01*
X0023517Y0213104D01*
X0023517Y0210177D01*
X0023010Y0208954D01*
X0023517Y0207732D01*
X0023517Y0206340D01*
X0023200Y0205576D01*
X0023010Y0205118D01*
X0023082Y0204946D01*
X0023517Y0203896D01*
X0023517Y0200969D01*
X0022984Y0199682D01*
X0022281Y0198979D01*
X0022984Y0198276D01*
X0023517Y0196990D01*
X0023517Y0195597D01*
X0022984Y0194311D01*
X0021999Y0193327D01*
X0021753Y0193224D01*
X0021999Y0193122D01*
X0022984Y0192138D01*
X0023517Y0190851D01*
X0023517Y0189459D01*
X0023169Y0188620D01*
X0023517Y0187782D01*
X0023517Y0186234D01*
X0023751Y0185999D01*
X0024518Y0185232D01*
X0025051Y0183945D01*
X0025051Y0181786D01*
X0024518Y0180499D01*
X0023534Y0179515D01*
X0023517Y0179508D01*
X0023517Y0178716D01*
X0023169Y0177878D01*
X0023517Y0177040D01*
X0023517Y0175647D01*
X0022984Y0174361D01*
X0021999Y0173376D01*
X0020713Y0172843D01*
X0016251Y0172843D01*
X0013800Y0174541D02*
X0008567Y0174541D01*
X0008567Y0176139D02*
X0012345Y0176139D01*
X0011913Y0177738D02*
X0008567Y0177738D01*
X0008567Y0179336D02*
X0012228Y0179336D01*
X0013482Y0180935D02*
X0008567Y0180935D01*
X0008567Y0182533D02*
X0013447Y0182533D01*
X0011882Y0184132D02*
X0008567Y0184132D01*
X0008567Y0185730D02*
X0011145Y0185730D01*
X0011276Y0187329D02*
X0008567Y0187329D01*
X0008567Y0188927D02*
X0012304Y0188927D01*
X0012863Y0190526D02*
X0008567Y0190526D01*
X0008567Y0192124D02*
X0013967Y0192124D01*
X0013034Y0193723D02*
X0008567Y0193723D01*
X0008567Y0195321D02*
X0012027Y0195321D01*
X0011913Y0196920D02*
X0008567Y0196920D01*
X0008567Y0198518D02*
X0011913Y0198518D01*
X0012255Y0200117D02*
X0008567Y0200117D01*
X0008567Y0201715D02*
X0011913Y0201715D01*
X0011913Y0203314D02*
X0008567Y0203314D01*
X0008567Y0204912D02*
X0011913Y0204912D01*
X0012042Y0206511D02*
X0008567Y0206511D01*
X0008567Y0208109D02*
X0011913Y0208109D01*
X0012095Y0209708D02*
X0008567Y0209708D01*
X0008567Y0211306D02*
X0013199Y0211306D01*
X0013447Y0212905D02*
X0008567Y0212905D01*
X0008567Y0214503D02*
X0013447Y0214503D01*
X0013447Y0216102D02*
X0008567Y0216102D01*
X0008567Y0217701D02*
X0013447Y0217701D01*
X0013447Y0219299D02*
X0008567Y0219299D01*
X0008567Y0220898D02*
X0013447Y0220898D01*
X0013842Y0222496D02*
X0008567Y0222496D01*
X0008567Y0224095D02*
X0015244Y0224095D01*
X0022487Y0224095D02*
X0079826Y0224095D01*
X0077666Y0225693D02*
X0008567Y0225693D01*
X0008567Y0227292D02*
X0075665Y0227292D01*
X0075991Y0226932D02*
X0075991Y0226932D01*
X0074213Y0228890D02*
X0008567Y0228890D01*
X0008567Y0230489D02*
X0072761Y0230489D01*
X0071309Y0232087D02*
X0008567Y0232087D01*
X0008567Y0233686D02*
X0070302Y0233686D01*
X0069342Y0235284D02*
X0008567Y0235284D01*
X0008567Y0236883D02*
X0068381Y0236883D01*
X0067445Y0238481D02*
X0008567Y0238481D01*
X0008567Y0240080D02*
X0046039Y0240080D01*
X0045893Y0240186D02*
X0046611Y0239664D01*
X0047402Y0239261D01*
X0048246Y0238987D01*
X0049087Y0238854D01*
X0049087Y0244007D01*
X0043934Y0244007D01*
X0044067Y0243166D01*
X0044341Y0242322D01*
X0044744Y0241531D01*
X0045266Y0240813D01*
X0045893Y0240186D01*
X0044669Y0241678D02*
X0008567Y0241678D01*
X0008567Y0243277D02*
X0044049Y0243277D01*
X0043934Y0244966D02*
X0049087Y0244966D01*
X0049087Y0244007D01*
X0050046Y0244007D01*
X0050046Y0238854D01*
X0050887Y0238987D01*
X0051731Y0239261D01*
X0052522Y0239664D01*
X0053240Y0240186D01*
X0053868Y0240813D01*
X0054389Y0241531D01*
X0054792Y0242322D01*
X0055066Y0243166D01*
X0055200Y0244007D01*
X0050046Y0244007D01*
X0050046Y0244966D01*
X0049087Y0244966D01*
X0049087Y0250120D01*
X0048246Y0249986D01*
X0047402Y0249712D01*
X0046611Y0249309D01*
X0045893Y0248787D01*
X0045266Y0248160D01*
X0044744Y0247442D01*
X0044341Y0246651D01*
X0044067Y0245807D01*
X0043934Y0244966D01*
X0044284Y0246474D02*
X0024737Y0246474D01*
X0026299Y0248072D02*
X0045202Y0248072D01*
X0047321Y0249671D02*
X0027222Y0249671D01*
X0027911Y0251269D02*
X0064141Y0251269D01*
X0063999Y0252217D02*
X0063999Y0252217D01*
X0063699Y0252868D02*
X0028340Y0252868D01*
X0028466Y0254466D02*
X0062101Y0254466D01*
X0061281Y0256065D02*
X0028466Y0256065D01*
X0028090Y0257663D02*
X0060767Y0257663D01*
X0060767Y0259262D02*
X0027607Y0259262D01*
X0026684Y0260860D02*
X0061085Y0260860D01*
X0061747Y0262459D02*
X0025404Y0262459D01*
X0022375Y0244875D02*
X0049087Y0244875D01*
X0050046Y0244875D02*
X0065149Y0244875D01*
X0065059Y0245128D02*
X0065059Y0245128D01*
X0064858Y0246474D02*
X0054850Y0246474D01*
X0054792Y0246651D02*
X0054389Y0247442D01*
X0053868Y0248160D01*
X0053240Y0248787D01*
X0052522Y0249309D01*
X0051731Y0249712D01*
X0050887Y0249986D01*
X0050046Y0250120D01*
X0050046Y0244966D01*
X0055200Y0244966D01*
X0055066Y0245807D01*
X0054792Y0246651D01*
X0053931Y0248072D02*
X0064619Y0248072D01*
X0064380Y0249671D02*
X0051812Y0249671D01*
X0050046Y0249671D02*
X0049087Y0249671D01*
X0049087Y0248072D02*
X0050046Y0248072D01*
X0050046Y0246474D02*
X0049087Y0246474D01*
X0049087Y0243277D02*
X0050046Y0243277D01*
X0050046Y0241678D02*
X0049087Y0241678D01*
X0049087Y0240080D02*
X0050046Y0240080D01*
X0053094Y0240080D02*
X0066871Y0240080D01*
X0066297Y0241678D02*
X0054464Y0241678D01*
X0055084Y0243277D02*
X0065723Y0243277D01*
X0073432Y0246474D02*
X0083967Y0246474D01*
X0083967Y0244995D02*
X0083574Y0244602D01*
X0082767Y0242654D01*
X0082767Y0240546D01*
X0083574Y0238598D01*
X0085064Y0237107D01*
X0087012Y0236300D01*
X0089121Y0236300D01*
X0091069Y0237107D01*
X0092560Y0238598D01*
X0093367Y0240546D01*
X0093367Y0242654D01*
X0092560Y0244602D01*
X0092167Y0244995D01*
X0092167Y0253201D01*
X0093577Y0254611D01*
X0093732Y0254235D01*
X0095701Y0252266D01*
X0098274Y0251200D01*
X0101059Y0251200D01*
X0103632Y0252266D01*
X0104667Y0253301D01*
X0104733Y0253234D01*
X0104085Y0252462D01*
X0104511Y0247593D01*
X0108256Y0244451D01*
X0113125Y0244877D01*
X0116267Y0248621D01*
X0116041Y0251198D01*
X0116224Y0250516D01*
X0117685Y0247985D01*
X0119752Y0245918D01*
X0122283Y0244457D01*
X0125105Y0243701D01*
X0128028Y0243701D01*
X0130851Y0244457D01*
X0133382Y0245918D01*
X0135448Y0247985D01*
X0136067Y0249056D01*
X0136067Y0236519D01*
X0135078Y0237349D01*
X0130209Y0236923D01*
X0128566Y0234966D01*
X0127480Y0234764D01*
X0123828Y0233020D01*
X0120752Y0230390D01*
X0120752Y0230390D01*
X0120752Y0230390D01*
X0118461Y0227053D01*
X0117783Y0225136D01*
X0112292Y0225360D01*
X0113508Y0227466D01*
X0112845Y0229940D01*
X0113632Y0230266D01*
X0115601Y0232235D01*
X0116667Y0234808D01*
X0116667Y0237592D01*
X0115601Y0240165D01*
X0113632Y0242134D01*
X0111059Y0243200D01*
X0108274Y0243200D01*
X0105701Y0242134D01*
X0104667Y0241099D01*
X0103632Y0242134D01*
X0101059Y0243200D01*
X0098274Y0243200D01*
X0095701Y0242134D01*
X0093732Y0240165D01*
X0092667Y0237592D01*
X0092667Y0234808D01*
X0093732Y0232235D01*
X0095701Y0230266D01*
X0098274Y0229200D01*
X0100883Y0229200D01*
X0100845Y0229134D01*
X0101741Y0225790D01*
X0099161Y0225895D01*
X0096410Y0226163D01*
X0091049Y0227500D01*
X0086051Y0229858D01*
X0081609Y0233145D01*
X0077894Y0237235D01*
X0075049Y0241971D01*
X0073181Y0247172D01*
X0072365Y0252637D01*
X0072364Y0253398D01*
X0073701Y0254735D01*
X0073775Y0254914D01*
X0074184Y0254505D01*
X0074884Y0253996D01*
X0075655Y0253603D01*
X0076479Y0253335D01*
X0077334Y0253200D01*
X0077567Y0253200D01*
X0077567Y0258500D01*
X0077967Y0258500D01*
X0077967Y0253200D01*
X0078200Y0253200D01*
X0079055Y0253335D01*
X0079878Y0253603D01*
X0080649Y0253996D01*
X0081350Y0254505D01*
X0081758Y0254914D01*
X0081832Y0254735D01*
X0083801Y0252766D01*
X0083967Y0252697D01*
X0083967Y0244995D01*
X0083847Y0244875D02*
X0074006Y0244875D01*
X0074580Y0243277D02*
X0083024Y0243277D01*
X0082767Y0241678D02*
X0075225Y0241678D01*
X0076185Y0240080D02*
X0082960Y0240080D01*
X0083690Y0238481D02*
X0077145Y0238481D01*
X0077894Y0237235D02*
X0077894Y0237235D01*
X0078214Y0236883D02*
X0085606Y0236883D01*
X0090528Y0236883D02*
X0092667Y0236883D01*
X0092667Y0235284D02*
X0079666Y0235284D01*
X0081118Y0233686D02*
X0093131Y0233686D01*
X0093880Y0232087D02*
X0083038Y0232087D01*
X0085199Y0230489D02*
X0095479Y0230489D01*
X0091886Y0227292D02*
X0101338Y0227292D01*
X0100910Y0228890D02*
X0088102Y0228890D01*
X0082119Y0222496D02*
X0023440Y0222496D01*
X0023517Y0220898D02*
X0085508Y0220898D01*
X0089486Y0219299D02*
X0023517Y0219299D01*
X0023137Y0217701D02*
X0093540Y0217701D01*
X0092878Y0216102D02*
X0023228Y0216102D01*
X0023517Y0214503D02*
X0091221Y0214503D01*
X0091892Y0215152D02*
X0091892Y0215152D01*
X0089568Y0212905D02*
X0023517Y0212905D01*
X0023517Y0211306D02*
X0088079Y0211306D01*
X0087120Y0209708D02*
X0023323Y0209708D01*
X0023360Y0208109D02*
X0086161Y0208109D01*
X0085483Y0206511D02*
X0023517Y0206511D01*
X0023096Y0204912D02*
X0085026Y0204912D01*
X0084569Y0203314D02*
X0023517Y0203314D01*
X0023517Y0201715D02*
X0084353Y0201715D01*
X0084368Y0202612D02*
X0084368Y0202612D01*
X0084326Y0200117D02*
X0023164Y0200117D01*
X0022742Y0198518D02*
X0084299Y0198518D01*
X0084461Y0196920D02*
X0023517Y0196920D01*
X0023402Y0195321D02*
X0084717Y0195321D01*
X0084637Y0193723D02*
X0022396Y0193723D01*
X0022989Y0192124D02*
X0084557Y0192124D01*
X0084477Y0190526D02*
X0023517Y0190526D01*
X0023296Y0188927D02*
X0084397Y0188927D01*
X0084317Y0187329D02*
X0023517Y0187329D01*
X0024020Y0185730D02*
X0077723Y0185730D01*
X0076125Y0184132D02*
X0024974Y0184132D01*
X0025051Y0182533D02*
X0075437Y0182533D01*
X0075437Y0180935D02*
X0024699Y0180935D01*
X0023517Y0179336D02*
X0075437Y0179336D01*
X0076255Y0177738D02*
X0023227Y0177738D01*
X0023517Y0176139D02*
X0077066Y0176139D01*
X0076701Y0174541D02*
X0023058Y0174541D01*
X0020952Y0172942D02*
X0045970Y0172942D01*
X0053163Y0172942D02*
X0076336Y0172942D01*
X0081337Y0178370D02*
X0081337Y0181000D01*
X0091167Y0182900D02*
X0089867Y0143700D01*
X0089865Y0143503D01*
X0089857Y0143305D01*
X0089846Y0143108D01*
X0089829Y0142911D01*
X0089807Y0142715D01*
X0089781Y0142520D01*
X0089750Y0142325D01*
X0089715Y0142130D01*
X0089675Y0141937D01*
X0089630Y0141745D01*
X0089580Y0141554D01*
X0089526Y0141364D01*
X0089467Y0141175D01*
X0089404Y0140988D01*
X0089336Y0140803D01*
X0089264Y0140619D01*
X0089187Y0140437D01*
X0089106Y0140257D01*
X0089021Y0140079D01*
X0088931Y0139903D01*
X0088837Y0139730D01*
X0088739Y0139558D01*
X0088637Y0139389D01*
X0088531Y0139223D01*
X0088421Y0139059D01*
X0088307Y0138898D01*
X0088189Y0138739D01*
X0088067Y0138584D01*
X0087941Y0138432D01*
X0087812Y0138282D01*
X0087680Y0138136D01*
X0087543Y0137993D01*
X0087404Y0137854D01*
X0087261Y0137717D01*
X0087115Y0137585D01*
X0086965Y0137456D01*
X0086813Y0137330D01*
X0086658Y0137208D01*
X0086499Y0137090D01*
X0086338Y0136976D01*
X0086174Y0136866D01*
X0086008Y0136760D01*
X0085839Y0136658D01*
X0085667Y0136560D01*
X0085494Y0136466D01*
X0085318Y0136376D01*
X0085140Y0136291D01*
X0084960Y0136210D01*
X0084778Y0136133D01*
X0084594Y0136061D01*
X0084409Y0135993D01*
X0084222Y0135930D01*
X0084033Y0135871D01*
X0083843Y0135817D01*
X0083652Y0135767D01*
X0083460Y0135722D01*
X0083267Y0135682D01*
X0083072Y0135647D01*
X0082877Y0135616D01*
X0082682Y0135590D01*
X0082486Y0135568D01*
X0082289Y0135551D01*
X0082092Y0135540D01*
X0081894Y0135532D01*
X0081697Y0135530D01*
X0074767Y0136030D01*
X0075797Y0116030D02*
X0076367Y0116093D01*
X0076935Y0116171D01*
X0077502Y0116262D01*
X0078066Y0116367D01*
X0078627Y0116485D01*
X0079185Y0116617D01*
X0079740Y0116762D01*
X0080291Y0116921D01*
X0080839Y0117093D01*
X0081381Y0117278D01*
X0081920Y0117477D01*
X0082453Y0117688D01*
X0082981Y0117912D01*
X0083504Y0118149D01*
X0084020Y0118398D01*
X0084531Y0118660D01*
X0085035Y0118934D01*
X0085532Y0119220D01*
X0086022Y0119518D01*
X0086505Y0119827D01*
X0086980Y0120149D01*
X0087447Y0120481D01*
X0087906Y0120825D01*
X0088357Y0121180D01*
X0088799Y0121546D01*
X0089232Y0121922D01*
X0089656Y0122309D01*
X0090070Y0122705D01*
X0090475Y0123112D01*
X0090869Y0123528D01*
X0091254Y0123954D01*
X0091628Y0124389D01*
X0091991Y0124833D01*
X0092344Y0125285D01*
X0092685Y0125746D01*
X0093016Y0126215D01*
X0093335Y0126692D01*
X0093642Y0127176D01*
X0093938Y0127668D01*
X0094221Y0128166D01*
X0094493Y0128671D01*
X0094752Y0129183D01*
X0094998Y0129701D01*
X0095233Y0130225D01*
X0095454Y0130754D01*
X0095662Y0131288D01*
X0095858Y0131828D01*
X0096041Y0132371D01*
X0096210Y0132919D01*
X0096366Y0133471D01*
X0096508Y0134027D01*
X0096638Y0134586D01*
X0096753Y0135148D01*
X0096855Y0135712D01*
X0096943Y0136279D01*
X0097018Y0136848D01*
X0097079Y0137418D01*
X0097126Y0137990D01*
X0097159Y0138562D01*
X0097178Y0139136D01*
X0097184Y0139709D01*
X0097176Y0140283D01*
X0097153Y0140856D01*
X0097117Y0141429D01*
X0097067Y0142000D01*
X0093467Y0136100D02*
X0094067Y0163500D01*
X0098094Y0160154D02*
X0098988Y0160154D01*
X0098059Y0158556D02*
X0100107Y0158556D01*
X0098024Y0156957D02*
X0104516Y0156957D01*
X0104195Y0163005D02*
X0109667Y0170200D01*
X0105713Y0176139D02*
X0103620Y0176139D01*
X0107538Y0179336D02*
X0128076Y0179336D01*
X0129133Y0180935D02*
X0109662Y0180935D01*
X0095713Y0176139D02*
X0095045Y0176139D01*
X0099667Y0170200D02*
X0099511Y0170185D01*
X0099356Y0170165D01*
X0099202Y0170141D01*
X0099048Y0170113D01*
X0098894Y0170082D01*
X0098742Y0170046D01*
X0098591Y0170007D01*
X0098440Y0169964D01*
X0098291Y0169917D01*
X0098143Y0169866D01*
X0097996Y0169812D01*
X0097851Y0169754D01*
X0097707Y0169692D01*
X0097565Y0169627D01*
X0097425Y0169558D01*
X0097286Y0169485D01*
X0097149Y0169409D01*
X0097015Y0169330D01*
X0096882Y0169247D01*
X0096751Y0169161D01*
X0096623Y0169071D01*
X0096497Y0168979D01*
X0096373Y0168883D01*
X0096252Y0168784D01*
X0096133Y0168682D01*
X0096017Y0168577D01*
X0095904Y0168469D01*
X0095793Y0168358D01*
X0095686Y0168245D01*
X0095581Y0168129D01*
X0095479Y0168010D01*
X0095380Y0167889D01*
X0095285Y0167765D01*
X0095192Y0167639D01*
X0095103Y0167510D01*
X0095017Y0167380D01*
X0094934Y0167247D01*
X0094855Y0167112D01*
X0094779Y0166975D01*
X0094707Y0166837D01*
X0094638Y0166696D01*
X0094572Y0166554D01*
X0094511Y0166410D01*
X0094453Y0166265D01*
X0094399Y0166118D01*
X0094348Y0165970D01*
X0094301Y0165821D01*
X0094258Y0165670D01*
X0094219Y0165519D01*
X0094184Y0165366D01*
X0094153Y0165213D01*
X0094125Y0165059D01*
X0094101Y0164904D01*
X0094082Y0164749D01*
X0094066Y0164594D01*
X0094054Y0164438D01*
X0094046Y0164281D01*
X0094042Y0164125D01*
X0094043Y0163969D01*
X0094047Y0163812D01*
X0094055Y0163656D01*
X0094067Y0163500D01*
X0097989Y0155359D02*
X0128242Y0155359D01*
X0135979Y0152162D02*
X0136067Y0152162D01*
X0127567Y0134578D02*
X0109367Y0134578D01*
X0111592Y0132979D02*
X0127567Y0132979D01*
X0127567Y0131381D02*
X0114385Y0131381D01*
X0115760Y0129782D02*
X0128540Y0129782D01*
X0130139Y0128184D02*
X0116422Y0128184D01*
X0116667Y0126585D02*
X0136067Y0126585D01*
X0136067Y0124987D02*
X0116667Y0124987D01*
X0116079Y0123388D02*
X0136067Y0123388D01*
X0129487Y0121790D02*
X0115156Y0121790D01*
X0113452Y0120191D02*
X0128368Y0120191D01*
X0079597Y0126030D02*
X0074767Y0126030D01*
X0075097Y0106030D02*
X0075638Y0105983D01*
X0076180Y0105950D01*
X0076723Y0105929D01*
X0077266Y0105922D01*
X0077809Y0105928D01*
X0078352Y0105947D01*
X0078895Y0105979D01*
X0079436Y0106024D01*
X0079976Y0106082D01*
X0080514Y0106153D01*
X0081051Y0106238D01*
X0081585Y0106335D01*
X0082117Y0106445D01*
X0082647Y0106568D01*
X0083172Y0106703D01*
X0083695Y0106852D01*
X0084214Y0107013D01*
X0084729Y0107186D01*
X0085239Y0107372D01*
X0085745Y0107570D01*
X0086246Y0107780D01*
X0086741Y0108002D01*
X0087232Y0108237D01*
X0087716Y0108482D01*
X0088194Y0108740D01*
X0088666Y0109009D01*
X0089131Y0109289D01*
X0089590Y0109581D01*
X0090041Y0109884D01*
X0090484Y0110197D01*
X0090920Y0110521D01*
X0091348Y0110855D01*
X0091768Y0111200D01*
X0092180Y0111555D01*
X0092582Y0111919D01*
X0092976Y0112293D01*
X0093361Y0112677D01*
X0093736Y0113070D01*
X0094102Y0113471D01*
X0094457Y0113882D01*
X0094803Y0114301D01*
X0095139Y0114728D01*
X0095464Y0115163D01*
X0095779Y0115606D01*
X0096082Y0116056D01*
X0096375Y0116514D01*
X0096657Y0116978D01*
X0096927Y0117449D01*
X0097186Y0117927D01*
X0097433Y0118410D01*
X0097669Y0118900D01*
X0097892Y0119395D01*
X0098104Y0119895D01*
X0098303Y0120400D01*
X0098491Y0120910D01*
X0098665Y0121425D01*
X0098828Y0121943D01*
X0098977Y0122465D01*
X0099114Y0122991D01*
X0099239Y0123520D01*
X0099350Y0124051D01*
X0099449Y0124585D01*
X0099535Y0125122D01*
X0099607Y0125660D01*
X0099667Y0126200D01*
X0093467Y0136100D02*
X0093418Y0135811D01*
X0093361Y0135524D01*
X0093298Y0135238D01*
X0093228Y0134954D01*
X0093151Y0134671D01*
X0093067Y0134390D01*
X0092976Y0134112D01*
X0092879Y0133836D01*
X0092775Y0133562D01*
X0092665Y0133291D01*
X0092548Y0133022D01*
X0092424Y0132757D01*
X0092294Y0132494D01*
X0092158Y0132235D01*
X0092016Y0131979D01*
X0091867Y0131726D01*
X0091712Y0131478D01*
X0091552Y0131233D01*
X0091385Y0130992D01*
X0091213Y0130755D01*
X0091035Y0130522D01*
X0090852Y0130294D01*
X0090663Y0130070D01*
X0090468Y0129851D01*
X0090269Y0129636D01*
X0090064Y0129427D01*
X0089855Y0129222D01*
X0089640Y0129023D01*
X0089421Y0128829D01*
X0089197Y0128640D01*
X0088968Y0128457D01*
X0088736Y0128279D01*
X0088499Y0128107D01*
X0088258Y0127941D01*
X0088012Y0127780D01*
X0087764Y0127626D01*
X0087511Y0127477D01*
X0087255Y0127335D01*
X0086996Y0127199D01*
X0086733Y0127069D01*
X0086467Y0126946D01*
X0086199Y0126829D01*
X0085928Y0126719D01*
X0085654Y0126615D01*
X0085377Y0126518D01*
X0085099Y0126428D01*
X0084818Y0126344D01*
X0084536Y0126267D01*
X0084251Y0126197D01*
X0083965Y0126134D01*
X0083678Y0126078D01*
X0083389Y0126029D01*
X0083099Y0125986D01*
X0082808Y0125951D01*
X0082517Y0125923D01*
X0082225Y0125902D01*
X0081932Y0125888D01*
X0081639Y0125881D01*
X0081346Y0125881D01*
X0081054Y0125888D01*
X0080761Y0125902D01*
X0080469Y0125924D01*
X0080178Y0125952D01*
X0079887Y0125987D01*
X0079597Y0126030D01*
X0075797Y0116030D02*
X0074767Y0116030D01*
X0074767Y0106030D02*
X0075097Y0106030D01*
X0068802Y0101009D02*
X0050731Y0101009D01*
X0062267Y0080400D02*
X0062265Y0080263D01*
X0062259Y0080127D01*
X0062250Y0079991D01*
X0062236Y0079855D01*
X0062219Y0079719D01*
X0062198Y0079584D01*
X0062173Y0079450D01*
X0062145Y0079316D01*
X0062113Y0079184D01*
X0062077Y0079052D01*
X0062037Y0078921D01*
X0061994Y0078792D01*
X0061947Y0078663D01*
X0061896Y0078536D01*
X0061842Y0078411D01*
X0061785Y0078287D01*
X0061724Y0078165D01*
X0061659Y0078044D01*
X0061592Y0077926D01*
X0061521Y0077809D01*
X0061446Y0077694D01*
X0061369Y0077582D01*
X0061288Y0077472D01*
X0061205Y0077364D01*
X0061118Y0077258D01*
X0061028Y0077155D01*
X0060936Y0077054D01*
X0060841Y0076956D01*
X0060743Y0076861D01*
X0060642Y0076769D01*
X0060539Y0076679D01*
X0060433Y0076592D01*
X0060325Y0076509D01*
X0060215Y0076428D01*
X0060103Y0076351D01*
X0059988Y0076276D01*
X0059871Y0076205D01*
X0059753Y0076138D01*
X0059632Y0076073D01*
X0059510Y0076012D01*
X0059386Y0075955D01*
X0059261Y0075901D01*
X0059134Y0075850D01*
X0059005Y0075803D01*
X0058876Y0075760D01*
X0058745Y0075720D01*
X0058613Y0075684D01*
X0058481Y0075652D01*
X0058347Y0075624D01*
X0058213Y0075599D01*
X0058078Y0075578D01*
X0057942Y0075561D01*
X0057806Y0075547D01*
X0057670Y0075538D01*
X0057534Y0075532D01*
X0057397Y0075530D01*
X0044767Y0077032D02*
X0044767Y0077032D01*
X0044767Y0078630D02*
X0044767Y0078630D01*
X0050769Y0140972D02*
X0068765Y0140972D01*
X0074767Y0146030D02*
X0080797Y0145530D01*
X0059667Y0156700D02*
X0060191Y0156706D01*
X0060714Y0156725D01*
X0061237Y0156757D01*
X0061758Y0156801D01*
X0062279Y0156858D01*
X0062798Y0156927D01*
X0063315Y0157009D01*
X0063830Y0157104D01*
X0064343Y0157211D01*
X0064853Y0157330D01*
X0065360Y0157461D01*
X0065863Y0157605D01*
X0066363Y0157761D01*
X0066859Y0157928D01*
X0067351Y0158108D01*
X0067839Y0158300D01*
X0068321Y0158503D01*
X0068799Y0158718D01*
X0069271Y0158944D01*
X0069738Y0159182D01*
X0070198Y0159431D01*
X0070653Y0159691D01*
X0071101Y0159962D01*
X0071542Y0160244D01*
X0071977Y0160536D01*
X0072404Y0160839D01*
X0072824Y0161152D01*
X0073236Y0161474D01*
X0073641Y0161807D01*
X0074037Y0162150D01*
X0074425Y0162502D01*
X0074804Y0162863D01*
X0075174Y0163233D01*
X0075535Y0163612D01*
X0075887Y0164000D01*
X0076230Y0164396D01*
X0076563Y0164801D01*
X0076885Y0165213D01*
X0077198Y0165633D01*
X0077501Y0166060D01*
X0077793Y0166495D01*
X0078075Y0166936D01*
X0078346Y0167384D01*
X0078606Y0167839D01*
X0078855Y0168299D01*
X0079093Y0168766D01*
X0079319Y0169238D01*
X0079534Y0169716D01*
X0079737Y0170198D01*
X0079929Y0170686D01*
X0080109Y0171178D01*
X0080276Y0171674D01*
X0080432Y0172174D01*
X0080576Y0172677D01*
X0080707Y0173184D01*
X0080826Y0173694D01*
X0080933Y0174207D01*
X0081028Y0174722D01*
X0081110Y0175239D01*
X0081179Y0175758D01*
X0081236Y0176279D01*
X0081280Y0176800D01*
X0081312Y0177323D01*
X0081331Y0177846D01*
X0081337Y0178370D01*
X0102705Y0198518D02*
X0106629Y0198518D01*
X0099667Y0214200D02*
X0099320Y0214109D01*
X0098976Y0214009D01*
X0098633Y0213901D01*
X0098294Y0213785D01*
X0097958Y0213661D01*
X0097624Y0213529D01*
X0097294Y0213388D01*
X0096968Y0213240D01*
X0096645Y0213084D01*
X0096326Y0212920D01*
X0096011Y0212748D01*
X0095700Y0212569D01*
X0095393Y0212383D01*
X0095092Y0212189D01*
X0094795Y0211988D01*
X0094503Y0211779D01*
X0094216Y0211564D01*
X0093934Y0211342D01*
X0093658Y0211113D01*
X0093387Y0210877D01*
X0093123Y0210635D01*
X0092864Y0210387D01*
X0092611Y0210133D01*
X0092364Y0209872D01*
X0092124Y0209606D01*
X0091891Y0209334D01*
X0091664Y0209056D01*
X0091443Y0208773D01*
X0091230Y0208485D01*
X0091024Y0208191D01*
X0090824Y0207893D01*
X0090632Y0207590D01*
X0090448Y0207282D01*
X0090271Y0206970D01*
X0090101Y0206654D01*
X0089940Y0206334D01*
X0089786Y0206010D01*
X0089639Y0205683D01*
X0089501Y0205352D01*
X0089371Y0205017D01*
X0089249Y0204680D01*
X0089135Y0204340D01*
X0089030Y0203997D01*
X0088932Y0203652D01*
X0088844Y0203304D01*
X0088763Y0202955D01*
X0088691Y0202603D01*
X0088628Y0202250D01*
X0088573Y0201896D01*
X0088526Y0201540D01*
X0088489Y0201184D01*
X0088460Y0200826D01*
X0088439Y0200468D01*
X0088427Y0200109D01*
X0088424Y0199751D01*
X0088430Y0199392D01*
X0088444Y0199034D01*
X0088467Y0198676D01*
X0088498Y0198318D01*
X0088538Y0197962D01*
X0088587Y0197607D01*
X0088644Y0197253D01*
X0088710Y0196900D01*
X0088784Y0196549D01*
X0088867Y0196200D01*
X0092736Y0201715D02*
X0100767Y0201715D01*
X0100021Y0203314D02*
X0093193Y0203314D01*
X0093913Y0204912D02*
X0099276Y0204912D01*
X0098995Y0206511D02*
X0094884Y0206511D01*
X0105171Y0206230D02*
X0109667Y0214200D01*
X0116045Y0211306D02*
X0127583Y0211306D01*
X0128011Y0209708D02*
X0115074Y0209708D01*
X0113255Y0208109D02*
X0130347Y0208109D01*
X0127155Y0212905D02*
X0116667Y0212905D01*
X0116667Y0214503D02*
X0127039Y0214503D01*
X0127962Y0216102D02*
X0116456Y0216102D01*
X0121042Y0220900D02*
X0098967Y0221800D01*
X0107176Y0228300D02*
X0109667Y0236200D01*
X0116202Y0233686D02*
X0125223Y0233686D01*
X0123828Y0233020D02*
X0123828Y0233020D01*
X0122737Y0232087D02*
X0115453Y0232087D01*
X0113855Y0230489D02*
X0120868Y0230489D01*
X0119722Y0228890D02*
X0113126Y0228890D01*
X0113407Y0227292D02*
X0118625Y0227292D01*
X0118461Y0227053D02*
X0118461Y0227053D01*
X0117980Y0225693D02*
X0112484Y0225693D01*
X0116667Y0235284D02*
X0128834Y0235284D01*
X0127480Y0234764D02*
X0127480Y0234764D01*
X0130175Y0236883D02*
X0116667Y0236883D01*
X0116299Y0238481D02*
X0136067Y0238481D01*
X0136067Y0236883D02*
X0135633Y0236883D01*
X0136067Y0240080D02*
X0115636Y0240080D01*
X0114088Y0241678D02*
X0136067Y0241678D01*
X0136067Y0243277D02*
X0093109Y0243277D01*
X0093367Y0241678D02*
X0095245Y0241678D01*
X0093697Y0240080D02*
X0093174Y0240080D01*
X0093035Y0238481D02*
X0092443Y0238481D01*
X0088067Y0241600D02*
X0088067Y0258300D01*
X0093432Y0254466D02*
X0093636Y0254466D01*
X0095099Y0252868D02*
X0092167Y0252868D01*
X0092167Y0251269D02*
X0098107Y0251269D01*
X0101226Y0251269D02*
X0104190Y0251269D01*
X0104234Y0252868D02*
X0104426Y0252868D01*
X0104330Y0249671D02*
X0092167Y0249671D01*
X0092167Y0248072D02*
X0104470Y0248072D01*
X0105845Y0246474D02*
X0092167Y0246474D01*
X0092287Y0244875D02*
X0107750Y0244875D01*
X0105245Y0241678D02*
X0104088Y0241678D01*
X0113101Y0244875D02*
X0121558Y0244875D01*
X0119196Y0246474D02*
X0114464Y0246474D01*
X0115806Y0248072D02*
X0117635Y0248072D01*
X0116712Y0249671D02*
X0116175Y0249671D01*
X0110176Y0250542D02*
X0109667Y0258200D01*
X0098967Y0221800D02*
X0098188Y0221847D01*
X0097411Y0221913D01*
X0096635Y0221997D01*
X0095862Y0222100D01*
X0095091Y0222222D01*
X0094324Y0222363D01*
X0093560Y0222522D01*
X0092800Y0222699D01*
X0092045Y0222894D01*
X0091294Y0223108D01*
X0090549Y0223340D01*
X0089810Y0223590D01*
X0089077Y0223858D01*
X0088351Y0224143D01*
X0087632Y0224446D01*
X0086920Y0224766D01*
X0086217Y0225103D01*
X0085521Y0225457D01*
X0084835Y0225827D01*
X0084157Y0226215D01*
X0083490Y0226618D01*
X0082832Y0227037D01*
X0082184Y0227473D01*
X0081547Y0227923D01*
X0080921Y0228389D01*
X0080307Y0228870D01*
X0079705Y0229366D01*
X0079114Y0229876D01*
X0078536Y0230400D01*
X0077971Y0230939D01*
X0077419Y0231490D01*
X0076881Y0232055D01*
X0076356Y0232632D01*
X0075846Y0233222D01*
X0075350Y0233825D01*
X0074868Y0234439D01*
X0074402Y0235064D01*
X0073951Y0235701D01*
X0073515Y0236348D01*
X0073095Y0237006D01*
X0072692Y0237673D01*
X0072304Y0238350D01*
X0071933Y0239037D01*
X0071578Y0239732D01*
X0071241Y0240435D01*
X0070920Y0241147D01*
X0070617Y0241866D01*
X0070332Y0242592D01*
X0070064Y0243324D01*
X0069813Y0244063D01*
X0069581Y0244808D01*
X0069367Y0245558D01*
X0069171Y0246314D01*
X0068993Y0247073D01*
X0068833Y0247837D01*
X0068693Y0248604D01*
X0068570Y0249375D01*
X0068467Y0250148D01*
X0068382Y0250924D01*
X0068316Y0251701D01*
X0068268Y0252480D01*
X0068240Y0253260D01*
X0068230Y0254040D01*
X0068239Y0254820D01*
X0068267Y0255600D01*
X0067767Y0258700D01*
X0073432Y0254466D02*
X0074237Y0254466D01*
X0072365Y0252868D02*
X0083699Y0252868D01*
X0083967Y0251269D02*
X0072569Y0251269D01*
X0072808Y0249671D02*
X0083967Y0249671D01*
X0083967Y0248072D02*
X0073047Y0248072D01*
X0077567Y0254466D02*
X0077967Y0254466D01*
X0077967Y0256065D02*
X0077567Y0256065D01*
X0077567Y0257663D02*
X0077967Y0257663D01*
X0081297Y0254466D02*
X0082101Y0254466D01*
X0126451Y0224095D02*
X0136067Y0224095D01*
X0136067Y0222496D02*
X0125612Y0222496D01*
X0125175Y0220898D02*
X0136067Y0220898D01*
X0136067Y0219299D02*
X0134566Y0219299D01*
X0132750Y0219299D02*
X0124827Y0219299D01*
X0123620Y0217701D02*
X0128885Y0217701D01*
X0121042Y0220900D02*
X0121067Y0221171D01*
X0121098Y0221442D01*
X0121135Y0221711D01*
X0121180Y0221980D01*
X0121230Y0222248D01*
X0121287Y0222514D01*
X0121351Y0222779D01*
X0121420Y0223042D01*
X0121497Y0223304D01*
X0121579Y0223563D01*
X0121668Y0223821D01*
X0121763Y0224076D01*
X0121864Y0224329D01*
X0121971Y0224579D01*
X0122084Y0224827D01*
X0122203Y0225072D01*
X0122328Y0225314D01*
X0122459Y0225553D01*
X0122596Y0225789D01*
X0122738Y0226021D01*
X0122886Y0226250D01*
X0123039Y0226475D01*
X0123197Y0226696D01*
X0123361Y0226914D01*
X0123531Y0227127D01*
X0123705Y0227337D01*
X0123884Y0227542D01*
X0124068Y0227742D01*
X0124257Y0227939D01*
X0124451Y0228130D01*
X0124649Y0228317D01*
X0124852Y0228499D01*
X0125059Y0228676D01*
X0125270Y0228848D01*
X0125485Y0229014D01*
X0125705Y0229176D01*
X0125928Y0229332D01*
X0126155Y0229483D01*
X0126385Y0229628D01*
X0126619Y0229768D01*
X0126856Y0229902D01*
X0127097Y0230030D01*
X0127340Y0230152D01*
X0127586Y0230269D01*
X0127835Y0230379D01*
X0128087Y0230483D01*
X0128341Y0230582D01*
X0128597Y0230674D01*
X0128856Y0230760D01*
X0129116Y0230839D01*
X0129378Y0230912D01*
X0129642Y0230979D01*
X0129908Y0231040D01*
X0130175Y0231094D01*
X0130443Y0231141D01*
X0130712Y0231183D01*
X0130982Y0231217D01*
X0131253Y0231245D01*
X0131525Y0231267D01*
X0131797Y0231282D01*
X0132069Y0231290D01*
X0132341Y0231292D01*
X0132614Y0231287D01*
X0132886Y0231276D01*
X0133158Y0231258D01*
X0130611Y0225693D02*
X0127972Y0225693D01*
X0131575Y0244875D02*
X0136067Y0244875D01*
X0136067Y0246474D02*
X0133937Y0246474D01*
X0135499Y0248072D02*
X0136067Y0248072D01*
X0136067Y0206511D02*
X0111550Y0206511D01*
X0110970Y0204912D02*
X0136067Y0204912D01*
X0136067Y0203314D02*
X0110388Y0203314D01*
X0109450Y0201715D02*
X0131723Y0201715D01*
X0134826Y0201715D02*
X0136067Y0201715D01*
X0012358Y0244875D02*
X0008567Y0244875D01*
X0008567Y0246474D02*
X0009996Y0246474D01*
D22*
X0088067Y0241600D03*
M02*
