G75*
%MOIN*%
%OFA0B0*%
%FSLAX24Y24*%
%IPPOS*%
%LPD*%
%AMOC8*
5,1,8,0,0,1.08239X$1,22.5*
%
%ADD10C,0.0040*%
%ADD11R,0.4000X0.0010*%
%ADD12R,0.2730X0.0010*%
%ADD13R,0.1220X0.0010*%
%ADD14R,0.0050X0.0010*%
%ADD15R,0.2710X0.0010*%
%ADD16R,0.1200X0.0010*%
%ADD17C,0.0650*%
%ADD18C,0.0520*%
%ADD19OC8,0.0520*%
%ADD20C,0.0740*%
%ADD21C,0.0768*%
%ADD22R,0.0740X0.0740*%
%ADD23OC8,0.0740*%
%ADD24C,0.0160*%
%ADD25C,0.0400*%
%ADD26R,0.0396X0.0396*%
D10*
X002790Y006244D02*
X003021Y006244D01*
X003097Y006321D01*
X003021Y006398D01*
X002790Y006398D01*
X002790Y006474D02*
X002790Y006244D01*
X002790Y006474D02*
X002867Y006551D01*
X003021Y006551D01*
X003251Y006551D02*
X003327Y006551D01*
X003481Y006398D01*
X003481Y006551D02*
X003481Y006244D01*
X003634Y006398D02*
X003941Y006398D01*
X003941Y006474D02*
X003941Y006321D01*
X003865Y006244D01*
X003711Y006244D01*
X003634Y006398D02*
X003634Y006474D01*
X003711Y006551D01*
X003865Y006551D01*
X003941Y006474D01*
X004095Y006398D02*
X004095Y006705D01*
X004402Y006705D02*
X004402Y006398D01*
X004248Y006244D01*
X004095Y006398D01*
X004555Y006321D02*
X004555Y006628D01*
X004632Y006705D01*
X004785Y006705D01*
X004862Y006628D01*
X004862Y006321D01*
X004785Y006244D01*
X004632Y006244D01*
X004555Y006321D01*
X005016Y006474D02*
X005092Y006398D01*
X005322Y006398D01*
X005322Y006244D02*
X005322Y006705D01*
X005092Y006705D01*
X005016Y006628D01*
X005016Y006474D01*
X005936Y006551D02*
X006090Y006551D01*
X006013Y006628D02*
X006013Y006321D01*
X005936Y006244D01*
X006243Y006244D02*
X006397Y006244D01*
X006320Y006244D02*
X006320Y006551D01*
X006397Y006551D01*
X006550Y006551D02*
X006780Y006551D01*
X006857Y006474D01*
X006857Y006321D01*
X006780Y006244D01*
X006550Y006244D01*
X006550Y006167D02*
X006550Y006551D01*
X006320Y006705D02*
X006320Y006781D01*
X006550Y006167D02*
X006627Y006091D01*
X006704Y006091D01*
X007011Y006244D02*
X007011Y006551D01*
X007164Y006705D01*
X007318Y006551D01*
X007318Y006244D01*
X007318Y006474D02*
X007011Y006474D01*
D11*
X004218Y002049D03*
X004218Y002039D03*
X004218Y002029D03*
D12*
X003583Y002059D03*
D13*
X005608Y002059D03*
D14*
X004973Y002059D03*
D15*
X003573Y002069D03*
D16*
X005618Y002069D03*
D17*
X003123Y008054D03*
X003123Y009054D03*
X005063Y009399D03*
X003098Y010654D03*
X003098Y011654D03*
X005063Y011399D03*
X004168Y013879D03*
X003168Y013879D03*
X003165Y015762D03*
X004165Y015762D03*
X004190Y017624D03*
X003190Y017624D03*
D18*
X007043Y017674D02*
X007563Y017674D01*
X007563Y016674D02*
X007043Y016674D01*
X007043Y015674D02*
X007563Y015674D01*
X007563Y014674D02*
X007043Y014674D01*
X007043Y013674D02*
X007563Y013674D01*
X007563Y012674D02*
X007043Y012674D01*
X007043Y011674D02*
X007563Y011674D01*
X007563Y010674D02*
X007043Y010674D01*
X007043Y009674D02*
X007563Y009674D01*
X007563Y008674D02*
X007043Y008674D01*
X007043Y007674D02*
X007563Y007674D01*
X010043Y007674D02*
X010563Y007674D01*
X010563Y008674D02*
X010043Y008674D01*
X010043Y009674D02*
X010563Y009674D01*
X010563Y010674D02*
X010043Y010674D01*
X010043Y011674D02*
X010563Y011674D01*
X010563Y012674D02*
X010043Y012674D01*
X010043Y013674D02*
X010563Y013674D01*
X010563Y014674D02*
X010043Y014674D01*
X010043Y015674D02*
X010563Y015674D01*
X010563Y016674D02*
X010043Y016674D01*
X010043Y017674D02*
X010563Y017674D01*
X010563Y018674D02*
X010043Y018674D01*
X010043Y019674D02*
X010563Y019674D01*
X010563Y020674D02*
X010043Y020674D01*
X007563Y020674D02*
X007043Y020674D01*
X007043Y019674D02*
X007563Y019674D01*
X007563Y018674D02*
X007043Y018674D01*
D19*
X007213Y022794D03*
X010213Y022794D03*
X015505Y022792D03*
X016963Y022049D03*
X016975Y020787D03*
X015505Y019792D03*
X015475Y018517D03*
X016975Y017787D03*
X017020Y016537D03*
X015475Y015517D03*
X015503Y014294D03*
X017020Y013537D03*
X016998Y012274D03*
X015503Y011294D03*
X015478Y010027D03*
X016998Y009274D03*
X016983Y008077D03*
X015478Y007027D03*
X016983Y005077D03*
X015468Y024002D03*
X016963Y025049D03*
X016998Y026284D03*
X015468Y027002D03*
X015470Y028279D03*
X016998Y029284D03*
X015470Y031279D03*
D20*
X013273Y030579D03*
X013273Y029579D03*
X013273Y027909D03*
X013273Y026909D03*
X013273Y025239D03*
X013273Y024239D03*
X013273Y022569D03*
X013273Y021569D03*
X013273Y019899D03*
X013273Y018899D03*
X013273Y017229D03*
X013273Y016229D03*
X013273Y014559D03*
X013273Y013559D03*
X013273Y011889D03*
X013273Y010889D03*
X013273Y009219D03*
X013273Y008219D03*
X013273Y006549D03*
X013273Y005549D03*
X013273Y003879D03*
X013273Y002879D03*
X007833Y003679D03*
X006833Y003679D03*
X005833Y003679D03*
X003933Y019949D03*
X003933Y020949D03*
X003933Y021949D03*
X013273Y032249D03*
X013273Y033249D03*
X010523Y033179D03*
X009523Y033179D03*
X008523Y033179D03*
D21*
X010924Y027702D03*
X003050Y027702D03*
D22*
X010863Y004689D03*
D23*
X009863Y004689D03*
X008863Y004689D03*
X008863Y003689D03*
X009863Y003689D03*
X010863Y003689D03*
D24*
X011601Y003579D02*
X011599Y003529D01*
X011594Y003480D01*
X011585Y003431D01*
X011573Y003382D01*
X011557Y003335D01*
X011538Y003289D01*
X011516Y003244D01*
X011490Y003202D01*
X011462Y003161D01*
X011431Y003122D01*
X011397Y003085D01*
X011360Y003051D01*
X011321Y003020D01*
X011280Y002992D01*
X011238Y002966D01*
X011193Y002944D01*
X011147Y002925D01*
X011100Y002909D01*
X011051Y002897D01*
X011002Y002888D01*
X010953Y002883D01*
X010903Y002881D01*
X010903Y002882D02*
X010670Y002882D01*
X010362Y002509D02*
X003926Y002509D01*
X004154Y002641D01*
X004361Y002848D01*
X004507Y003101D01*
X004582Y003383D01*
X004582Y003675D01*
X004507Y003958D01*
X004361Y004211D01*
X004154Y004417D01*
X003901Y004563D01*
X003619Y004639D01*
X003326Y004639D01*
X003044Y004563D01*
X002791Y004417D01*
X002702Y004329D01*
X002702Y005902D01*
X002721Y005894D01*
X003090Y005894D01*
X003219Y005947D01*
X003251Y005979D01*
X003283Y005947D01*
X003411Y005894D01*
X003551Y005894D01*
X003596Y005913D01*
X003641Y005894D01*
X003934Y005894D01*
X004056Y005945D01*
X004179Y005894D01*
X004318Y005894D01*
X004394Y005926D01*
X004440Y005945D01*
X004457Y005938D01*
X004562Y005894D01*
X004855Y005894D01*
X004984Y005947D01*
X005054Y006018D01*
X005124Y005947D01*
X005253Y005894D01*
X005392Y005894D01*
X005521Y005947D01*
X005619Y006046D01*
X005629Y006071D01*
X005640Y006046D01*
X005738Y005947D01*
X005867Y005894D01*
X006006Y005894D01*
X006090Y005929D01*
X006174Y005894D01*
X006328Y005894D01*
X006352Y005871D01*
X006429Y005794D01*
X006557Y005741D01*
X006773Y005741D01*
X006902Y005794D01*
X007000Y005892D01*
X007001Y005894D01*
X007080Y005894D01*
X007164Y005929D01*
X007248Y005894D01*
X007387Y005894D01*
X007516Y005947D01*
X007614Y006046D01*
X007667Y006175D01*
X007667Y006621D01*
X007614Y006749D01*
X007516Y006848D01*
X007516Y006848D01*
X007461Y006903D01*
X007362Y007001D01*
X007308Y007024D01*
X007234Y007055D01*
X007094Y007055D01*
X006966Y007001D01*
X006861Y006897D01*
X006850Y006901D01*
X006649Y006901D01*
X006617Y006980D01*
X006518Y007078D01*
X006390Y007131D01*
X006250Y007131D01*
X006122Y007078D01*
X006023Y006980D01*
X006023Y006978D01*
X005943Y006978D01*
X005815Y006925D01*
X005738Y006848D01*
X005670Y006780D01*
X005619Y006903D01*
X005521Y007001D01*
X005392Y007055D01*
X005023Y007055D01*
X004939Y007020D01*
X004922Y007027D01*
X004855Y007055D01*
X004562Y007055D01*
X004517Y007036D01*
X004471Y007055D01*
X004332Y007055D01*
X004248Y007020D01*
X004164Y007055D01*
X004025Y007055D01*
X003896Y007001D01*
X003798Y006903D01*
X003797Y006901D01*
X003641Y006901D01*
X003596Y006882D01*
X003551Y006901D01*
X003411Y006901D01*
X003404Y006898D01*
X003397Y006901D01*
X003181Y006901D01*
X003136Y006882D01*
X003090Y006901D01*
X002797Y006901D01*
X002702Y006862D01*
X002702Y007548D01*
X002751Y007499D01*
X002992Y007399D01*
X003253Y007399D01*
X003494Y007499D01*
X003614Y007619D01*
X004420Y007619D01*
X004797Y007742D01*
X005117Y007974D01*
X005117Y007974D01*
X005350Y008295D01*
X005472Y008671D01*
X005472Y008883D01*
X005618Y009028D01*
X005653Y009113D01*
X005669Y009118D01*
X006008Y009364D01*
X006253Y009702D01*
X006253Y009702D01*
X006382Y010100D01*
X006382Y011029D01*
X006385Y011066D01*
X006408Y011136D01*
X006451Y011195D01*
X006511Y011239D01*
X006581Y011261D01*
X006618Y011264D01*
X006708Y011174D01*
X006542Y011008D01*
X006453Y010792D01*
X006453Y010557D01*
X006542Y010340D01*
X006708Y010174D01*
X006542Y010008D01*
X006453Y009792D01*
X006453Y009557D01*
X006542Y009340D01*
X006708Y009174D01*
X006542Y009008D01*
X006453Y008792D01*
X006453Y008557D01*
X006542Y008340D01*
X006708Y008174D01*
X006542Y008008D01*
X006453Y007792D01*
X006453Y007557D01*
X006542Y007340D01*
X006708Y007174D01*
X006925Y007084D01*
X007680Y007084D01*
X007813Y007139D01*
X007813Y005779D01*
X007811Y005765D01*
X007803Y005738D01*
X007786Y005716D01*
X007763Y005699D01*
X007737Y005690D01*
X007723Y005689D01*
X006891Y005689D01*
X006841Y005689D01*
X006599Y005589D01*
X006599Y005589D01*
X006413Y005403D01*
X006313Y005160D01*
X006313Y004149D01*
X006239Y004076D01*
X006232Y004058D01*
X006191Y004099D01*
X006121Y004150D01*
X006044Y004189D01*
X005961Y004216D01*
X005876Y004229D01*
X005853Y004229D01*
X005853Y003699D01*
X005812Y003699D01*
X005812Y003659D01*
X005283Y003659D01*
X005283Y003636D01*
X005296Y003550D01*
X005323Y003468D01*
X005362Y003391D01*
X005413Y003321D01*
X005474Y003260D01*
X005544Y003209D01*
X005621Y003169D01*
X005704Y003143D01*
X005789Y003129D01*
X005812Y003129D01*
X005812Y003659D01*
X005853Y003659D01*
X005853Y003129D01*
X005876Y003129D01*
X005961Y003143D01*
X006044Y003169D01*
X006121Y003209D01*
X006191Y003260D01*
X006232Y003301D01*
X006239Y003283D01*
X006436Y003086D01*
X006693Y002979D01*
X006972Y002979D01*
X007229Y003086D01*
X007333Y003189D01*
X007436Y003086D01*
X007693Y002979D01*
X007972Y002979D01*
X008229Y003086D01*
X008426Y003283D01*
X008445Y003329D01*
X008635Y003139D01*
X008842Y003139D01*
X008842Y003669D01*
X008883Y003669D01*
X008883Y003139D01*
X009090Y003139D01*
X009256Y003305D01*
X009573Y002989D01*
X009674Y002989D01*
X009798Y002818D01*
X009798Y002818D01*
X010110Y002591D01*
X010110Y002591D01*
X010362Y002509D01*
X010011Y002663D02*
X004176Y002663D01*
X004335Y002822D02*
X009795Y002822D01*
X009680Y002980D02*
X007974Y002980D01*
X007691Y002980D02*
X006974Y002980D01*
X006691Y002980D02*
X004437Y002980D01*
X004517Y003139D02*
X005729Y003139D01*
X005812Y003139D02*
X005853Y003139D01*
X005936Y003139D02*
X006383Y003139D01*
X006233Y003297D02*
X006228Y003297D01*
X005853Y003297D02*
X005812Y003297D01*
X005812Y003456D02*
X005853Y003456D01*
X005853Y003614D02*
X005812Y003614D01*
X005812Y003699D02*
X005282Y003699D01*
X005283Y003722D01*
X005296Y003808D01*
X005323Y003890D01*
X005362Y003967D01*
X005413Y004037D01*
X005474Y004099D01*
X005544Y004150D01*
X005621Y004189D01*
X005704Y004216D01*
X005789Y004229D01*
X005812Y004229D01*
X005812Y003699D01*
X005812Y003773D02*
X005853Y003773D01*
X005853Y003931D02*
X005812Y003931D01*
X005812Y004090D02*
X005853Y004090D01*
X006200Y004090D02*
X006253Y004090D01*
X006313Y004248D02*
X004323Y004248D01*
X004431Y004090D02*
X005465Y004090D01*
X005344Y003931D02*
X004514Y003931D01*
X004556Y003773D02*
X005290Y003773D01*
X005286Y003614D02*
X004582Y003614D01*
X004582Y003456D02*
X005329Y003456D01*
X005437Y003297D02*
X004559Y003297D01*
X004165Y004407D02*
X006313Y004407D01*
X006313Y004565D02*
X003894Y004565D01*
X003051Y004565D02*
X002702Y004565D01*
X002702Y004407D02*
X002780Y004407D01*
X002702Y004724D02*
X006313Y004724D01*
X006313Y004882D02*
X002702Y004882D01*
X002702Y005041D02*
X006313Y005041D01*
X006329Y005199D02*
X002702Y005199D01*
X002702Y005358D02*
X006394Y005358D01*
X006413Y005403D02*
X006413Y005403D01*
X006526Y005516D02*
X002702Y005516D01*
X002702Y005675D02*
X006806Y005675D01*
X006841Y005689D02*
X006841Y005689D01*
X006941Y005833D02*
X007813Y005833D01*
X008223Y005779D02*
X008221Y005735D01*
X008215Y005692D01*
X008206Y005650D01*
X008193Y005608D01*
X008176Y005568D01*
X008156Y005529D01*
X008133Y005492D01*
X008106Y005458D01*
X008077Y005425D01*
X008044Y005396D01*
X008010Y005369D01*
X007973Y005346D01*
X007934Y005326D01*
X007894Y005309D01*
X007852Y005296D01*
X007810Y005287D01*
X007767Y005281D01*
X007723Y005279D01*
X006973Y005279D01*
X006943Y005277D01*
X006913Y005272D01*
X006884Y005263D01*
X006857Y005250D01*
X006831Y005235D01*
X006807Y005216D01*
X006786Y005195D01*
X006767Y005171D01*
X006752Y005145D01*
X006739Y005118D01*
X006730Y005089D01*
X006725Y005059D01*
X006723Y005029D01*
X006723Y003769D01*
X006727Y003752D01*
X006733Y003736D01*
X006742Y003721D01*
X006753Y003707D01*
X006767Y003696D01*
X006782Y003688D01*
X006798Y003682D01*
X006816Y003679D01*
X006833Y003679D01*
X007282Y003139D02*
X007383Y003139D01*
X008282Y003139D02*
X009423Y003139D01*
X009265Y003297D02*
X009248Y003297D01*
X008883Y003297D02*
X008842Y003297D01*
X008842Y003456D02*
X008883Y003456D01*
X008883Y003614D02*
X008842Y003614D01*
X007833Y003679D02*
X007835Y003740D01*
X007840Y003801D01*
X007850Y003861D01*
X007862Y003921D01*
X007879Y003979D01*
X007899Y004037D01*
X007922Y004094D01*
X007949Y004148D01*
X007979Y004202D01*
X008012Y004253D01*
X008048Y004302D01*
X008087Y004349D01*
X008129Y004393D01*
X008173Y004435D01*
X008220Y004474D01*
X008269Y004510D01*
X008320Y004543D01*
X008374Y004573D01*
X008428Y004600D01*
X008485Y004623D01*
X008543Y004643D01*
X008601Y004660D01*
X008661Y004672D01*
X008721Y004682D01*
X008782Y004687D01*
X008843Y004689D01*
X008863Y004689D01*
X008841Y004691D01*
X008820Y004696D01*
X008799Y004704D01*
X008781Y004716D01*
X008764Y004730D01*
X008750Y004747D01*
X008738Y004765D01*
X008730Y004786D01*
X008725Y004807D01*
X008723Y004829D01*
X008723Y019529D01*
X009132Y019464D02*
X009491Y019464D01*
X009453Y019557D02*
X009453Y019792D01*
X009542Y020008D01*
X009708Y020174D01*
X009542Y020340D01*
X009453Y020557D01*
X009453Y020792D01*
X009542Y021008D01*
X009708Y021174D01*
X009925Y021264D01*
X010680Y021264D01*
X010799Y021215D01*
X010810Y021249D01*
X010813Y021279D01*
X010813Y025136D01*
X010936Y025677D01*
X010936Y025677D01*
X011176Y026176D01*
X011176Y026176D01*
X011522Y026610D01*
X011522Y026610D01*
X011955Y026955D01*
X011955Y026955D01*
X012455Y027196D01*
X012652Y027241D01*
X012679Y027306D01*
X012783Y027409D01*
X012679Y027513D01*
X012573Y027770D01*
X012573Y028048D01*
X012679Y028306D01*
X012876Y028503D01*
X013133Y028609D01*
X013412Y028609D01*
X013669Y028503D01*
X013866Y028306D01*
X013972Y028048D01*
X013972Y027770D01*
X013866Y027513D01*
X013762Y027409D01*
X013866Y027306D01*
X013972Y027048D01*
X013972Y026770D01*
X013866Y026513D01*
X013669Y026316D01*
X013412Y026209D01*
X013133Y026209D01*
X012876Y026316D01*
X012775Y026417D01*
X012731Y026407D01*
X012400Y026248D01*
X012113Y026019D01*
X011884Y025732D01*
X011725Y025401D01*
X011643Y025043D01*
X011632Y024859D01*
X011632Y023769D01*
X011704Y023893D01*
X011704Y023893D01*
X012069Y024258D01*
X012069Y024258D01*
X012516Y024516D01*
X012516Y024516D01*
X012643Y024550D01*
X012679Y024636D01*
X012783Y024739D01*
X012679Y024843D01*
X012573Y025100D01*
X012573Y025378D01*
X012679Y025636D01*
X012876Y025833D01*
X013133Y025939D01*
X013412Y025939D01*
X013669Y025833D01*
X013866Y025636D01*
X013972Y025378D01*
X013972Y025100D01*
X013866Y024843D01*
X013762Y024739D01*
X013866Y024636D01*
X013972Y024378D01*
X015009Y024378D01*
X014878Y024246D02*
X015143Y024511D01*
X015157Y024564D01*
X015157Y024564D01*
X015349Y024897D01*
X015349Y024897D01*
X015620Y025168D01*
X015620Y025168D01*
X015902Y025331D01*
X015813Y025607D01*
X015813Y026512D01*
X015712Y026412D01*
X015223Y026412D01*
X014878Y026757D01*
X014878Y027246D01*
X015223Y027592D01*
X015712Y027592D01*
X015813Y027491D01*
X015813Y027527D01*
X015808Y027580D01*
X015775Y027682D01*
X015747Y027721D01*
X015714Y027689D01*
X015226Y027689D01*
X014880Y028035D01*
X014880Y028524D01*
X015226Y028869D01*
X015714Y028869D01*
X015894Y028689D01*
X015993Y028689D01*
X016086Y028696D01*
X016263Y028754D01*
X016413Y028863D01*
X016485Y028962D01*
X016408Y029040D01*
X016408Y029529D01*
X016753Y029874D01*
X017242Y029874D01*
X017293Y029824D01*
X017293Y032279D01*
X017154Y032141D01*
X016901Y031995D01*
X016619Y031919D01*
X016326Y031919D01*
X016044Y031995D01*
X015791Y032141D01*
X015584Y032348D01*
X015438Y032601D01*
X015363Y032883D01*
X015363Y033175D01*
X015438Y033458D01*
X015584Y033711D01*
X015673Y033799D01*
X013712Y033799D01*
X013866Y033646D01*
X013972Y033388D01*
X013972Y033110D01*
X013866Y032853D01*
X013762Y032749D01*
X013866Y032646D01*
X013972Y032388D01*
X013972Y032110D01*
X013866Y031853D01*
X013669Y031656D01*
X013412Y031549D01*
X013133Y031549D01*
X012876Y031656D01*
X012693Y031839D01*
X012241Y031839D01*
X012208Y031831D01*
X012160Y031839D01*
X012111Y031839D01*
X012089Y031848D01*
X011909Y031867D01*
X011470Y031838D01*
X011048Y031712D01*
X010665Y031495D01*
X010340Y031199D01*
X010089Y030838D01*
X009924Y030430D01*
X009891Y030277D01*
X009926Y030103D01*
X009926Y030103D01*
X009912Y029580D01*
X009912Y029580D01*
X009782Y029073D01*
X009782Y029073D01*
X009542Y028608D01*
X009542Y028608D01*
X009205Y028208D01*
X009205Y028208D01*
X009205Y028208D01*
X008787Y027893D01*
X008787Y027893D01*
X008333Y027689D01*
X008723Y027689D01*
X008865Y027698D01*
X009140Y027772D01*
X009386Y027914D01*
X009587Y028116D01*
X009730Y028362D01*
X009803Y028637D01*
X009813Y028779D01*
X009813Y028971D01*
X009931Y029335D01*
X009931Y029335D01*
X010156Y029645D01*
X010156Y029645D01*
X010156Y029645D01*
X010466Y029871D01*
X010466Y029871D01*
X010831Y029989D01*
X012693Y029989D01*
X012783Y030079D01*
X012679Y030183D01*
X012573Y030440D01*
X012573Y030718D01*
X010040Y030718D01*
X009976Y030559D02*
X012573Y030559D01*
X012589Y030401D02*
X009918Y030401D01*
X009898Y030242D02*
X012654Y030242D01*
X012778Y030084D02*
X009925Y030084D01*
X009921Y029925D02*
X010634Y029925D01*
X010323Y029767D02*
X009917Y029767D01*
X009912Y029608D02*
X010129Y029608D01*
X010014Y029450D02*
X009878Y029450D01*
X009838Y029291D02*
X009917Y029291D01*
X009865Y029133D02*
X009797Y029133D01*
X009814Y028974D02*
X009731Y028974D01*
X009649Y028816D02*
X009813Y028816D01*
X009805Y028657D02*
X009567Y028657D01*
X009450Y028499D02*
X009766Y028499D01*
X009717Y028340D02*
X009316Y028340D01*
X009170Y028182D02*
X009625Y028182D01*
X009495Y028023D02*
X008960Y028023D01*
X008725Y027865D02*
X009300Y027865D01*
X008894Y027706D02*
X008371Y027706D01*
X008473Y027279D02*
X008723Y027279D01*
X008472Y026869D02*
X008974Y026869D01*
X009460Y026999D01*
X009895Y027251D01*
X009895Y027251D01*
X010210Y027566D01*
X010210Y027560D01*
X010319Y027297D01*
X010520Y027096D01*
X010782Y026988D01*
X011066Y026988D01*
X011328Y027096D01*
X011529Y027297D01*
X011638Y027560D01*
X011638Y027844D01*
X011529Y028106D01*
X011328Y028307D01*
X011066Y028416D01*
X010782Y028416D01*
X010580Y028332D01*
X010632Y028528D01*
X010632Y028779D01*
X010637Y028840D01*
X010675Y028956D01*
X010747Y029055D01*
X010845Y029127D01*
X010961Y029164D01*
X011022Y029169D01*
X012693Y029169D01*
X012876Y028986D01*
X013133Y028879D01*
X013412Y028879D01*
X013669Y028986D01*
X013866Y029183D01*
X013972Y029440D01*
X013972Y029718D01*
X013866Y029976D01*
X013762Y030079D01*
X013866Y030183D01*
X013972Y030440D01*
X013972Y030718D01*
X015197Y030718D01*
X015226Y030689D02*
X015714Y030689D01*
X016060Y031035D01*
X016060Y031524D01*
X015714Y031869D01*
X015226Y031869D01*
X014880Y031524D01*
X014880Y031035D01*
X015226Y030689D01*
X015039Y030876D02*
X013907Y030876D01*
X013866Y030976D02*
X013669Y031173D01*
X013412Y031279D01*
X013133Y031279D01*
X012876Y031173D01*
X012679Y030976D01*
X012573Y030718D01*
X012638Y030876D02*
X010115Y030876D01*
X010226Y031035D02*
X012738Y031035D01*
X012926Y031193D02*
X010336Y031193D01*
X010507Y031352D02*
X014880Y031352D01*
X014880Y031510D02*
X010691Y031510D01*
X010971Y031669D02*
X012863Y031669D01*
X012705Y031827D02*
X011434Y031827D01*
X012193Y032249D02*
X013273Y032249D01*
X013921Y031986D02*
X016078Y031986D01*
X015788Y032144D02*
X013972Y032144D01*
X013972Y032303D02*
X015629Y032303D01*
X015519Y032461D02*
X013942Y032461D01*
X013877Y032620D02*
X015433Y032620D01*
X015391Y032778D02*
X013791Y032778D01*
X013901Y032937D02*
X015363Y032937D01*
X015363Y033095D02*
X013966Y033095D01*
X013972Y033254D02*
X015384Y033254D01*
X015426Y033412D02*
X013963Y033412D01*
X013897Y033571D02*
X015504Y033571D01*
X015603Y033729D02*
X013782Y033729D01*
X012833Y033799D02*
X012679Y033646D01*
X012573Y033388D01*
X012573Y033110D01*
X012679Y032853D01*
X012783Y032749D01*
X012693Y032659D01*
X012225Y032659D01*
X011947Y032704D01*
X011321Y032662D01*
X010720Y032483D01*
X010174Y032174D01*
X010174Y032174D01*
X009710Y031751D01*
X009710Y031751D01*
X009352Y031236D01*
X009352Y031236D01*
X009117Y030654D01*
X009117Y030654D01*
X009069Y030351D01*
X009054Y030279D01*
X009056Y030271D01*
X009055Y030263D01*
X009071Y030196D01*
X009094Y030032D01*
X009085Y029696D01*
X009001Y029370D01*
X008847Y029071D01*
X008631Y028814D01*
X008362Y028611D01*
X008055Y028473D01*
X007923Y028439D01*
X007238Y028439D01*
X006986Y028459D01*
X006458Y028360D01*
X005974Y028128D01*
X005566Y027778D01*
X005263Y027335D01*
X005084Y026828D01*
X005069Y026626D01*
X005063Y026611D01*
X005063Y026545D01*
X005057Y026479D01*
X005063Y026464D01*
X005063Y020769D01*
X004554Y021277D01*
X004526Y021346D01*
X004422Y021449D01*
X004526Y021553D01*
X004632Y021810D01*
X004632Y022088D01*
X004526Y022346D01*
X004329Y022543D01*
X004072Y022649D01*
X003793Y022649D01*
X003536Y022543D01*
X003339Y022346D01*
X003233Y022088D01*
X003233Y021810D01*
X003339Y021553D01*
X003443Y021449D01*
X003339Y021346D01*
X003233Y021088D01*
X003233Y020810D01*
X003339Y020553D01*
X003443Y020449D01*
X003339Y020346D01*
X003233Y020088D01*
X003233Y019810D01*
X003339Y019553D01*
X003536Y019356D01*
X003793Y019249D01*
X004072Y019249D01*
X004313Y019349D01*
X004313Y018279D01*
X004060Y018279D01*
X003819Y018179D01*
X003635Y017995D01*
X003602Y017916D01*
X003575Y017953D01*
X003519Y018009D01*
X003455Y018056D01*
X003384Y018092D01*
X003308Y018117D01*
X003230Y018129D01*
X003190Y018129D01*
X003150Y018129D01*
X003072Y018117D01*
X002996Y018092D01*
X002925Y018056D01*
X002861Y018009D01*
X002805Y017953D01*
X002758Y017889D01*
X002722Y017818D01*
X002702Y017758D01*
X002702Y027257D01*
X002754Y027219D01*
X002834Y027179D01*
X002918Y027152D01*
X003002Y027138D01*
X003002Y027654D01*
X003098Y027654D01*
X003098Y027750D01*
X003002Y027750D01*
X003002Y028265D01*
X002918Y028252D01*
X002834Y028224D01*
X002754Y028184D01*
X002702Y028146D01*
X002702Y032229D01*
X002791Y032141D01*
X003044Y031995D01*
X003326Y031919D01*
X003619Y031919D01*
X003901Y031995D01*
X004154Y032141D01*
X004361Y032348D01*
X004507Y032601D01*
X004582Y032883D01*
X004582Y033175D01*
X004507Y033458D01*
X004361Y033711D01*
X004272Y033799D01*
X008190Y033799D01*
X008126Y033773D01*
X007929Y033576D01*
X007823Y033318D01*
X007823Y033040D01*
X007929Y032783D01*
X008126Y032586D01*
X008383Y032479D01*
X008662Y032479D01*
X008919Y032586D01*
X009116Y032783D01*
X009123Y032801D01*
X009164Y032760D01*
X009234Y032709D01*
X009311Y032669D01*
X009394Y032643D01*
X009479Y032629D01*
X009502Y032629D01*
X009502Y033159D01*
X009543Y033159D01*
X009543Y032629D01*
X009566Y032629D01*
X009651Y032643D01*
X009734Y032669D01*
X009811Y032709D01*
X009881Y032760D01*
X009922Y032801D01*
X009929Y032783D01*
X010126Y032586D01*
X010383Y032479D01*
X010662Y032479D01*
X010919Y032586D01*
X011116Y032783D01*
X011222Y033040D01*
X011222Y033318D01*
X011116Y033576D01*
X010919Y033773D01*
X010855Y033799D01*
X012833Y033799D01*
X012763Y033729D02*
X010962Y033729D01*
X011118Y033571D02*
X012648Y033571D01*
X012582Y033412D02*
X011184Y033412D01*
X011222Y033254D02*
X012573Y033254D01*
X012579Y033095D02*
X011222Y033095D01*
X011180Y032937D02*
X012644Y032937D01*
X012754Y032778D02*
X011111Y032778D01*
X011179Y032620D02*
X010953Y032620D01*
X010720Y032483D02*
X010720Y032483D01*
X010682Y032461D02*
X004426Y032461D01*
X004512Y032620D02*
X008092Y032620D01*
X007934Y032778D02*
X004554Y032778D01*
X004582Y032937D02*
X007865Y032937D01*
X007823Y033095D02*
X004582Y033095D01*
X004561Y033254D02*
X007823Y033254D01*
X007861Y033412D02*
X004519Y033412D01*
X004441Y033571D02*
X007927Y033571D01*
X008083Y033729D02*
X004342Y033729D01*
X004316Y032303D02*
X010402Y032303D01*
X010141Y032144D02*
X004157Y032144D01*
X003867Y031986D02*
X009967Y031986D01*
X009793Y031827D02*
X002702Y031827D01*
X002702Y031669D02*
X009653Y031669D01*
X009710Y031751D02*
X009710Y031751D01*
X009542Y031510D02*
X002702Y031510D01*
X002702Y031352D02*
X009432Y031352D01*
X009335Y031193D02*
X002702Y031193D01*
X002702Y031035D02*
X009271Y031035D01*
X009207Y030876D02*
X002702Y030876D01*
X002702Y030718D02*
X009143Y030718D01*
X009102Y030559D02*
X002702Y030559D01*
X002702Y030401D02*
X009077Y030401D01*
X009060Y030242D02*
X002702Y030242D01*
X002702Y030084D02*
X009087Y030084D01*
X009091Y029925D02*
X002702Y029925D01*
X002702Y029767D02*
X009087Y029767D01*
X009063Y029608D02*
X002702Y029608D01*
X002702Y029450D02*
X009022Y029450D01*
X008961Y029291D02*
X002702Y029291D01*
X002702Y029133D02*
X008879Y029133D01*
X008766Y028974D02*
X002702Y028974D01*
X002702Y028816D02*
X008632Y028816D01*
X008723Y027279D02*
X008799Y027281D01*
X008875Y027287D01*
X008950Y027296D01*
X009025Y027310D01*
X009099Y027327D01*
X009172Y027348D01*
X009244Y027372D01*
X009315Y027401D01*
X009384Y027432D01*
X009451Y027467D01*
X009516Y027506D01*
X009580Y027548D01*
X009641Y027593D01*
X009700Y027641D01*
X009756Y027692D01*
X009810Y027746D01*
X009861Y027802D01*
X009909Y027861D01*
X009954Y027922D01*
X009996Y027986D01*
X010035Y028051D01*
X010070Y028118D01*
X010101Y028187D01*
X010130Y028258D01*
X010154Y028330D01*
X010175Y028403D01*
X010192Y028477D01*
X010206Y028552D01*
X010215Y028627D01*
X010221Y028703D01*
X010223Y028779D01*
X010635Y028816D02*
X015172Y028816D01*
X015014Y028657D02*
X010632Y028657D01*
X010625Y028499D02*
X012872Y028499D01*
X012714Y028340D02*
X011248Y028340D01*
X011454Y028182D02*
X012628Y028182D01*
X012573Y028023D02*
X011564Y028023D01*
X011629Y027865D02*
X012573Y027865D01*
X012599Y027706D02*
X011638Y027706D01*
X011633Y027548D02*
X012665Y027548D01*
X012763Y027389D02*
X011567Y027389D01*
X011463Y027231D02*
X012608Y027231D01*
X012198Y027072D02*
X011270Y027072D01*
X011512Y026597D02*
X007591Y026597D01*
X007627Y026625D02*
X007947Y026780D01*
X008294Y026859D01*
X008472Y026869D01*
X007896Y026755D02*
X011705Y026755D01*
X011903Y026914D02*
X009140Y026914D01*
X009460Y026999D02*
X009460Y026999D01*
X009586Y027072D02*
X010578Y027072D01*
X010385Y027231D02*
X009860Y027231D01*
X010034Y027389D02*
X010281Y027389D01*
X010215Y027548D02*
X010192Y027548D01*
X010582Y028340D02*
X010600Y028340D01*
X010223Y028779D02*
X010225Y028834D01*
X010230Y028888D01*
X010240Y028942D01*
X010253Y028995D01*
X010269Y029047D01*
X010289Y029098D01*
X010313Y029147D01*
X010339Y029195D01*
X010369Y029240D01*
X010402Y029284D01*
X010438Y029325D01*
X010477Y029364D01*
X010518Y029400D01*
X010562Y029433D01*
X010607Y029463D01*
X010655Y029489D01*
X010704Y029513D01*
X010755Y029533D01*
X010807Y029549D01*
X010860Y029562D01*
X010914Y029572D01*
X010968Y029577D01*
X011023Y029579D01*
X013273Y029579D01*
X013911Y029291D02*
X016408Y029291D01*
X016408Y029133D02*
X013816Y029133D01*
X013641Y028974D02*
X016473Y028974D01*
X016348Y028816D02*
X015768Y028816D01*
X015993Y028279D02*
X015470Y028279D01*
X015050Y027865D02*
X013972Y027865D01*
X013972Y028023D02*
X014892Y028023D01*
X014880Y028182D02*
X013917Y028182D01*
X013831Y028340D02*
X014880Y028340D01*
X014880Y028499D02*
X013673Y028499D01*
X012904Y028974D02*
X010688Y028974D01*
X010864Y029133D02*
X012729Y029133D01*
X012193Y032249D02*
X012098Y032262D01*
X012003Y032272D01*
X011908Y032277D01*
X011812Y032279D01*
X011716Y032277D01*
X011621Y032271D01*
X011526Y032261D01*
X011431Y032247D01*
X011337Y032230D01*
X011244Y032209D01*
X011151Y032184D01*
X011060Y032155D01*
X010970Y032123D01*
X010882Y032087D01*
X010794Y032047D01*
X010709Y032004D01*
X010625Y031958D01*
X010544Y031908D01*
X010464Y031855D01*
X010386Y031799D01*
X010311Y031740D01*
X010239Y031678D01*
X010168Y031613D01*
X010101Y031545D01*
X010036Y031474D01*
X009975Y031401D01*
X009916Y031326D01*
X009860Y031248D01*
X009807Y031168D01*
X009758Y031086D01*
X009712Y031002D01*
X009670Y030917D01*
X009631Y030829D01*
X009595Y030741D01*
X009563Y030650D01*
X009535Y030559D01*
X009511Y030467D01*
X009490Y030373D01*
X009473Y030279D01*
X009488Y030194D01*
X009499Y030109D01*
X009506Y030024D01*
X009510Y029938D01*
X009509Y029852D01*
X009505Y029767D01*
X009497Y029681D01*
X009485Y029596D01*
X009469Y029512D01*
X009450Y029428D01*
X009427Y029346D01*
X009400Y029264D01*
X009369Y029184D01*
X009335Y029105D01*
X009298Y029028D01*
X009257Y028953D01*
X009212Y028879D01*
X009165Y028808D01*
X009114Y028739D01*
X009060Y028672D01*
X009003Y028608D01*
X008944Y028546D01*
X008882Y028487D01*
X008817Y028431D01*
X008749Y028377D01*
X008680Y028327D01*
X008608Y028280D01*
X008534Y028237D01*
X008458Y028196D01*
X008381Y028160D01*
X008302Y028126D01*
X008221Y028096D01*
X008140Y028070D01*
X008057Y028048D01*
X007973Y028029D01*
X007223Y028029D01*
X006458Y028360D02*
X006458Y028360D01*
X006417Y028340D02*
X002702Y028340D01*
X002702Y028182D02*
X002751Y028182D01*
X003002Y028182D02*
X003098Y028182D01*
X003098Y028265D02*
X003098Y027750D01*
X003613Y027750D01*
X003600Y027834D01*
X003573Y027918D01*
X003532Y027997D01*
X003480Y028069D01*
X003417Y028132D01*
X003346Y028184D01*
X003266Y028224D01*
X003182Y028252D01*
X003098Y028265D01*
X003098Y028023D02*
X003002Y028023D01*
X003002Y027865D02*
X003098Y027865D01*
X003098Y027706D02*
X005517Y027706D01*
X005566Y027778D02*
X005566Y027778D01*
X005566Y027778D01*
X005667Y027865D02*
X003590Y027865D01*
X003513Y028023D02*
X005852Y028023D01*
X005974Y028128D02*
X005974Y028128D01*
X006087Y028182D02*
X003349Y028182D01*
X003098Y027654D02*
X003613Y027654D01*
X003600Y027570D01*
X003573Y027485D01*
X003532Y027406D01*
X003480Y027334D01*
X003417Y027272D01*
X003346Y027219D01*
X003266Y027179D01*
X003182Y027152D01*
X003098Y027138D01*
X003098Y027654D01*
X003098Y027548D02*
X003002Y027548D01*
X003002Y027389D02*
X003098Y027389D01*
X003098Y027231D02*
X003002Y027231D01*
X002739Y027231D02*
X002702Y027231D01*
X002702Y027072D02*
X005170Y027072D01*
X005114Y026914D02*
X002702Y026914D01*
X002702Y026755D02*
X005079Y026755D01*
X005084Y026828D02*
X005084Y026828D01*
X005063Y026597D02*
X002702Y026597D01*
X002702Y026438D02*
X005063Y026438D01*
X005063Y026280D02*
X002702Y026280D01*
X002702Y026121D02*
X005063Y026121D01*
X005063Y025963D02*
X002702Y025963D01*
X002702Y025804D02*
X005063Y025804D01*
X005063Y025646D02*
X002702Y025646D01*
X002702Y025487D02*
X005063Y025487D01*
X005063Y025329D02*
X002702Y025329D01*
X002702Y025170D02*
X005063Y025170D01*
X005063Y025012D02*
X002702Y025012D01*
X002702Y024853D02*
X005063Y024853D01*
X005063Y024695D02*
X002702Y024695D01*
X002702Y024536D02*
X005063Y024536D01*
X005063Y024378D02*
X002702Y024378D01*
X002702Y024219D02*
X005063Y024219D01*
X005063Y024061D02*
X002702Y024061D01*
X002702Y023902D02*
X005063Y023902D01*
X005063Y023744D02*
X002702Y023744D01*
X002702Y023585D02*
X005063Y023585D01*
X005063Y023427D02*
X002702Y023427D01*
X002702Y023268D02*
X005063Y023268D01*
X005063Y023110D02*
X002702Y023110D01*
X002702Y022951D02*
X005063Y022951D01*
X005063Y022793D02*
X002702Y022793D01*
X002702Y022634D02*
X003757Y022634D01*
X003469Y022476D02*
X002702Y022476D01*
X002702Y022317D02*
X003327Y022317D01*
X003262Y022159D02*
X002702Y022159D01*
X002702Y022000D02*
X003233Y022000D01*
X003233Y021842D02*
X002702Y021842D01*
X002702Y021683D02*
X003285Y021683D01*
X003367Y021525D02*
X002702Y021525D01*
X002702Y021366D02*
X003360Y021366D01*
X003282Y021208D02*
X002702Y021208D01*
X002702Y021049D02*
X003233Y021049D01*
X003233Y020891D02*
X002702Y020891D01*
X002702Y020732D02*
X003265Y020732D01*
X003330Y020574D02*
X002702Y020574D01*
X002702Y020415D02*
X003409Y020415D01*
X003302Y020257D02*
X002702Y020257D01*
X002702Y020098D02*
X003237Y020098D01*
X003233Y019940D02*
X002702Y019940D01*
X002702Y019781D02*
X003244Y019781D01*
X003310Y019623D02*
X002702Y019623D01*
X002702Y019464D02*
X003428Y019464D01*
X003657Y019306D02*
X002702Y019306D01*
X002702Y019147D02*
X004313Y019147D01*
X004313Y018989D02*
X002702Y018989D01*
X002702Y018830D02*
X004313Y018830D01*
X004313Y018672D02*
X002702Y018672D01*
X002702Y018513D02*
X004313Y018513D01*
X004313Y018355D02*
X002702Y018355D01*
X002702Y018196D02*
X003859Y018196D01*
X003677Y018038D02*
X003480Y018038D01*
X003190Y018038D02*
X003190Y018038D01*
X003190Y018129D02*
X003190Y017624D01*
X003190Y017119D01*
X003230Y017119D01*
X003308Y017132D01*
X003384Y017156D01*
X003455Y017192D01*
X003519Y017239D01*
X003575Y017295D01*
X003602Y017332D01*
X003635Y017253D01*
X003819Y017069D01*
X004060Y016969D01*
X004320Y016969D01*
X004561Y017069D01*
X004745Y017253D01*
X004845Y017494D01*
X004845Y017572D01*
X004955Y017682D01*
X005063Y017789D01*
X005063Y016581D01*
X005055Y016552D01*
X005063Y016500D01*
X005063Y016448D01*
X005074Y016420D01*
X005096Y016268D01*
X005276Y015900D01*
X005561Y015606D01*
X005561Y015606D01*
X005924Y015415D01*
X006328Y015344D01*
X006502Y015369D01*
X006530Y015369D01*
X006542Y015340D01*
X006708Y015174D01*
X006618Y015084D01*
X004772Y015084D01*
X004409Y014966D01*
X004409Y014966D01*
X004100Y014742D01*
X004100Y014742D01*
X004100Y014742D01*
X003911Y014482D01*
X003796Y014434D01*
X003612Y014250D01*
X003580Y014171D01*
X003553Y014208D01*
X003496Y014264D01*
X003432Y014311D01*
X003361Y014347D01*
X003286Y014372D01*
X003207Y014384D01*
X003168Y014384D01*
X003168Y013879D01*
X003168Y013374D01*
X003207Y013374D01*
X003286Y013387D01*
X003361Y013411D01*
X003432Y013447D01*
X003496Y013494D01*
X003553Y013550D01*
X003580Y013587D01*
X003612Y013508D01*
X003796Y013324D01*
X004037Y013224D01*
X004298Y013224D01*
X004539Y013324D01*
X004723Y013508D01*
X004822Y013749D01*
X004822Y014009D01*
X004747Y014192D01*
X004788Y014222D01*
X004902Y014259D01*
X004962Y014264D01*
X006618Y014264D01*
X006708Y014174D01*
X006906Y014092D01*
X006874Y014082D01*
X006812Y014050D01*
X006756Y014010D01*
X006707Y013961D01*
X006666Y013905D01*
X006635Y013843D01*
X006613Y013777D01*
X006603Y013709D01*
X006603Y013674D01*
X006603Y013640D01*
X006613Y013571D01*
X006635Y013505D01*
X006666Y013444D01*
X006707Y013388D01*
X006756Y013339D01*
X006812Y013298D01*
X006874Y013266D01*
X006906Y013256D01*
X006708Y013174D01*
X006618Y013084D01*
X006116Y013084D01*
X005687Y012969D01*
X005303Y012747D01*
X004989Y012434D01*
X004989Y012434D01*
X004989Y012434D01*
X004776Y012064D01*
X003614Y012064D01*
X003469Y012209D01*
X003228Y012309D01*
X002967Y012309D01*
X002726Y012209D01*
X002702Y012185D01*
X002702Y013679D01*
X002736Y013614D01*
X002782Y013550D01*
X002839Y013494D01*
X002903Y013447D01*
X002974Y013411D01*
X003049Y013387D01*
X003128Y013374D01*
X003167Y013374D01*
X003167Y013879D01*
X003168Y013879D01*
X003167Y013879D01*
X003167Y014384D01*
X003128Y014384D01*
X003049Y014372D01*
X002974Y014347D01*
X002903Y014311D01*
X002839Y014264D01*
X002782Y014208D01*
X002736Y014144D01*
X002702Y014079D01*
X002702Y015557D01*
X002733Y015497D01*
X002780Y015433D01*
X002836Y015376D01*
X002900Y015330D01*
X002971Y015294D01*
X003047Y015269D01*
X003125Y015257D01*
X003165Y015257D01*
X003205Y015257D01*
X003283Y015269D01*
X003359Y015294D01*
X003430Y015330D01*
X003494Y015376D01*
X003550Y015433D01*
X003577Y015470D01*
X003610Y015391D01*
X003794Y015206D01*
X004035Y015107D01*
X004295Y015107D01*
X004536Y015206D01*
X004720Y015391D01*
X004820Y015631D01*
X004820Y015892D01*
X004720Y016133D01*
X004536Y016317D01*
X004295Y016417D01*
X004035Y016417D01*
X003794Y016317D01*
X003610Y016133D01*
X003577Y016054D01*
X003550Y016091D01*
X003494Y016147D01*
X003430Y016194D01*
X003359Y016230D01*
X003283Y016254D01*
X003205Y016267D01*
X003165Y016267D01*
X003125Y016267D01*
X003047Y016254D01*
X002971Y016230D01*
X002900Y016194D01*
X002836Y016147D01*
X002780Y016091D01*
X002733Y016026D01*
X002702Y015966D01*
X002702Y017490D01*
X002722Y017430D01*
X002758Y017359D01*
X002805Y017295D01*
X002861Y017239D01*
X002925Y017192D01*
X002996Y017156D01*
X003072Y017132D01*
X003150Y017119D01*
X003190Y017119D01*
X003190Y017624D01*
X003190Y017624D01*
X003190Y017624D01*
X003190Y018129D01*
X003190Y017879D02*
X003190Y017879D01*
X003190Y017721D02*
X003190Y017721D01*
X003190Y017562D02*
X003190Y017562D01*
X003190Y017404D02*
X003190Y017404D01*
X003190Y017245D02*
X003190Y017245D01*
X003525Y017245D02*
X003643Y017245D01*
X003801Y017087D02*
X002702Y017087D01*
X002702Y017245D02*
X002855Y017245D01*
X002736Y017404D02*
X002702Y017404D01*
X002702Y016928D02*
X005063Y016928D01*
X005063Y016770D02*
X002702Y016770D01*
X002702Y016611D02*
X005063Y016611D01*
X005063Y016453D02*
X002702Y016453D01*
X002702Y016294D02*
X003771Y016294D01*
X003613Y016136D02*
X003505Y016136D01*
X003165Y016136D02*
X003165Y016136D01*
X003165Y016267D02*
X003165Y015762D01*
X003165Y015762D01*
X003165Y016267D01*
X003165Y015977D02*
X003165Y015977D01*
X003165Y015819D02*
X003165Y015819D01*
X003165Y015762D02*
X003165Y015257D01*
X003165Y015762D01*
X003165Y015762D01*
X003165Y015660D02*
X003165Y015660D01*
X003165Y015502D02*
X003165Y015502D01*
X003165Y015343D02*
X003165Y015343D01*
X003448Y015343D02*
X003657Y015343D01*
X003846Y015185D02*
X002702Y015185D01*
X002702Y015343D02*
X002882Y015343D01*
X002731Y015502D02*
X002702Y015502D01*
X002702Y015026D02*
X004593Y015026D01*
X004484Y015185D02*
X006698Y015185D01*
X006541Y015343D02*
X004673Y015343D01*
X004766Y015502D02*
X005759Y015502D01*
X005924Y015415D02*
X005924Y015415D01*
X006328Y015344D02*
X006328Y015344D01*
X006473Y015779D02*
X007198Y015779D01*
X007216Y015777D01*
X007234Y015773D01*
X007251Y015765D01*
X007265Y015754D01*
X007278Y015741D01*
X007289Y015727D01*
X007297Y015710D01*
X007301Y015692D01*
X007303Y015674D01*
X007223Y016529D02*
X007303Y016674D01*
X007301Y016692D01*
X007297Y016710D01*
X007289Y016727D01*
X007278Y016741D01*
X007265Y016754D01*
X007251Y016765D01*
X007234Y016773D01*
X007216Y016777D01*
X007198Y016779D01*
X006723Y016779D01*
X006473Y015779D02*
X006416Y015773D01*
X006358Y015770D01*
X006300Y015771D01*
X006242Y015776D01*
X006185Y015785D01*
X006129Y015798D01*
X006073Y015814D01*
X006019Y015834D01*
X005966Y015857D01*
X005914Y015884D01*
X005865Y015914D01*
X005818Y015947D01*
X005772Y015983D01*
X005730Y016022D01*
X005690Y016064D01*
X005653Y016108D01*
X005618Y016155D01*
X005587Y016204D01*
X005560Y016254D01*
X005535Y016307D01*
X005514Y016361D01*
X005497Y016416D01*
X005483Y016472D01*
X005473Y016529D01*
X005473Y026529D01*
X005973Y026529D02*
X005973Y017529D01*
X005975Y017475D01*
X005981Y017422D01*
X005990Y017370D01*
X006003Y017318D01*
X006020Y017267D01*
X006041Y017217D01*
X006065Y017170D01*
X006092Y017124D01*
X006123Y017080D01*
X006156Y017038D01*
X006193Y016999D01*
X006232Y016962D01*
X006274Y016929D01*
X006318Y016898D01*
X006364Y016871D01*
X006411Y016847D01*
X006461Y016826D01*
X006512Y016809D01*
X006564Y016796D01*
X006616Y016787D01*
X006669Y016781D01*
X006723Y016779D01*
X005509Y015660D02*
X004820Y015660D01*
X004820Y015819D02*
X005355Y015819D01*
X005276Y015900D02*
X005276Y015900D01*
X005238Y015977D02*
X004785Y015977D01*
X004717Y016136D02*
X005161Y016136D01*
X005096Y016268D02*
X005096Y016268D01*
X005092Y016294D02*
X004559Y016294D01*
X004579Y017087D02*
X005063Y017087D01*
X005063Y017245D02*
X004737Y017245D01*
X004808Y017404D02*
X005063Y017404D01*
X005063Y017562D02*
X004845Y017562D01*
X004994Y017721D02*
X005063Y017721D01*
X004723Y018029D02*
X004723Y020529D01*
X004223Y021029D01*
X003933Y020949D01*
X004505Y021366D02*
X005063Y021366D01*
X005063Y021208D02*
X004624Y021208D01*
X004782Y021049D02*
X005063Y021049D01*
X005063Y020891D02*
X004941Y020891D01*
X005063Y021525D02*
X004498Y021525D01*
X004580Y021683D02*
X005063Y021683D01*
X005063Y021842D02*
X004632Y021842D01*
X004632Y022000D02*
X005063Y022000D01*
X005063Y022159D02*
X004603Y022159D01*
X004538Y022317D02*
X005063Y022317D01*
X005063Y022476D02*
X004396Y022476D01*
X004108Y022634D02*
X005063Y022634D01*
X006882Y023299D02*
X006882Y025279D01*
X006892Y025457D01*
X006972Y025804D01*
X010997Y025804D01*
X010929Y025646D02*
X006936Y025646D01*
X006972Y025804D02*
X007126Y026125D01*
X007348Y026403D01*
X007627Y026625D01*
X007392Y026438D02*
X011385Y026438D01*
X011259Y026280D02*
X007250Y026280D01*
X007223Y028029D02*
X007143Y028033D01*
X007063Y028034D01*
X006983Y028030D01*
X006904Y028022D01*
X006824Y028011D01*
X006746Y027996D01*
X006668Y027976D01*
X006592Y027953D01*
X006516Y027927D01*
X006442Y027896D01*
X006370Y027862D01*
X006299Y027825D01*
X006230Y027784D01*
X006164Y027740D01*
X006099Y027692D01*
X006037Y027642D01*
X005978Y027588D01*
X005921Y027532D01*
X005867Y027473D01*
X005816Y027411D01*
X005768Y027347D01*
X005724Y027280D01*
X005682Y027212D01*
X005644Y027141D01*
X005610Y027069D01*
X005579Y026995D01*
X005552Y026920D01*
X005528Y026844D01*
X005509Y026766D01*
X005493Y026688D01*
X005481Y026609D01*
X005473Y026529D01*
X005226Y027231D02*
X003361Y027231D01*
X003520Y027389D02*
X005300Y027389D01*
X005263Y027335D02*
X005263Y027335D01*
X005408Y027548D02*
X003593Y027548D01*
X002702Y028499D02*
X008111Y028499D01*
X008423Y028657D02*
X002702Y028657D01*
X002702Y031986D02*
X003078Y031986D01*
X002788Y032144D02*
X002702Y032144D01*
X008953Y032620D02*
X010092Y032620D01*
X009934Y032778D02*
X009899Y032778D01*
X009543Y032778D02*
X009502Y032778D01*
X009502Y032937D02*
X009543Y032937D01*
X009543Y033095D02*
X009502Y033095D01*
X009502Y033199D02*
X009502Y033729D01*
X009479Y033729D01*
X009394Y033716D01*
X009311Y033689D01*
X009234Y033650D01*
X009164Y033599D01*
X009123Y033558D01*
X009116Y033576D01*
X008919Y033773D01*
X008855Y033799D01*
X010190Y033799D01*
X010126Y033773D01*
X009929Y033576D01*
X009922Y033558D01*
X009881Y033599D01*
X009811Y033650D01*
X009734Y033689D01*
X009651Y033716D01*
X009566Y033729D01*
X009543Y033729D01*
X009543Y033199D01*
X009502Y033199D01*
X009502Y033254D02*
X009543Y033254D01*
X009543Y033412D02*
X009502Y033412D01*
X009502Y033571D02*
X009543Y033571D01*
X009909Y033571D02*
X009927Y033571D01*
X010083Y033729D02*
X008962Y033729D01*
X009118Y033571D02*
X009136Y033571D01*
X009111Y032778D02*
X009146Y032778D01*
X011321Y032662D02*
X011321Y032662D01*
X011947Y032704D02*
X011947Y032704D01*
X013682Y031669D02*
X015025Y031669D01*
X015184Y031827D02*
X013840Y031827D01*
X013619Y031193D02*
X014880Y031193D01*
X014880Y031035D02*
X013807Y031035D01*
X013866Y030976D02*
X013972Y030718D01*
X013972Y030559D02*
X017293Y030559D01*
X017293Y030401D02*
X013956Y030401D01*
X013891Y030242D02*
X017293Y030242D01*
X017293Y030084D02*
X013767Y030084D01*
X013887Y029925D02*
X017293Y029925D01*
X016646Y029767D02*
X013952Y029767D01*
X013972Y029608D02*
X016487Y029608D01*
X016408Y029450D02*
X013972Y029450D01*
X015993Y028279D02*
X016054Y028281D01*
X016114Y028286D01*
X016174Y028295D01*
X016234Y028308D01*
X016292Y028325D01*
X016349Y028344D01*
X016405Y028368D01*
X016460Y028394D01*
X016513Y028424D01*
X016564Y028457D01*
X016613Y028493D01*
X016659Y028532D01*
X016704Y028573D01*
X016745Y028618D01*
X016784Y028664D01*
X016820Y028713D01*
X016853Y028764D01*
X016883Y028817D01*
X016909Y028872D01*
X016933Y028928D01*
X016952Y028985D01*
X016969Y029043D01*
X016982Y029103D01*
X016991Y029163D01*
X016996Y029223D01*
X016998Y029284D01*
X017293Y030718D02*
X015743Y030718D01*
X015901Y030876D02*
X017293Y030876D01*
X017293Y031035D02*
X016060Y031035D01*
X016060Y031193D02*
X017293Y031193D01*
X017293Y031352D02*
X016060Y031352D01*
X016060Y031510D02*
X017293Y031510D01*
X017293Y031669D02*
X015915Y031669D01*
X015756Y031827D02*
X017293Y031827D01*
X017293Y031986D02*
X016867Y031986D01*
X017157Y032144D02*
X017293Y032144D01*
X015758Y027706D02*
X015731Y027706D01*
X015756Y027548D02*
X015811Y027548D01*
X016223Y027527D02*
X016221Y027581D01*
X016215Y027634D01*
X016206Y027687D01*
X016192Y027739D01*
X016176Y027790D01*
X016155Y027840D01*
X016131Y027888D01*
X016103Y027934D01*
X016073Y027978D01*
X016039Y028020D01*
X016002Y028059D01*
X015963Y028096D01*
X015921Y028130D01*
X015877Y028160D01*
X015831Y028188D01*
X015783Y028212D01*
X015733Y028233D01*
X015682Y028249D01*
X015630Y028263D01*
X015577Y028272D01*
X015524Y028278D01*
X015470Y028280D01*
X015209Y027706D02*
X013946Y027706D01*
X013880Y027548D02*
X015179Y027548D01*
X015021Y027389D02*
X013782Y027389D01*
X013897Y027231D02*
X014878Y027231D01*
X014878Y027072D02*
X013963Y027072D01*
X013972Y026914D02*
X014878Y026914D01*
X014880Y026755D02*
X013966Y026755D01*
X013901Y026597D02*
X015038Y026597D01*
X015197Y026438D02*
X013791Y026438D01*
X013582Y026280D02*
X015813Y026280D01*
X015813Y026438D02*
X015738Y026438D01*
X015813Y026121D02*
X012241Y026121D01*
X012068Y025963D02*
X015813Y025963D01*
X015813Y025804D02*
X013697Y025804D01*
X013856Y025646D02*
X015813Y025646D01*
X015851Y025487D02*
X013927Y025487D01*
X013972Y025329D02*
X015898Y025329D01*
X015624Y025170D02*
X013972Y025170D01*
X013936Y025012D02*
X015464Y025012D01*
X015324Y024853D02*
X013870Y024853D01*
X013807Y024695D02*
X015232Y024695D01*
X015149Y024536D02*
X013907Y024536D01*
X013972Y024378D02*
X013972Y024100D01*
X013866Y023843D01*
X013669Y023646D01*
X013412Y023539D01*
X013133Y023539D01*
X012876Y023646D01*
X012800Y023722D01*
X012579Y023594D01*
X012368Y023383D01*
X012219Y023125D01*
X012142Y022838D01*
X012132Y022689D01*
X012132Y021596D01*
X012142Y021610D01*
X012142Y021610D01*
X012142Y021610D01*
X012439Y021826D01*
X012439Y021826D01*
X012649Y021894D01*
X012679Y021966D01*
X012783Y022069D01*
X012679Y022173D01*
X012573Y022430D01*
X012573Y022708D01*
X012679Y022966D01*
X012876Y023163D01*
X013133Y023269D01*
X013412Y023269D01*
X013669Y023163D01*
X013866Y022966D01*
X013972Y022708D01*
X013972Y022430D01*
X013866Y022173D01*
X013762Y022069D01*
X013866Y021966D01*
X013972Y021708D01*
X013972Y021430D01*
X013866Y021173D01*
X013669Y020976D01*
X013412Y020869D01*
X013133Y020869D01*
X012876Y020976D01*
X012790Y021062D01*
X012732Y021020D01*
X012670Y020934D01*
X012637Y020832D01*
X012637Y020832D01*
X012632Y020779D01*
X012632Y020274D01*
X012586Y020072D01*
X012679Y020296D01*
X012876Y020493D01*
X013133Y020599D01*
X013412Y020599D01*
X013669Y020493D01*
X013866Y020296D01*
X013972Y020038D01*
X013972Y019760D01*
X013866Y019503D01*
X013762Y019399D01*
X013866Y019296D01*
X013972Y019038D01*
X013972Y018760D01*
X013866Y018503D01*
X013669Y018306D01*
X013569Y018264D01*
X013375Y017929D01*
X013412Y017929D01*
X013669Y017823D01*
X013866Y017626D01*
X013972Y017368D01*
X013972Y017090D01*
X013866Y016833D01*
X013762Y016729D01*
X013866Y016626D01*
X013972Y016368D01*
X013972Y016090D01*
X013866Y015833D01*
X013669Y015636D01*
X013412Y015529D01*
X013133Y015529D01*
X012876Y015636D01*
X012693Y015819D01*
X012015Y015819D01*
X012693Y015819D01*
X012852Y015660D02*
X012233Y015660D01*
X012303Y015610D02*
X012015Y015819D01*
X012303Y015610D02*
X012303Y015610D01*
X012303Y015610D01*
X012519Y015312D01*
X012519Y015312D01*
X012632Y014963D01*
X012632Y014843D01*
X012679Y014956D01*
X012876Y015153D01*
X013133Y015259D01*
X013412Y015259D01*
X013669Y015153D01*
X013866Y014956D01*
X013972Y014698D01*
X013972Y014420D01*
X013866Y014163D01*
X013762Y014059D01*
X013866Y013956D01*
X013972Y013698D01*
X013972Y013420D01*
X013877Y013189D01*
X013988Y013189D01*
X014132Y013199D01*
X014410Y013273D01*
X014660Y013417D01*
X014660Y013417D01*
X014864Y013621D01*
X015008Y013871D01*
X015026Y013936D01*
X014913Y014050D01*
X014913Y014539D01*
X015258Y014884D01*
X015747Y014884D01*
X015860Y014771D01*
X015926Y014788D01*
X016177Y014933D01*
X016381Y015137D01*
X016526Y015388D01*
X016601Y015667D01*
X016610Y015812D01*
X016610Y016112D01*
X016534Y016188D01*
X016265Y016260D01*
X016265Y016260D01*
X015820Y016517D01*
X015820Y016517D01*
X015456Y016881D01*
X015456Y016881D01*
X015198Y017327D01*
X015198Y017327D01*
X015065Y017824D01*
X015065Y018092D01*
X014885Y018272D01*
X014885Y018761D01*
X015231Y019107D01*
X015719Y019107D01*
X015832Y018994D01*
X015892Y019010D01*
X016139Y019152D01*
X016340Y019353D01*
X016482Y019600D01*
X016556Y019874D01*
X016565Y020017D01*
X016565Y020362D01*
X016486Y020441D01*
X016249Y020505D01*
X016249Y020505D01*
X015821Y020752D01*
X015821Y020752D01*
X015471Y021102D01*
X015471Y021102D01*
X015223Y021531D01*
X015223Y021531D01*
X015095Y022009D01*
X015095Y022367D01*
X014915Y022547D01*
X014915Y023036D01*
X015058Y023179D01*
X015058Y023577D01*
X014878Y023757D01*
X014878Y024246D01*
X014878Y024219D02*
X013972Y024219D01*
X013956Y024061D02*
X014878Y024061D01*
X014878Y023902D02*
X013891Y023902D01*
X013767Y023744D02*
X014891Y023744D01*
X015050Y023585D02*
X013523Y023585D01*
X013414Y023268D02*
X015058Y023268D01*
X015058Y023427D02*
X012412Y023427D01*
X012302Y023268D02*
X013131Y023268D01*
X013022Y023585D02*
X012570Y023585D01*
X012031Y024219D02*
X011632Y024219D01*
X011632Y024061D02*
X011872Y024061D01*
X011714Y023902D02*
X011632Y023902D01*
X011632Y024378D02*
X012277Y024378D01*
X012593Y024536D02*
X011632Y024536D01*
X011632Y024695D02*
X012738Y024695D01*
X012675Y024853D02*
X011632Y024853D01*
X011641Y025012D02*
X012609Y025012D01*
X012573Y025170D02*
X011672Y025170D01*
X011708Y025329D02*
X012573Y025329D01*
X012618Y025487D02*
X011766Y025487D01*
X011842Y025646D02*
X012689Y025646D01*
X012848Y025804D02*
X011942Y025804D01*
X012466Y026280D02*
X012963Y026280D01*
X013273Y026909D02*
X013184Y026907D01*
X013094Y026901D01*
X013005Y026891D01*
X012917Y026878D01*
X012829Y026860D01*
X012742Y026839D01*
X012657Y026814D01*
X012572Y026785D01*
X012488Y026753D01*
X012407Y026717D01*
X012326Y026677D01*
X012248Y026634D01*
X012172Y026588D01*
X012097Y026538D01*
X012025Y026485D01*
X011955Y026429D01*
X011888Y026370D01*
X011823Y026309D01*
X011762Y026244D01*
X011703Y026177D01*
X011647Y026107D01*
X011594Y026035D01*
X011544Y025960D01*
X011498Y025884D01*
X011455Y025806D01*
X011415Y025725D01*
X011379Y025644D01*
X011347Y025560D01*
X011318Y025475D01*
X011293Y025390D01*
X011272Y025303D01*
X011254Y025215D01*
X011241Y025127D01*
X011231Y025038D01*
X011225Y024948D01*
X011223Y024859D01*
X011223Y021279D01*
X010813Y021366D02*
X007622Y021366D01*
X007622Y021264D02*
X007622Y022370D01*
X007802Y022550D01*
X007802Y023039D01*
X007457Y023384D01*
X006968Y023384D01*
X006882Y023299D01*
X006882Y023427D02*
X010813Y023427D01*
X010813Y023585D02*
X006882Y023585D01*
X006882Y023744D02*
X010813Y023744D01*
X010813Y023902D02*
X006882Y023902D01*
X006882Y024061D02*
X010813Y024061D01*
X010813Y024219D02*
X006882Y024219D01*
X006882Y024378D02*
X010813Y024378D01*
X010813Y024536D02*
X006882Y024536D01*
X006882Y024695D02*
X010813Y024695D01*
X010813Y024853D02*
X006882Y024853D01*
X006882Y025012D02*
X010813Y025012D01*
X010820Y025170D02*
X006882Y025170D01*
X006885Y025329D02*
X010856Y025329D01*
X010893Y025487D02*
X006899Y025487D01*
X006892Y025457D02*
X006892Y025457D01*
X006473Y025279D02*
X006473Y018504D01*
X006475Y018447D01*
X006481Y018391D01*
X006490Y018335D01*
X006504Y018280D01*
X006521Y018226D01*
X006542Y018173D01*
X006566Y018122D01*
X006594Y018073D01*
X006625Y018025D01*
X006659Y017980D01*
X006696Y017937D01*
X006736Y017897D01*
X006779Y017860D01*
X006824Y017826D01*
X006872Y017795D01*
X006921Y017767D01*
X006972Y017743D01*
X007025Y017722D01*
X007079Y017705D01*
X007134Y017691D01*
X007190Y017682D01*
X007246Y017676D01*
X007303Y017674D01*
X008223Y018754D02*
X008221Y018812D01*
X008216Y018869D01*
X008207Y018926D01*
X008194Y018983D01*
X008178Y019038D01*
X008158Y019093D01*
X008135Y019146D01*
X008109Y019197D01*
X008080Y019247D01*
X008047Y019295D01*
X008012Y019340D01*
X007974Y019384D01*
X007933Y019425D01*
X007889Y019463D01*
X007844Y019498D01*
X007796Y019531D01*
X007746Y019560D01*
X007695Y019586D01*
X007642Y019609D01*
X007587Y019629D01*
X007532Y019645D01*
X007475Y019658D01*
X007418Y019667D01*
X007361Y019672D01*
X007303Y019674D01*
X007578Y020674D02*
X007645Y020672D01*
X007711Y020666D01*
X007777Y020657D01*
X007842Y020643D01*
X007906Y020626D01*
X007970Y020605D01*
X008032Y020580D01*
X008092Y020552D01*
X008151Y020521D01*
X008207Y020486D01*
X008262Y020447D01*
X008314Y020406D01*
X008364Y020362D01*
X008411Y020315D01*
X008455Y020265D01*
X008496Y020213D01*
X008535Y020158D01*
X008570Y020102D01*
X008601Y020043D01*
X008629Y019983D01*
X008654Y019921D01*
X008675Y019857D01*
X008692Y019793D01*
X008706Y019728D01*
X008715Y019662D01*
X008721Y019596D01*
X008723Y019529D01*
X009132Y019623D02*
X009453Y019623D01*
X009453Y019557D02*
X009542Y019340D01*
X009708Y019174D01*
X009542Y019008D01*
X009453Y018792D01*
X009453Y018557D01*
X009542Y018340D01*
X009708Y018174D01*
X009542Y018008D01*
X009453Y017792D01*
X009453Y017557D01*
X009542Y017340D01*
X009708Y017174D01*
X009542Y017008D01*
X009453Y016792D01*
X009453Y016557D01*
X009542Y016340D01*
X009708Y016174D01*
X009542Y016008D01*
X009453Y015792D01*
X009453Y015557D01*
X009542Y015340D01*
X009708Y015174D01*
X009906Y015092D01*
X009874Y015082D01*
X009812Y015050D01*
X009756Y015010D01*
X009707Y014961D01*
X009666Y014905D01*
X009635Y014843D01*
X009613Y014777D01*
X009603Y014709D01*
X009132Y014709D01*
X009132Y014551D02*
X009620Y014551D01*
X009613Y014571D02*
X009635Y014505D01*
X009666Y014444D01*
X009707Y014388D01*
X009756Y014339D01*
X009812Y014298D01*
X009874Y014266D01*
X009906Y014256D01*
X009708Y014174D01*
X009542Y014008D01*
X009453Y013792D01*
X009453Y013557D01*
X009542Y013340D01*
X009708Y013174D01*
X009542Y013008D01*
X009453Y012792D01*
X009453Y012557D01*
X009542Y012340D01*
X009708Y012174D01*
X009618Y012084D01*
X009457Y012084D01*
X009162Y011962D01*
X009162Y011962D01*
X009132Y011933D01*
X009132Y019734D01*
X009027Y020129D01*
X008822Y020484D01*
X008532Y020773D01*
X008178Y020978D01*
X008062Y021009D01*
X007897Y021174D01*
X007680Y021264D01*
X007622Y021264D01*
X007816Y021208D02*
X009789Y021208D01*
X009583Y021049D02*
X008022Y021049D01*
X008329Y020891D02*
X009494Y020891D01*
X009453Y020732D02*
X008574Y020732D01*
X008532Y020773D02*
X008532Y020773D01*
X008732Y020574D02*
X009453Y020574D01*
X009511Y020415D02*
X008862Y020415D01*
X008822Y020484D02*
X008822Y020484D01*
X008953Y020257D02*
X009626Y020257D01*
X009632Y020098D02*
X009035Y020098D01*
X009027Y020129D02*
X009027Y020129D01*
X009077Y019940D02*
X009514Y019940D01*
X009453Y019781D02*
X009120Y019781D01*
X009132Y019306D02*
X009577Y019306D01*
X009681Y019147D02*
X009132Y019147D01*
X009132Y018989D02*
X009534Y018989D01*
X009469Y018830D02*
X009132Y018830D01*
X009132Y018672D02*
X009453Y018672D01*
X009471Y018513D02*
X009132Y018513D01*
X009132Y018355D02*
X009536Y018355D01*
X009686Y018196D02*
X009132Y018196D01*
X009132Y018038D02*
X009572Y018038D01*
X009489Y017879D02*
X009132Y017879D01*
X009132Y017721D02*
X009453Y017721D01*
X009453Y017562D02*
X009132Y017562D01*
X009132Y017404D02*
X009516Y017404D01*
X009637Y017245D02*
X009132Y017245D01*
X009132Y017087D02*
X009621Y017087D01*
X009509Y016928D02*
X009132Y016928D01*
X009132Y016770D02*
X009453Y016770D01*
X009453Y016611D02*
X009132Y016611D01*
X009132Y016453D02*
X009496Y016453D01*
X009588Y016294D02*
X009132Y016294D01*
X009132Y016136D02*
X009670Y016136D01*
X009529Y015977D02*
X009132Y015977D01*
X009132Y015819D02*
X009464Y015819D01*
X009453Y015660D02*
X009132Y015660D01*
X009132Y015502D02*
X009475Y015502D01*
X009541Y015343D02*
X009132Y015343D01*
X009132Y015185D02*
X009698Y015185D01*
X009778Y015026D02*
X009132Y015026D01*
X009132Y014868D02*
X009647Y014868D01*
X009603Y014709D02*
X009603Y014674D01*
X009603Y014640D01*
X009613Y014571D01*
X009603Y014674D02*
X010302Y014674D01*
X010302Y014674D01*
X009603Y014674D01*
X009703Y014392D02*
X009132Y014392D01*
X009132Y014234D02*
X009852Y014234D01*
X009609Y014075D02*
X009132Y014075D01*
X009132Y013917D02*
X009504Y013917D01*
X009453Y013758D02*
X009132Y013758D01*
X009132Y013600D02*
X009453Y013600D01*
X009500Y013441D02*
X009132Y013441D01*
X009132Y013283D02*
X009600Y013283D01*
X009658Y013124D02*
X009132Y013124D01*
X009132Y012966D02*
X009525Y012966D01*
X009459Y012807D02*
X009132Y012807D01*
X009132Y012649D02*
X009453Y012649D01*
X009480Y012490D02*
X009132Y012490D01*
X009132Y012332D02*
X009551Y012332D01*
X009707Y012173D02*
X009132Y012173D01*
X009132Y012015D02*
X009290Y012015D01*
X009618Y011674D02*
X010303Y011674D01*
X009618Y011674D02*
X009579Y011672D01*
X009541Y011666D01*
X009503Y011657D01*
X009467Y011644D01*
X009432Y011627D01*
X009399Y011607D01*
X009367Y011584D01*
X009339Y011558D01*
X009313Y011530D01*
X009290Y011498D01*
X009270Y011465D01*
X009253Y011430D01*
X009240Y011394D01*
X009231Y011356D01*
X009225Y011318D01*
X009223Y011279D01*
X009223Y005779D01*
X009863Y004689D01*
X009862Y003689D02*
X009864Y003634D01*
X009870Y003579D01*
X009879Y003525D01*
X009892Y003471D01*
X009909Y003418D01*
X009929Y003367D01*
X009953Y003317D01*
X009980Y003269D01*
X010010Y003223D01*
X010043Y003179D01*
X010079Y003137D01*
X010118Y003098D01*
X010160Y003062D01*
X010204Y003029D01*
X010250Y002999D01*
X010298Y002972D01*
X010348Y002948D01*
X010399Y002928D01*
X010452Y002911D01*
X010506Y002898D01*
X010560Y002889D01*
X010615Y002883D01*
X010670Y002881D01*
X011600Y003579D02*
X011600Y005402D01*
X011601Y005402D02*
X011599Y005422D01*
X011595Y005442D01*
X011587Y005460D01*
X011577Y005477D01*
X011564Y005493D01*
X011548Y005506D01*
X011531Y005516D01*
X011513Y005524D01*
X011493Y005528D01*
X011473Y005530D01*
X011473Y006029D02*
X011517Y006027D01*
X011560Y006021D01*
X011602Y006012D01*
X011644Y005999D01*
X011684Y005982D01*
X011723Y005962D01*
X011760Y005939D01*
X011794Y005912D01*
X011827Y005883D01*
X011856Y005850D01*
X011883Y005816D01*
X011906Y005779D01*
X011926Y005740D01*
X011943Y005700D01*
X011956Y005658D01*
X011965Y005616D01*
X011971Y005573D01*
X011973Y005529D01*
X011973Y004179D01*
X011975Y004109D01*
X011981Y004038D01*
X011990Y003969D01*
X012003Y003900D01*
X012020Y003831D01*
X012041Y003764D01*
X012065Y003698D01*
X012093Y003633D01*
X012124Y003570D01*
X012159Y003509D01*
X012197Y003449D01*
X012238Y003392D01*
X012282Y003337D01*
X012329Y003285D01*
X012379Y003235D01*
X012431Y003188D01*
X012486Y003144D01*
X012543Y003103D01*
X012603Y003065D01*
X012664Y003030D01*
X012727Y002999D01*
X012792Y002971D01*
X012858Y002947D01*
X012925Y002926D01*
X012994Y002909D01*
X013063Y002896D01*
X013132Y002887D01*
X013203Y002881D01*
X013273Y002879D01*
X013273Y005549D02*
X012875Y005549D01*
X012847Y005551D01*
X012820Y005556D01*
X012793Y005564D01*
X012768Y005575D01*
X012744Y005590D01*
X012722Y005607D01*
X012703Y005626D01*
X012686Y005648D01*
X012671Y005672D01*
X012660Y005697D01*
X012652Y005724D01*
X012647Y005751D01*
X012645Y005779D01*
X012628Y006529D01*
X012635Y006576D01*
X012639Y006624D01*
X012640Y006671D01*
X012637Y006719D01*
X012630Y006766D01*
X012620Y006812D01*
X012606Y006858D01*
X012589Y006903D01*
X012569Y006946D01*
X012546Y006987D01*
X012519Y007027D01*
X012490Y007064D01*
X012458Y007100D01*
X012424Y007132D01*
X012387Y007163D01*
X012347Y007190D01*
X012306Y007214D01*
X012264Y007235D01*
X012220Y007253D01*
X012174Y007268D01*
X012128Y007279D01*
X011473Y007279D01*
X011429Y007277D01*
X011386Y007271D01*
X011344Y007262D01*
X011302Y007249D01*
X011262Y007232D01*
X011223Y007212D01*
X011186Y007189D01*
X011152Y007162D01*
X011119Y007133D01*
X011090Y007100D01*
X011063Y007066D01*
X011040Y007029D01*
X011020Y006990D01*
X011003Y006950D01*
X010990Y006908D01*
X010981Y006866D01*
X010975Y006823D01*
X010973Y006779D01*
X010971Y006749D01*
X010966Y006719D01*
X010957Y006690D01*
X010944Y006663D01*
X010929Y006637D01*
X010910Y006613D01*
X010889Y006592D01*
X010865Y006573D01*
X010839Y006558D01*
X010812Y006545D01*
X010783Y006536D01*
X010753Y006531D01*
X010723Y006529D01*
X011473Y006029D02*
X009973Y006029D01*
X008223Y005779D02*
X008223Y018754D01*
X010303Y018674D02*
X010368Y018674D01*
X010303Y019674D02*
X010618Y019674D01*
X010368Y018674D02*
X010451Y018676D01*
X010534Y018681D01*
X010617Y018691D01*
X010699Y018704D01*
X010781Y018721D01*
X010861Y018741D01*
X010941Y018765D01*
X011020Y018792D01*
X011097Y018823D01*
X011173Y018858D01*
X011247Y018895D01*
X011319Y018937D01*
X011390Y018981D01*
X011458Y019028D01*
X011525Y019079D01*
X011588Y019132D01*
X011650Y019188D01*
X011709Y019247D01*
X011765Y019309D01*
X011818Y019372D01*
X011869Y019439D01*
X011916Y019507D01*
X011960Y019578D01*
X012002Y019650D01*
X012039Y019724D01*
X012074Y019800D01*
X012105Y019877D01*
X012132Y019956D01*
X012156Y020036D01*
X012176Y020116D01*
X012193Y020198D01*
X012206Y020280D01*
X012216Y020363D01*
X012221Y020446D01*
X012223Y020529D01*
X012223Y020779D01*
X012632Y020732D02*
X015855Y020732D01*
X015682Y020891D02*
X013464Y020891D01*
X013473Y020574D02*
X016130Y020574D01*
X015874Y020257D02*
X016565Y020257D01*
X016565Y020098D02*
X016033Y020098D01*
X016095Y020036D02*
X015749Y020382D01*
X015261Y020382D01*
X014915Y020036D01*
X014915Y019547D01*
X015261Y019202D01*
X015749Y019202D01*
X016095Y019547D01*
X016095Y020036D01*
X016095Y019940D02*
X016560Y019940D01*
X016531Y019781D02*
X016095Y019781D01*
X016095Y019623D02*
X016488Y019623D01*
X016404Y019464D02*
X016012Y019464D01*
X015853Y019306D02*
X016292Y019306D01*
X016130Y019147D02*
X013927Y019147D01*
X013972Y018989D02*
X015113Y018989D01*
X014954Y018830D02*
X013972Y018830D01*
X013936Y018672D02*
X014885Y018672D01*
X014885Y018513D02*
X013870Y018513D01*
X013718Y018355D02*
X014885Y018355D01*
X014961Y018196D02*
X013530Y018196D01*
X013438Y018038D02*
X015065Y018038D01*
X015065Y017879D02*
X013532Y017879D01*
X013771Y017721D02*
X015093Y017721D01*
X015135Y017562D02*
X013892Y017562D01*
X013958Y017404D02*
X015178Y017404D01*
X015245Y017245D02*
X013972Y017245D01*
X013971Y017087D02*
X015337Y017087D01*
X015429Y016928D02*
X013906Y016928D01*
X013803Y016770D02*
X015567Y016770D01*
X015726Y016611D02*
X013872Y016611D01*
X013938Y016453D02*
X015931Y016453D01*
X016206Y016294D02*
X013972Y016294D01*
X013972Y016136D02*
X016587Y016136D01*
X016610Y015977D02*
X015849Y015977D01*
X015719Y016107D02*
X015231Y016107D01*
X014885Y015761D01*
X014885Y015272D01*
X015231Y014927D01*
X015719Y014927D01*
X016065Y015272D01*
X016065Y015761D01*
X015719Y016107D01*
X017021Y015812D02*
X017019Y015735D01*
X017013Y015658D01*
X017003Y015582D01*
X016990Y015506D01*
X016973Y015432D01*
X016951Y015358D01*
X016927Y015285D01*
X016898Y015213D01*
X016866Y015143D01*
X016830Y015075D01*
X016791Y015009D01*
X016749Y014945D01*
X016703Y014883D01*
X016655Y014823D01*
X016603Y014766D01*
X016549Y014712D01*
X016492Y014660D01*
X016432Y014612D01*
X016370Y014566D01*
X016306Y014524D01*
X016240Y014485D01*
X016172Y014449D01*
X016102Y014417D01*
X016030Y014388D01*
X015957Y014364D01*
X015883Y014342D01*
X015809Y014325D01*
X015733Y014312D01*
X015657Y014302D01*
X015580Y014296D01*
X015503Y014294D01*
X015503Y013769D01*
X015021Y013917D02*
X013882Y013917D01*
X013948Y013758D02*
X014943Y013758D01*
X014842Y013600D02*
X013972Y013600D01*
X013972Y013441D02*
X014684Y013441D01*
X014427Y013283D02*
X013916Y013283D01*
X013988Y012779D02*
X011973Y012779D01*
X011943Y012781D01*
X011913Y012786D01*
X011884Y012795D01*
X011857Y012808D01*
X011831Y012823D01*
X011807Y012842D01*
X011786Y012863D01*
X011767Y012887D01*
X011752Y012913D01*
X011739Y012940D01*
X011730Y012969D01*
X011725Y012999D01*
X011723Y013029D01*
X011723Y013279D01*
X011721Y013318D01*
X011715Y013356D01*
X011706Y013394D01*
X011693Y013430D01*
X011676Y013465D01*
X011656Y013498D01*
X011633Y013530D01*
X011607Y013558D01*
X011579Y013584D01*
X011547Y013607D01*
X011514Y013627D01*
X011479Y013644D01*
X011443Y013657D01*
X011405Y013666D01*
X011367Y013672D01*
X011328Y013674D01*
X010303Y013674D01*
X010303Y014264D02*
X010303Y014674D01*
X010303Y014674D01*
X011002Y014674D01*
X011002Y014640D01*
X010992Y014571D01*
X010970Y014505D01*
X010939Y014444D01*
X010898Y014388D01*
X010849Y014339D01*
X010793Y014298D01*
X010731Y014266D01*
X010699Y014256D01*
X010897Y014174D01*
X010987Y014084D01*
X011488Y014084D01*
X011783Y013962D01*
X011783Y013962D01*
X012010Y013735D01*
X012010Y013735D01*
X012132Y013439D01*
X012132Y013189D01*
X012668Y013189D01*
X012640Y013258D01*
X012558Y013284D01*
X012558Y013284D01*
X012205Y013541D01*
X012205Y013541D01*
X012205Y013541D01*
X011948Y013895D01*
X011948Y013895D01*
X011813Y014311D01*
X011813Y014779D01*
X011808Y014832D01*
X011775Y014934D01*
X011713Y015020D01*
X011627Y015082D01*
X011526Y015115D01*
X011473Y015119D01*
X010764Y015119D01*
X010699Y015092D01*
X010731Y015082D01*
X010793Y015050D01*
X010849Y015010D01*
X010898Y014961D01*
X010939Y014905D01*
X010970Y014843D01*
X010992Y014777D01*
X011002Y014709D01*
X011813Y014709D01*
X011813Y014551D02*
X010985Y014551D01*
X011002Y014674D02*
X011002Y014709D01*
X011002Y014674D02*
X010303Y014674D01*
X010302Y014674D01*
X010302Y014264D01*
X010303Y014264D01*
X010302Y014392D02*
X010303Y014392D01*
X010302Y014551D02*
X010303Y014551D01*
X010303Y014674D02*
X010303Y015084D01*
X010302Y015084D01*
X010302Y014674D01*
X010303Y014674D01*
X010302Y014709D02*
X010303Y014709D01*
X010302Y014868D02*
X010303Y014868D01*
X010302Y015026D02*
X010303Y015026D01*
X010448Y015529D02*
X011473Y015529D01*
X011704Y015026D02*
X010827Y015026D01*
X010958Y014868D02*
X011797Y014868D01*
X012223Y014779D02*
X012221Y014833D01*
X012215Y014886D01*
X012206Y014938D01*
X012193Y014990D01*
X012176Y015041D01*
X012155Y015091D01*
X012131Y015138D01*
X012104Y015184D01*
X012073Y015228D01*
X012040Y015270D01*
X012003Y015309D01*
X011964Y015346D01*
X011922Y015379D01*
X011878Y015410D01*
X011832Y015437D01*
X011785Y015461D01*
X011735Y015482D01*
X011684Y015499D01*
X011632Y015512D01*
X011580Y015521D01*
X011527Y015527D01*
X011473Y015529D01*
X012381Y015502D02*
X014885Y015502D01*
X014885Y015660D02*
X013693Y015660D01*
X013852Y015819D02*
X014943Y015819D01*
X015101Y015977D02*
X013926Y015977D01*
X013273Y016229D02*
X010748Y016229D01*
X010707Y016231D01*
X010666Y016237D01*
X010626Y016246D01*
X010587Y016259D01*
X010550Y016276D01*
X010514Y016296D01*
X010480Y016319D01*
X010448Y016345D01*
X010419Y016374D01*
X010393Y016406D01*
X010370Y016440D01*
X010350Y016476D01*
X010333Y016513D01*
X010320Y016552D01*
X010311Y016592D01*
X010305Y016633D01*
X010303Y016674D01*
X010303Y015674D02*
X010305Y015651D01*
X010310Y015629D01*
X010319Y015608D01*
X010331Y015589D01*
X010345Y015571D01*
X010363Y015557D01*
X010382Y015545D01*
X010403Y015536D01*
X010425Y015531D01*
X010448Y015529D01*
X010901Y014392D02*
X011813Y014392D01*
X011837Y014234D02*
X010753Y014234D01*
X011509Y014075D02*
X011889Y014075D01*
X011940Y013917D02*
X011828Y013917D01*
X011987Y013758D02*
X012047Y013758D01*
X012066Y013600D02*
X012162Y013600D01*
X012132Y013441D02*
X012342Y013441D01*
X012132Y013283D02*
X012563Y013283D01*
X013193Y013559D02*
X013273Y013559D01*
X013778Y014075D02*
X014913Y014075D01*
X014913Y014234D02*
X013895Y014234D01*
X013988Y012779D02*
X014065Y012781D01*
X014141Y012787D01*
X014217Y012796D01*
X014293Y012810D01*
X014368Y012827D01*
X014442Y012848D01*
X014514Y012873D01*
X014585Y012902D01*
X014655Y012934D01*
X014723Y012969D01*
X014789Y013008D01*
X014853Y013051D01*
X014915Y013096D01*
X014975Y013144D01*
X015032Y013196D01*
X015086Y013250D01*
X015138Y013307D01*
X015186Y013367D01*
X015231Y013429D01*
X015274Y013493D01*
X015313Y013559D01*
X015348Y013627D01*
X015380Y013697D01*
X015409Y013768D01*
X015434Y013840D01*
X015455Y013914D01*
X015472Y013989D01*
X015486Y014065D01*
X015495Y014141D01*
X015501Y014217D01*
X015503Y014294D01*
X015083Y014709D02*
X013968Y014709D01*
X013972Y014551D02*
X014925Y014551D01*
X014913Y014392D02*
X013961Y014392D01*
X013902Y014868D02*
X015242Y014868D01*
X015131Y015026D02*
X013795Y015026D01*
X013592Y015185D02*
X014973Y015185D01*
X014885Y015343D02*
X012497Y015343D01*
X012560Y015185D02*
X012953Y015185D01*
X012750Y015026D02*
X012612Y015026D01*
X012632Y014868D02*
X012643Y014868D01*
X012223Y014779D02*
X012223Y014529D01*
X012225Y014468D01*
X012231Y014407D01*
X012240Y014347D01*
X012253Y014288D01*
X012270Y014229D01*
X012291Y014172D01*
X012315Y014116D01*
X012343Y014062D01*
X012374Y014009D01*
X012408Y013959D01*
X012446Y013911D01*
X012486Y013865D01*
X012529Y013822D01*
X012575Y013782D01*
X012623Y013744D01*
X012673Y013710D01*
X012726Y013679D01*
X012780Y013651D01*
X012836Y013627D01*
X012893Y013606D01*
X012952Y013589D01*
X013011Y013576D01*
X013071Y013567D01*
X013132Y013561D01*
X013193Y013559D01*
X015478Y010027D02*
X015555Y010029D01*
X015632Y010035D01*
X015708Y010045D01*
X015784Y010058D01*
X015859Y010076D01*
X015933Y010097D01*
X016006Y010122D01*
X016077Y010150D01*
X016147Y010182D01*
X016216Y010218D01*
X016282Y010257D01*
X016346Y010299D01*
X016408Y010345D01*
X016468Y010394D01*
X016525Y010445D01*
X016580Y010500D01*
X016631Y010557D01*
X016680Y010617D01*
X016726Y010679D01*
X016768Y010743D01*
X016807Y010809D01*
X016843Y010878D01*
X016875Y010948D01*
X016903Y011019D01*
X016928Y011092D01*
X016949Y011166D01*
X016967Y011241D01*
X016980Y011317D01*
X016990Y011393D01*
X016996Y011470D01*
X016998Y011547D01*
X016998Y012274D01*
X015723Y012529D02*
X015723Y013029D01*
X015704Y013019D01*
X015743Y012955D01*
X015785Y012894D01*
X015830Y012835D01*
X015878Y012778D01*
X015929Y012723D01*
X015982Y012671D01*
X016038Y012622D01*
X016096Y012576D01*
X016156Y012533D01*
X016219Y012492D01*
X016283Y012455D01*
X016350Y012421D01*
X016417Y012391D01*
X016487Y012364D01*
X016557Y012340D01*
X016629Y012320D01*
X016701Y012304D01*
X016775Y012291D01*
X016848Y012281D01*
X016923Y012276D01*
X016997Y012274D01*
X015705Y013019D02*
X015671Y013081D01*
X015639Y013145D01*
X015611Y013211D01*
X015586Y013278D01*
X015564Y013346D01*
X015546Y013415D01*
X015530Y013485D01*
X015518Y013555D01*
X015510Y013626D01*
X015505Y013698D01*
X015503Y013769D01*
X015763Y014868D02*
X016064Y014868D01*
X016270Y015026D02*
X015819Y015026D01*
X015977Y015185D02*
X016408Y015185D01*
X016500Y015343D02*
X016065Y015343D01*
X016065Y015502D02*
X016556Y015502D01*
X016599Y015660D02*
X016065Y015660D01*
X016007Y015819D02*
X016610Y015819D01*
X017020Y015812D02*
X017020Y016537D01*
X016944Y016539D01*
X016869Y016544D01*
X016793Y016554D01*
X016719Y016567D01*
X016645Y016583D01*
X016572Y016604D01*
X016500Y016627D01*
X016429Y016655D01*
X016359Y016685D01*
X016292Y016719D01*
X016226Y016757D01*
X016162Y016797D01*
X016100Y016841D01*
X016040Y016888D01*
X015982Y016937D01*
X015928Y016990D01*
X015875Y017044D01*
X015826Y017102D01*
X015779Y017162D01*
X015735Y017224D01*
X015695Y017288D01*
X015657Y017354D01*
X015623Y017421D01*
X015593Y017491D01*
X015565Y017562D01*
X015542Y017634D01*
X015521Y017707D01*
X015505Y017781D01*
X015492Y017855D01*
X015482Y017931D01*
X015477Y018006D01*
X015475Y018082D01*
X015475Y018517D01*
X015157Y019306D02*
X013856Y019306D01*
X013827Y019464D02*
X014998Y019464D01*
X014915Y019623D02*
X013916Y019623D01*
X013972Y019781D02*
X014915Y019781D01*
X014915Y019940D02*
X013972Y019940D01*
X013948Y020098D02*
X014977Y020098D01*
X015136Y020257D02*
X013882Y020257D01*
X013746Y020415D02*
X016512Y020415D01*
X016975Y020787D02*
X016975Y020017D01*
X016973Y019941D01*
X016967Y019865D01*
X016958Y019790D01*
X016944Y019715D01*
X016927Y019641D01*
X016906Y019568D01*
X016882Y019496D01*
X016853Y019425D01*
X016822Y019356D01*
X016787Y019289D01*
X016748Y019224D01*
X016706Y019160D01*
X016661Y019099D01*
X016613Y019040D01*
X016562Y018984D01*
X016508Y018930D01*
X016452Y018879D01*
X016393Y018831D01*
X016332Y018786D01*
X016268Y018744D01*
X016203Y018705D01*
X016136Y018670D01*
X016067Y018639D01*
X015996Y018610D01*
X015924Y018586D01*
X015851Y018565D01*
X015777Y018548D01*
X015702Y018534D01*
X015627Y018525D01*
X015551Y018519D01*
X015475Y018517D01*
X012799Y020415D02*
X012632Y020415D01*
X012629Y020257D02*
X012663Y020257D01*
X012597Y020098D02*
X012592Y020098D01*
X012632Y020574D02*
X013072Y020574D01*
X012223Y020779D02*
X012225Y020833D01*
X012231Y020886D01*
X012240Y020938D01*
X012253Y020990D01*
X012270Y021041D01*
X012291Y021091D01*
X012315Y021138D01*
X012342Y021184D01*
X012373Y021228D01*
X012406Y021270D01*
X012443Y021309D01*
X012482Y021346D01*
X012524Y021379D01*
X012568Y021410D01*
X012614Y021437D01*
X012661Y021461D01*
X012711Y021482D01*
X012762Y021499D01*
X012814Y021512D01*
X012866Y021521D01*
X012919Y021527D01*
X012973Y021529D01*
X013233Y021529D01*
X013243Y021530D01*
X013253Y021534D01*
X013261Y021541D01*
X013268Y021549D01*
X013272Y021559D01*
X013273Y021569D01*
X013917Y021842D02*
X015140Y021842D01*
X015097Y022000D02*
X013831Y022000D01*
X013852Y022159D02*
X015095Y022159D01*
X015095Y022317D02*
X013926Y022317D01*
X013972Y022476D02*
X014987Y022476D01*
X014915Y022634D02*
X013972Y022634D01*
X013938Y022793D02*
X014915Y022793D01*
X014915Y022951D02*
X013872Y022951D01*
X013722Y023110D02*
X014989Y023110D01*
X015468Y022829D02*
X015468Y024002D01*
X015467Y024002D02*
X015469Y024065D01*
X015475Y024128D01*
X015484Y024191D01*
X015497Y024253D01*
X015514Y024314D01*
X015535Y024374D01*
X015559Y024432D01*
X015587Y024489D01*
X015618Y024544D01*
X015653Y024597D01*
X015690Y024648D01*
X015731Y024697D01*
X015774Y024743D01*
X015820Y024786D01*
X015869Y024827D01*
X015920Y024864D01*
X015973Y024899D01*
X016028Y024930D01*
X016085Y024958D01*
X016143Y024982D01*
X016203Y025003D01*
X016264Y025020D01*
X016326Y025033D01*
X016389Y025042D01*
X016452Y025048D01*
X016515Y025050D01*
X016515Y025049D02*
X016963Y025049D01*
X016910Y025051D01*
X016858Y025057D01*
X016806Y025066D01*
X016755Y025079D01*
X016704Y025096D01*
X016656Y025116D01*
X016608Y025140D01*
X016563Y025166D01*
X016520Y025197D01*
X016478Y025230D01*
X016440Y025266D01*
X016404Y025304D01*
X016371Y025346D01*
X016340Y025389D01*
X016314Y025434D01*
X016290Y025482D01*
X016270Y025530D01*
X016253Y025581D01*
X016240Y025632D01*
X016231Y025684D01*
X016225Y025736D01*
X016223Y025789D01*
X016223Y027527D01*
X011150Y026121D02*
X007124Y026121D01*
X007048Y025963D02*
X011074Y025963D01*
X008473Y027279D02*
X008386Y027277D01*
X008299Y027271D01*
X008212Y027262D01*
X008126Y027249D01*
X008040Y027232D01*
X007955Y027211D01*
X007872Y027186D01*
X007789Y027158D01*
X007708Y027127D01*
X007628Y027092D01*
X007550Y027053D01*
X007473Y027011D01*
X007398Y026966D01*
X007326Y026917D01*
X007255Y026866D01*
X007187Y026811D01*
X007122Y026754D01*
X007059Y026693D01*
X006998Y026630D01*
X006941Y026565D01*
X006886Y026497D01*
X006835Y026426D01*
X006786Y026354D01*
X006741Y026279D01*
X006699Y026202D01*
X006660Y026124D01*
X006625Y026044D01*
X006594Y025963D01*
X006566Y025880D01*
X006541Y025797D01*
X006520Y025712D01*
X006503Y025626D01*
X006490Y025540D01*
X006481Y025453D01*
X006475Y025366D01*
X006473Y025279D01*
X007573Y023268D02*
X009852Y023268D01*
X009968Y023384D02*
X009623Y023039D01*
X009623Y022550D01*
X009968Y022204D01*
X010457Y022204D01*
X010802Y022550D01*
X010802Y023039D01*
X010457Y023384D01*
X009968Y023384D01*
X009694Y023110D02*
X007731Y023110D01*
X007802Y022951D02*
X009623Y022951D01*
X009623Y022793D02*
X007802Y022793D01*
X007802Y022634D02*
X009623Y022634D01*
X009697Y022476D02*
X007728Y022476D01*
X007622Y022317D02*
X009855Y022317D01*
X010570Y022317D02*
X010813Y022317D01*
X010813Y022159D02*
X007622Y022159D01*
X007622Y022000D02*
X010813Y022000D01*
X010813Y021842D02*
X007622Y021842D01*
X007622Y021683D02*
X010813Y021683D01*
X010813Y021525D02*
X007622Y021525D01*
X007213Y020764D02*
X007215Y020746D01*
X007220Y020730D01*
X007228Y020714D01*
X007239Y020700D01*
X007253Y020689D01*
X007269Y020681D01*
X007285Y020676D01*
X007303Y020674D01*
X007578Y020674D01*
X007213Y020764D02*
X007213Y022794D01*
X010303Y020674D02*
X010618Y020674D01*
X010618Y019674D02*
X010682Y019676D01*
X010746Y019681D01*
X010810Y019691D01*
X010873Y019704D01*
X010935Y019720D01*
X010996Y019741D01*
X011056Y019764D01*
X011114Y019792D01*
X011171Y019822D01*
X011225Y019856D01*
X011278Y019893D01*
X011328Y019933D01*
X011376Y019975D01*
X011422Y020021D01*
X011464Y020069D01*
X011504Y020119D01*
X011541Y020172D01*
X011575Y020227D01*
X011605Y020283D01*
X011633Y020341D01*
X011656Y020401D01*
X011677Y020462D01*
X011693Y020524D01*
X011706Y020587D01*
X011716Y020651D01*
X011721Y020715D01*
X011723Y020779D01*
X011723Y022689D01*
X012132Y022634D02*
X012573Y022634D01*
X012573Y022476D02*
X012132Y022476D01*
X012132Y022317D02*
X012619Y022317D01*
X012693Y022159D02*
X012132Y022159D01*
X012132Y022000D02*
X012714Y022000D01*
X012489Y021842D02*
X012132Y021842D01*
X012132Y021683D02*
X012243Y021683D01*
X012773Y021049D02*
X012803Y021049D01*
X012656Y020891D02*
X013081Y020891D01*
X013742Y021049D02*
X015524Y021049D01*
X015410Y021208D02*
X013880Y021208D01*
X013946Y021366D02*
X015318Y021366D01*
X015227Y021525D02*
X013972Y021525D01*
X013972Y021683D02*
X015182Y021683D01*
X015505Y022257D02*
X015505Y022792D01*
X015505Y022791D02*
X015495Y022792D01*
X015486Y022796D01*
X015478Y022802D01*
X015472Y022810D01*
X015468Y022819D01*
X015467Y022829D01*
X015505Y022257D02*
X015507Y022183D01*
X015513Y022108D01*
X015522Y022034D01*
X015535Y021961D01*
X015552Y021889D01*
X015572Y021817D01*
X015597Y021746D01*
X015624Y021677D01*
X015655Y021610D01*
X015690Y021544D01*
X015727Y021479D01*
X015768Y021417D01*
X015813Y021357D01*
X015860Y021299D01*
X015910Y021244D01*
X015962Y021192D01*
X016017Y021142D01*
X016075Y021095D01*
X016135Y021050D01*
X016197Y021009D01*
X016262Y020972D01*
X016328Y020937D01*
X016395Y020906D01*
X016464Y020879D01*
X016535Y020854D01*
X016607Y020834D01*
X016679Y020817D01*
X016752Y020804D01*
X016826Y020795D01*
X016901Y020789D01*
X016975Y020787D01*
X013273Y024239D02*
X013197Y024237D01*
X013121Y024232D01*
X013046Y024222D01*
X012971Y024209D01*
X012896Y024193D01*
X012823Y024172D01*
X012751Y024148D01*
X012680Y024121D01*
X012610Y024090D01*
X012542Y024056D01*
X012476Y024018D01*
X012412Y023978D01*
X012350Y023934D01*
X012290Y023887D01*
X012232Y023837D01*
X012177Y023785D01*
X012125Y023730D01*
X012075Y023672D01*
X012028Y023612D01*
X011984Y023550D01*
X011944Y023486D01*
X011906Y023420D01*
X011872Y023352D01*
X011841Y023282D01*
X011814Y023211D01*
X011790Y023139D01*
X011769Y023066D01*
X011753Y022991D01*
X011740Y022916D01*
X011730Y022841D01*
X011725Y022765D01*
X011723Y022689D01*
X012139Y022793D02*
X012607Y022793D01*
X012673Y022951D02*
X012173Y022951D01*
X012215Y023110D02*
X012823Y023110D01*
X010813Y023110D02*
X010731Y023110D01*
X010802Y022951D02*
X010813Y022951D01*
X010802Y022793D02*
X010813Y022793D01*
X010802Y022634D02*
X010813Y022634D01*
X010813Y022476D02*
X010728Y022476D01*
X010813Y023268D02*
X010573Y023268D01*
X011223Y021279D02*
X011221Y021232D01*
X011216Y021184D01*
X011206Y021138D01*
X011193Y021092D01*
X011177Y021047D01*
X011157Y021004D01*
X011134Y020963D01*
X011107Y020923D01*
X011078Y020886D01*
X011046Y020851D01*
X011011Y020819D01*
X010974Y020790D01*
X010934Y020763D01*
X010893Y020740D01*
X010850Y020720D01*
X010805Y020704D01*
X010759Y020691D01*
X010713Y020681D01*
X010665Y020676D01*
X010618Y020674D01*
X013273Y018899D02*
X013271Y018830D01*
X013265Y018762D01*
X013256Y018694D01*
X013242Y018626D01*
X013225Y018560D01*
X013204Y018494D01*
X013180Y018430D01*
X013152Y018367D01*
X013120Y018306D01*
X013085Y018247D01*
X013047Y018190D01*
X013006Y018135D01*
X012961Y018083D01*
X012914Y018033D01*
X012864Y017986D01*
X012812Y017941D01*
X012757Y017900D01*
X012700Y017862D01*
X012641Y017827D01*
X012580Y017795D01*
X012517Y017767D01*
X012453Y017743D01*
X012387Y017722D01*
X012321Y017705D01*
X012253Y017691D01*
X012185Y017682D01*
X012117Y017676D01*
X012048Y017674D01*
X010303Y017674D01*
X007303Y014674D02*
X004963Y014674D01*
X004823Y014234D02*
X006649Y014234D01*
X006860Y014075D02*
X004795Y014075D01*
X004822Y013917D02*
X006675Y013917D01*
X006610Y013758D02*
X004822Y013758D01*
X004761Y013600D02*
X006609Y013600D01*
X006603Y013674D02*
X007302Y013674D01*
X007302Y013674D01*
X006603Y013674D01*
X006668Y013441D02*
X004656Y013441D01*
X004973Y013279D02*
X004971Y013249D01*
X004966Y013219D01*
X004957Y013190D01*
X004944Y013163D01*
X004929Y013137D01*
X004910Y013113D01*
X004889Y013092D01*
X004865Y013073D01*
X004839Y013058D01*
X004812Y013045D01*
X004783Y013036D01*
X004753Y013031D01*
X004723Y013029D01*
X003723Y013029D01*
X003896Y013283D02*
X002702Y013283D01*
X002702Y013441D02*
X002915Y013441D01*
X002746Y013600D02*
X002702Y013600D01*
X003167Y013600D02*
X003168Y013600D01*
X003168Y013584D02*
X003168Y013879D01*
X003167Y013917D02*
X003168Y013917D01*
X003168Y013879D02*
X003152Y013877D01*
X003138Y013872D01*
X003124Y013864D01*
X003113Y013853D01*
X003105Y013839D01*
X003100Y013825D01*
X003098Y013809D01*
X003167Y013758D02*
X003168Y013758D01*
X003167Y013441D02*
X003168Y013441D01*
X003420Y013441D02*
X003679Y013441D01*
X003723Y013029D02*
X003677Y013031D01*
X003632Y013037D01*
X003587Y013046D01*
X003543Y013059D01*
X003500Y013076D01*
X003459Y013096D01*
X003419Y013119D01*
X003382Y013146D01*
X003347Y013176D01*
X003315Y013208D01*
X003285Y013243D01*
X003258Y013280D01*
X003235Y013320D01*
X003215Y013361D01*
X003198Y013404D01*
X003185Y013448D01*
X003176Y013493D01*
X003170Y013538D01*
X003168Y013584D01*
X002702Y013124D02*
X006658Y013124D01*
X006842Y013283D02*
X004439Y013283D01*
X005204Y012649D02*
X002702Y012649D01*
X002702Y012807D02*
X005406Y012807D01*
X005303Y012747D02*
X005303Y012747D01*
X005046Y012490D02*
X002702Y012490D01*
X002702Y012332D02*
X004930Y012332D01*
X004839Y012173D02*
X003505Y012173D01*
X003098Y011654D02*
X004808Y011654D01*
X004839Y011652D01*
X004869Y011647D01*
X004898Y011637D01*
X004927Y011625D01*
X004953Y011609D01*
X004977Y011590D01*
X004999Y011568D01*
X005018Y011544D01*
X005034Y011518D01*
X005046Y011489D01*
X005056Y011460D01*
X005061Y011430D01*
X005063Y011399D01*
X004427Y011222D02*
X003592Y011222D01*
X003614Y011244D02*
X004418Y011244D01*
X004507Y011028D01*
X004691Y010844D01*
X004932Y010744D01*
X005193Y010744D01*
X005434Y010844D01*
X005563Y010973D01*
X005563Y010309D01*
X005556Y010231D01*
X005508Y010082D01*
X005419Y009960D01*
X005193Y010054D01*
X004932Y010054D01*
X004691Y009954D01*
X002702Y009954D01*
X002702Y009796D02*
X004533Y009796D01*
X004507Y009770D02*
X004408Y009529D01*
X004408Y009269D01*
X004507Y009028D01*
X004653Y008883D01*
X004653Y008869D01*
X004647Y008802D01*
X004606Y008674D01*
X004527Y008565D01*
X004418Y008486D01*
X004290Y008444D01*
X004223Y008439D01*
X003664Y008439D01*
X003494Y008609D01*
X003415Y008642D01*
X003451Y008669D01*
X003508Y008725D01*
X003554Y008789D01*
X003591Y008860D01*
X003615Y008936D01*
X003627Y009014D01*
X003627Y009054D01*
X003123Y009054D01*
X003123Y009054D01*
X003627Y009054D01*
X003627Y009094D01*
X003615Y009172D01*
X003591Y009248D01*
X003554Y009319D01*
X003508Y009383D01*
X003451Y009439D01*
X003387Y009486D01*
X003316Y009522D01*
X003241Y009547D01*
X003162Y009559D01*
X003123Y009559D01*
X003123Y009054D01*
X003122Y009054D01*
X003122Y009559D01*
X003083Y009559D01*
X003004Y009547D01*
X002929Y009522D01*
X002858Y009486D01*
X002794Y009439D01*
X002737Y009383D01*
X002702Y009335D01*
X002702Y010339D01*
X002712Y010325D01*
X002769Y010269D01*
X002833Y010222D01*
X002904Y010186D01*
X002979Y010162D01*
X003058Y010149D01*
X003097Y010149D01*
X003097Y010654D01*
X003098Y010654D01*
X003098Y010654D01*
X003602Y010654D01*
X003602Y010614D01*
X003590Y010536D01*
X003566Y010460D01*
X003529Y010389D01*
X003483Y010325D01*
X003426Y010269D01*
X003362Y010222D01*
X003291Y010186D01*
X003216Y010162D01*
X003137Y010149D01*
X003098Y010149D01*
X003098Y010654D01*
X003602Y010654D01*
X003602Y010694D01*
X003590Y010772D01*
X003566Y010848D01*
X003529Y010919D01*
X003483Y010983D01*
X003426Y011039D01*
X003390Y011066D01*
X003469Y011099D01*
X003614Y011244D01*
X003393Y011064D02*
X004492Y011064D01*
X004630Y010905D02*
X003536Y010905D01*
X003594Y010747D02*
X004926Y010747D01*
X005199Y010747D02*
X005563Y010747D01*
X005563Y010905D02*
X005495Y010905D01*
X005563Y010588D02*
X003598Y010588D01*
X003550Y010430D02*
X005563Y010430D01*
X005560Y010271D02*
X003429Y010271D01*
X003098Y010271D02*
X003097Y010271D01*
X003097Y010430D02*
X003098Y010430D01*
X003097Y010588D02*
X003098Y010588D01*
X002766Y010271D02*
X002702Y010271D01*
X002702Y010113D02*
X005518Y010113D01*
X005973Y010309D02*
X005973Y011029D01*
X006385Y011064D02*
X006598Y011064D01*
X006618Y011674D02*
X006570Y011672D01*
X006522Y011667D01*
X006474Y011658D01*
X006428Y011645D01*
X006382Y011629D01*
X006338Y011610D01*
X006296Y011588D01*
X006255Y011562D01*
X006216Y011533D01*
X006179Y011502D01*
X006145Y011468D01*
X006114Y011431D01*
X006085Y011392D01*
X006059Y011352D01*
X006037Y011309D01*
X006018Y011265D01*
X006002Y011219D01*
X005989Y011173D01*
X005980Y011125D01*
X005975Y011077D01*
X005973Y011029D01*
X006382Y010905D02*
X006500Y010905D01*
X006453Y010747D02*
X006382Y010747D01*
X006382Y010588D02*
X006453Y010588D01*
X006505Y010430D02*
X006382Y010430D01*
X006382Y010271D02*
X006611Y010271D01*
X006647Y010113D02*
X006382Y010113D01*
X006335Y009954D02*
X006520Y009954D01*
X006454Y009796D02*
X006284Y009796D01*
X006206Y009637D02*
X006453Y009637D01*
X006485Y009479D02*
X006091Y009479D01*
X006008Y009364D02*
X006008Y009364D01*
X006008Y009364D01*
X005947Y009320D02*
X006562Y009320D01*
X006696Y009162D02*
X005729Y009162D01*
X005669Y009118D02*
X005669Y009118D01*
X005593Y009003D02*
X006540Y009003D01*
X006475Y008845D02*
X005472Y008845D01*
X005472Y008686D02*
X006453Y008686D01*
X006465Y008528D02*
X005426Y008528D01*
X005374Y008369D02*
X006530Y008369D01*
X006672Y008211D02*
X005289Y008211D01*
X005350Y008295D02*
X005350Y008295D01*
X005174Y008052D02*
X006586Y008052D01*
X006495Y007894D02*
X005006Y007894D01*
X005117Y007974D02*
X005117Y007974D01*
X004797Y007742D02*
X004797Y007742D01*
X004778Y007735D02*
X006453Y007735D01*
X006453Y007577D02*
X003571Y007577D01*
X003299Y007418D02*
X006510Y007418D01*
X006623Y007260D02*
X002702Y007260D01*
X002702Y007418D02*
X002946Y007418D01*
X002702Y007101D02*
X006178Y007101D01*
X006462Y007101D02*
X006884Y007101D01*
X006907Y006943D02*
X006632Y006943D01*
X007421Y006943D02*
X007813Y006943D01*
X007813Y007101D02*
X007721Y007101D01*
X007461Y006903D02*
X007461Y006903D01*
X007579Y006784D02*
X007813Y006784D01*
X007813Y006626D02*
X007665Y006626D01*
X007667Y006467D02*
X007813Y006467D01*
X007813Y006309D02*
X007667Y006309D01*
X007657Y006150D02*
X007813Y006150D01*
X007813Y005992D02*
X007560Y005992D01*
X006389Y005833D02*
X002702Y005833D01*
X002702Y006943D02*
X003838Y006943D01*
X004223Y008029D02*
X003148Y008029D01*
X003140Y008030D01*
X003133Y008034D01*
X003128Y008039D01*
X003124Y008046D01*
X003123Y008054D01*
X003575Y008528D02*
X004475Y008528D01*
X004610Y008686D02*
X003469Y008686D01*
X003583Y008845D02*
X004651Y008845D01*
X004532Y009003D02*
X003626Y009003D01*
X003617Y009162D02*
X004452Y009162D01*
X004408Y009320D02*
X003553Y009320D01*
X003397Y009479D02*
X004408Y009479D01*
X004452Y009637D02*
X002702Y009637D01*
X002702Y009479D02*
X002848Y009479D01*
X003122Y009479D02*
X003123Y009479D01*
X003122Y009320D02*
X003123Y009320D01*
X003122Y009162D02*
X003123Y009162D01*
X004223Y008029D02*
X004278Y008031D01*
X004333Y008036D01*
X004387Y008045D01*
X004440Y008058D01*
X004493Y008074D01*
X004544Y008093D01*
X004595Y008116D01*
X004643Y008142D01*
X004690Y008171D01*
X004734Y008203D01*
X004777Y008237D01*
X004817Y008275D01*
X004855Y008315D01*
X004889Y008358D01*
X004921Y008402D01*
X004950Y008449D01*
X004976Y008497D01*
X004999Y008548D01*
X005018Y008599D01*
X005034Y008652D01*
X005047Y008705D01*
X005056Y008759D01*
X005061Y008814D01*
X005063Y008869D01*
X005063Y009399D01*
X004691Y009954D02*
X004507Y009770D01*
X005063Y009399D02*
X005123Y009401D01*
X005182Y009407D01*
X005241Y009416D01*
X005299Y009430D01*
X005356Y009447D01*
X005411Y009468D01*
X005465Y009493D01*
X005518Y009521D01*
X005569Y009552D01*
X005617Y009587D01*
X005663Y009625D01*
X005706Y009666D01*
X005747Y009709D01*
X005785Y009755D01*
X005820Y009803D01*
X005851Y009854D01*
X005879Y009907D01*
X005904Y009961D01*
X005925Y010016D01*
X005942Y010073D01*
X005956Y010131D01*
X005965Y010190D01*
X005971Y010249D01*
X005973Y010309D01*
X006488Y011222D02*
X006660Y011222D01*
X006618Y011264D02*
X006618Y011264D01*
X006338Y012674D02*
X006269Y012672D01*
X006200Y012667D01*
X006132Y012657D01*
X006064Y012644D01*
X005997Y012628D01*
X005931Y012607D01*
X005866Y012583D01*
X005803Y012556D01*
X005741Y012525D01*
X005681Y012491D01*
X005622Y012454D01*
X005566Y012414D01*
X005513Y012371D01*
X005461Y012325D01*
X005412Y012276D01*
X005366Y012224D01*
X005323Y012171D01*
X005283Y012115D01*
X005246Y012056D01*
X005212Y011996D01*
X005181Y011934D01*
X005154Y011871D01*
X005130Y011806D01*
X005109Y011740D01*
X005093Y011673D01*
X005080Y011605D01*
X005070Y011537D01*
X005065Y011468D01*
X005063Y011399D01*
X006618Y011674D02*
X007303Y011674D01*
X007303Y012674D02*
X006338Y012674D01*
X005687Y012969D02*
X005687Y012969D01*
X005681Y012966D02*
X002702Y012966D01*
X003167Y014075D02*
X003168Y014075D01*
X003167Y014234D02*
X003168Y014234D01*
X003527Y014234D02*
X003605Y014234D01*
X003754Y014392D02*
X002702Y014392D01*
X002702Y014234D02*
X002808Y014234D01*
X002702Y014551D02*
X003961Y014551D01*
X004076Y014709D02*
X002702Y014709D01*
X002702Y014868D02*
X004273Y014868D01*
X004963Y014674D02*
X004909Y014672D01*
X004855Y014667D01*
X004801Y014657D01*
X004749Y014645D01*
X004697Y014628D01*
X004646Y014608D01*
X004597Y014585D01*
X004550Y014558D01*
X004505Y014528D01*
X004461Y014496D01*
X004420Y014460D01*
X004382Y014422D01*
X004346Y014381D01*
X004314Y014337D01*
X004284Y014292D01*
X004257Y014245D01*
X004234Y014196D01*
X004214Y014145D01*
X004197Y014093D01*
X004185Y014041D01*
X004175Y013987D01*
X004170Y013933D01*
X004168Y013879D01*
X005473Y013779D02*
X007198Y013779D01*
X007216Y013777D01*
X007234Y013773D01*
X007251Y013765D01*
X007265Y013754D01*
X007278Y013741D01*
X007289Y013727D01*
X007297Y013710D01*
X007301Y013692D01*
X007303Y013674D01*
X007813Y013674D01*
X007813Y013674D01*
X007303Y013674D01*
X007303Y013674D01*
X007303Y013264D01*
X007302Y013264D01*
X007302Y013674D01*
X007303Y013674D01*
X007302Y013674D01*
X007302Y014084D01*
X007303Y014084D01*
X007303Y013674D01*
X007302Y013600D02*
X007303Y013600D01*
X007302Y013758D02*
X007303Y013758D01*
X007302Y013917D02*
X007303Y013917D01*
X007302Y014075D02*
X007303Y014075D01*
X007302Y013441D02*
X007303Y013441D01*
X007302Y013283D02*
X007303Y013283D01*
X005473Y013779D02*
X005429Y013777D01*
X005386Y013771D01*
X005344Y013762D01*
X005302Y013749D01*
X005262Y013732D01*
X005223Y013712D01*
X005186Y013689D01*
X005152Y013662D01*
X005119Y013633D01*
X005090Y013600D01*
X005063Y013566D01*
X005040Y013529D01*
X005020Y013490D01*
X005003Y013450D01*
X004990Y013408D01*
X004981Y013366D01*
X004975Y013323D01*
X004973Y013279D01*
X002708Y015977D02*
X002702Y015977D01*
X002702Y016136D02*
X002825Y016136D01*
X004223Y017529D02*
X004190Y017624D01*
X004223Y017529D02*
X004723Y018029D01*
X004313Y019306D02*
X004208Y019306D01*
X002900Y018038D02*
X002702Y018038D01*
X002702Y017879D02*
X002753Y017879D01*
X011118Y008674D02*
X011189Y008676D01*
X011260Y008681D01*
X011330Y008691D01*
X011400Y008704D01*
X011469Y008720D01*
X011537Y008740D01*
X011604Y008764D01*
X011669Y008791D01*
X011733Y008822D01*
X011796Y008856D01*
X011856Y008893D01*
X011914Y008933D01*
X011971Y008976D01*
X012025Y009022D01*
X012076Y009071D01*
X012125Y009122D01*
X012171Y009176D01*
X012214Y009233D01*
X012254Y009291D01*
X012291Y009352D01*
X012325Y009414D01*
X012356Y009478D01*
X012383Y009543D01*
X012407Y009610D01*
X012427Y009678D01*
X012443Y009747D01*
X012456Y009817D01*
X012466Y009887D01*
X012471Y009958D01*
X012473Y010029D01*
X012473Y010089D01*
X012475Y010144D01*
X012480Y010198D01*
X012490Y010252D01*
X012503Y010305D01*
X012519Y010357D01*
X012539Y010408D01*
X012563Y010457D01*
X012589Y010505D01*
X012619Y010550D01*
X012652Y010594D01*
X012688Y010635D01*
X012727Y010674D01*
X012768Y010710D01*
X012812Y010743D01*
X012857Y010773D01*
X012905Y010799D01*
X012954Y010823D01*
X013005Y010843D01*
X013057Y010859D01*
X013110Y010872D01*
X013164Y010882D01*
X013218Y010887D01*
X013273Y010889D01*
X015478Y010027D02*
X015478Y009582D01*
X015480Y009506D01*
X015486Y009430D01*
X015495Y009354D01*
X015509Y009279D01*
X015526Y009205D01*
X015547Y009131D01*
X015572Y009059D01*
X015600Y008988D01*
X015632Y008919D01*
X015667Y008852D01*
X015706Y008786D01*
X015748Y008722D01*
X015793Y008661D01*
X015841Y008602D01*
X015892Y008545D01*
X015946Y008491D01*
X016003Y008440D01*
X016062Y008392D01*
X016123Y008347D01*
X016187Y008305D01*
X016253Y008266D01*
X016320Y008231D01*
X016389Y008199D01*
X016460Y008171D01*
X016532Y008146D01*
X016606Y008125D01*
X016680Y008108D01*
X016755Y008094D01*
X016831Y008085D01*
X016907Y008079D01*
X016983Y008077D01*
X013273Y008079D02*
X013273Y008219D01*
X013273Y008079D02*
X013271Y008045D01*
X013265Y008012D01*
X013256Y007980D01*
X013243Y007949D01*
X013227Y007919D01*
X013208Y007892D01*
X013185Y007867D01*
X013160Y007844D01*
X013133Y007825D01*
X013103Y007809D01*
X013072Y007796D01*
X013040Y007787D01*
X013007Y007781D01*
X012973Y007779D01*
X010408Y007779D01*
X010390Y007777D01*
X010372Y007773D01*
X010356Y007765D01*
X010341Y007754D01*
X010328Y007741D01*
X010317Y007727D01*
X010309Y007710D01*
X010305Y007692D01*
X010303Y007674D01*
X010303Y008674D02*
X011118Y008674D01*
X005859Y006943D02*
X005579Y006943D01*
X005668Y006784D02*
X005674Y006784D01*
X005694Y005992D02*
X005565Y005992D01*
X005080Y005992D02*
X005028Y005992D01*
X008432Y003297D02*
X008477Y003297D01*
D25*
X005973Y026529D03*
D26*
X010723Y006529D03*
X009973Y006029D03*
X011473Y005529D03*
M02*
