G75*
%MOIN*%
%OFA0B0*%
%FSLAX25Y25*%
%IPPOS*%
%LPD*%
%AMOC8*
5,1,8,0,0,1.08239X$1,22.5*
%
%ADD10C,0.13398*%
%ADD11C,0.07071*%
%ADD12C,0.07211*%
%ADD13C,0.06000*%
%ADD14OC8,0.06000*%
%ADD15C,0.08200*%
%ADD16C,0.01200*%
%ADD17R,0.08200X0.08200*%
%ADD18OC8,0.08200*%
%ADD19C,0.08477*%
%ADD20C,0.10249*%
%ADD21C,0.04800*%
D10*
X0017367Y0017900D03*
X0126567Y0017900D03*
X0126567Y0254800D03*
X0017367Y0254800D03*
D11*
X0022742Y0115130D03*
X0012492Y0096515D03*
X0012517Y0077700D03*
D12*
X0022517Y0077700D03*
X0022492Y0096515D03*
X0012742Y0115130D03*
D13*
X0042167Y0116030D02*
X0047367Y0116030D01*
X0047367Y0106030D02*
X0042167Y0106030D01*
X0042167Y0096030D02*
X0047367Y0096030D01*
X0047367Y0086030D02*
X0042167Y0086030D01*
X0042167Y0076030D02*
X0047367Y0076030D01*
X0047367Y0066030D02*
X0042167Y0066030D01*
X0042167Y0056030D02*
X0047367Y0056030D01*
X0047367Y0046030D02*
X0042167Y0046030D01*
X0042167Y0036030D02*
X0047367Y0036030D01*
X0047367Y0026030D02*
X0042167Y0026030D01*
X0042167Y0016030D02*
X0047367Y0016030D01*
X0072167Y0016030D02*
X0077367Y0016030D01*
X0077367Y0026030D02*
X0072167Y0026030D01*
X0072167Y0036030D02*
X0077367Y0036030D01*
X0077367Y0046030D02*
X0072167Y0046030D01*
X0072167Y0056030D02*
X0077367Y0056030D01*
X0077367Y0066030D02*
X0072167Y0066030D01*
X0072167Y0076030D02*
X0077367Y0076030D01*
X0077367Y0086030D02*
X0072167Y0086030D01*
X0072167Y0096030D02*
X0077367Y0096030D01*
X0077367Y0106030D02*
X0072167Y0106030D01*
X0072167Y0116030D02*
X0077367Y0116030D01*
X0077367Y0126030D02*
X0072167Y0126030D01*
X0072167Y0136030D02*
X0077367Y0136030D01*
X0077367Y0146030D02*
X0072167Y0146030D01*
X0047367Y0146030D02*
X0042167Y0146030D01*
X0042167Y0136030D02*
X0047367Y0136030D01*
X0047367Y0126030D02*
X0042167Y0126030D01*
D14*
X0081337Y0151000D03*
X0103467Y0141100D03*
X0103467Y0133200D03*
X0133467Y0133200D03*
X0133467Y0141100D03*
X0081337Y0181000D03*
D15*
X0099667Y0170200D03*
X0109667Y0170200D03*
X0109667Y0148200D03*
X0099667Y0148200D03*
X0099667Y0126200D03*
X0109667Y0126200D03*
X0109667Y0104200D03*
X0099667Y0104200D03*
X0099667Y0082200D03*
X0109667Y0082200D03*
X0109667Y0060200D03*
X0099667Y0060200D03*
X0099667Y0038200D03*
X0109667Y0038200D03*
X0109667Y0016200D03*
X0099667Y0016200D03*
X0018267Y0140180D03*
X0018267Y0150180D03*
X0018267Y0160180D03*
X0099667Y0192200D03*
X0109667Y0192200D03*
X0109667Y0214200D03*
X0099667Y0214200D03*
X0099667Y0236200D03*
X0109667Y0236200D03*
X0109667Y0258200D03*
X0099667Y0258200D03*
X0087767Y0258700D03*
X0077767Y0258700D03*
X0067767Y0258700D03*
D16*
X0108157Y0226840D02*
X0108757Y0226240D01*
X0106837Y0225725D01*
X0105116Y0226719D01*
X0104601Y0228639D01*
X0105595Y0230360D01*
X0107515Y0230875D01*
X0109236Y0229881D01*
X0109751Y0227961D01*
X0108757Y0226240D01*
X0108164Y0227013D01*
X0106964Y0226691D01*
X0105889Y0227312D01*
X0105567Y0228512D01*
X0106188Y0229587D01*
X0107388Y0229909D01*
X0108463Y0229288D01*
X0108785Y0228088D01*
X0108164Y0227013D01*
X0107571Y0227786D01*
X0107091Y0227657D01*
X0106662Y0227905D01*
X0106533Y0228385D01*
X0106781Y0228814D01*
X0107261Y0228943D01*
X0107690Y0228695D01*
X0107819Y0228215D01*
X0107571Y0227786D01*
X0106486Y0205076D02*
X0107086Y0204476D01*
X0105284Y0203635D01*
X0103417Y0204315D01*
X0102576Y0206117D01*
X0103256Y0207984D01*
X0105058Y0208825D01*
X0106925Y0208145D01*
X0107766Y0206343D01*
X0107086Y0204476D01*
X0106368Y0205134D01*
X0105241Y0204609D01*
X0104075Y0205033D01*
X0103550Y0206160D01*
X0103974Y0207326D01*
X0105101Y0207851D01*
X0106267Y0207427D01*
X0106792Y0206300D01*
X0106368Y0205134D01*
X0105649Y0205792D01*
X0105198Y0205582D01*
X0104733Y0205752D01*
X0104523Y0206203D01*
X0104693Y0206668D01*
X0105144Y0206878D01*
X0105609Y0206708D01*
X0105819Y0206257D01*
X0105649Y0205792D01*
X0105938Y0183401D02*
X0106538Y0182801D01*
X0104816Y0181807D01*
X0102897Y0182322D01*
X0101903Y0184044D01*
X0102418Y0185963D01*
X0104140Y0186957D01*
X0106059Y0186442D01*
X0107053Y0184720D01*
X0106538Y0182801D01*
X0105766Y0183394D01*
X0104689Y0182773D01*
X0103490Y0183094D01*
X0102869Y0184171D01*
X0103190Y0185370D01*
X0104267Y0185991D01*
X0105466Y0185670D01*
X0106087Y0184593D01*
X0105766Y0183394D01*
X0104993Y0183988D01*
X0104562Y0183739D01*
X0104084Y0183867D01*
X0103835Y0184298D01*
X0103963Y0184776D01*
X0104394Y0185025D01*
X0104872Y0184897D01*
X0105121Y0184466D01*
X0104993Y0183988D01*
X0105785Y0162210D02*
X0106385Y0161610D01*
X0104757Y0160469D01*
X0102800Y0160815D01*
X0101659Y0162443D01*
X0102005Y0164400D01*
X0103633Y0165541D01*
X0105590Y0165195D01*
X0106731Y0163567D01*
X0106385Y0161610D01*
X0105564Y0162133D01*
X0104546Y0161420D01*
X0103323Y0161636D01*
X0102610Y0162654D01*
X0102826Y0163877D01*
X0103844Y0164590D01*
X0105067Y0164374D01*
X0105780Y0163356D01*
X0105564Y0162133D01*
X0104742Y0162657D01*
X0104335Y0162372D01*
X0103847Y0162458D01*
X0103562Y0162865D01*
X0103648Y0163353D01*
X0104055Y0163638D01*
X0104543Y0163552D01*
X0104828Y0163145D01*
X0104742Y0162657D01*
X0135329Y0157000D02*
X0135929Y0156400D01*
X0134301Y0155259D01*
X0132344Y0155605D01*
X0131203Y0157233D01*
X0131549Y0159190D01*
X0133177Y0160331D01*
X0135134Y0159985D01*
X0136275Y0158357D01*
X0135929Y0156400D01*
X0135108Y0156923D01*
X0134090Y0156210D01*
X0132867Y0156426D01*
X0132154Y0157444D01*
X0132370Y0158667D01*
X0133388Y0159380D01*
X0134611Y0159164D01*
X0135324Y0158146D01*
X0135108Y0156923D01*
X0134286Y0157447D01*
X0133879Y0157162D01*
X0133391Y0157248D01*
X0133106Y0157655D01*
X0133192Y0158143D01*
X0133599Y0158428D01*
X0134087Y0158342D01*
X0134372Y0157935D01*
X0134286Y0157447D01*
X0134916Y0175637D02*
X0135516Y0175037D01*
X0133794Y0174043D01*
X0131875Y0174558D01*
X0130881Y0176280D01*
X0131396Y0178199D01*
X0133118Y0179193D01*
X0135037Y0178678D01*
X0136031Y0176956D01*
X0135516Y0175037D01*
X0134744Y0175630D01*
X0133667Y0175009D01*
X0132468Y0175330D01*
X0131847Y0176407D01*
X0132168Y0177606D01*
X0133245Y0178227D01*
X0134444Y0177906D01*
X0135065Y0176829D01*
X0134744Y0175630D01*
X0133971Y0176224D01*
X0133540Y0175975D01*
X0133062Y0176103D01*
X0132813Y0176534D01*
X0132941Y0177012D01*
X0133372Y0177261D01*
X0133850Y0177133D01*
X0134099Y0176702D01*
X0133971Y0176224D01*
X0134677Y0194816D02*
X0135277Y0194216D01*
X0133475Y0193375D01*
X0131608Y0194055D01*
X0130767Y0195857D01*
X0131447Y0197724D01*
X0133249Y0198565D01*
X0135116Y0197885D01*
X0135957Y0196083D01*
X0135277Y0194216D01*
X0134559Y0194874D01*
X0133432Y0194349D01*
X0132266Y0194773D01*
X0131741Y0195900D01*
X0132165Y0197066D01*
X0133292Y0197591D01*
X0134458Y0197167D01*
X0134983Y0196040D01*
X0134559Y0194874D01*
X0133840Y0195532D01*
X0133389Y0195322D01*
X0132924Y0195492D01*
X0132714Y0195943D01*
X0132884Y0196408D01*
X0133335Y0196618D01*
X0133800Y0196448D01*
X0134010Y0195997D01*
X0133840Y0195532D01*
X0134138Y0211840D02*
X0134738Y0211240D01*
X0132818Y0210725D01*
X0131097Y0211719D01*
X0130582Y0213639D01*
X0131576Y0215360D01*
X0133496Y0215875D01*
X0135217Y0214881D01*
X0135732Y0212961D01*
X0134738Y0211240D01*
X0134145Y0212013D01*
X0132945Y0211691D01*
X0131870Y0212312D01*
X0131548Y0213512D01*
X0132169Y0214587D01*
X0133369Y0214909D01*
X0134444Y0214288D01*
X0134766Y0213088D01*
X0134145Y0212013D01*
X0133552Y0212786D01*
X0133072Y0212657D01*
X0132643Y0212905D01*
X0132514Y0213385D01*
X0132762Y0213814D01*
X0133242Y0213943D01*
X0133671Y0213695D01*
X0133800Y0213215D01*
X0133552Y0212786D01*
X0133756Y0229554D02*
X0134356Y0228954D01*
X0132376Y0228781D01*
X0130853Y0230059D01*
X0130680Y0232039D01*
X0131958Y0233562D01*
X0133938Y0233735D01*
X0135461Y0232457D01*
X0135634Y0230477D01*
X0134356Y0228954D01*
X0133906Y0229819D01*
X0132669Y0229710D01*
X0131718Y0230509D01*
X0131609Y0231746D01*
X0132408Y0232697D01*
X0133645Y0232806D01*
X0134596Y0232007D01*
X0134705Y0230770D01*
X0133906Y0229819D01*
X0133457Y0230683D01*
X0132962Y0230639D01*
X0132582Y0230958D01*
X0132538Y0231453D01*
X0132857Y0231833D01*
X0133352Y0231877D01*
X0133732Y0231558D01*
X0133776Y0231063D01*
X0133457Y0230683D01*
X0110775Y0248838D02*
X0111375Y0248238D01*
X0109395Y0248065D01*
X0107872Y0249343D01*
X0107699Y0251323D01*
X0108977Y0252846D01*
X0110957Y0253019D01*
X0112480Y0251741D01*
X0112653Y0249761D01*
X0111375Y0248238D01*
X0110925Y0249103D01*
X0109688Y0248994D01*
X0108737Y0249793D01*
X0108628Y0251030D01*
X0109427Y0251981D01*
X0110664Y0252090D01*
X0111615Y0251291D01*
X0111724Y0250054D01*
X0110925Y0249103D01*
X0110476Y0249967D01*
X0109981Y0249923D01*
X0109601Y0250242D01*
X0109557Y0250737D01*
X0109876Y0251117D01*
X0110371Y0251161D01*
X0110751Y0250842D01*
X0110795Y0250347D01*
X0110476Y0249967D01*
X0135275Y0117043D02*
X0135875Y0116443D01*
X0134734Y0114815D01*
X0132777Y0114469D01*
X0131149Y0115610D01*
X0130803Y0117567D01*
X0131944Y0119195D01*
X0133901Y0119541D01*
X0135529Y0118400D01*
X0135875Y0116443D01*
X0134924Y0116654D01*
X0134211Y0115636D01*
X0132988Y0115420D01*
X0131970Y0116133D01*
X0131754Y0117356D01*
X0132467Y0118374D01*
X0133690Y0118590D01*
X0134708Y0117877D01*
X0134924Y0116654D01*
X0133972Y0116865D01*
X0133687Y0116458D01*
X0133199Y0116372D01*
X0132792Y0116657D01*
X0132706Y0117145D01*
X0132991Y0117552D01*
X0133479Y0117638D01*
X0133886Y0117353D01*
X0133972Y0116865D01*
X0135357Y0099417D02*
X0135957Y0098817D01*
X0135116Y0097015D01*
X0133249Y0096335D01*
X0131447Y0097176D01*
X0130767Y0099043D01*
X0131608Y0100845D01*
X0133475Y0101525D01*
X0135277Y0100684D01*
X0135957Y0098817D01*
X0134983Y0098860D01*
X0134458Y0097733D01*
X0133292Y0097309D01*
X0132165Y0097834D01*
X0131741Y0099000D01*
X0132266Y0100127D01*
X0133432Y0100551D01*
X0134559Y0100026D01*
X0134983Y0098860D01*
X0134010Y0098903D01*
X0133800Y0098452D01*
X0133335Y0098282D01*
X0132884Y0098492D01*
X0132714Y0098957D01*
X0132924Y0099408D01*
X0133389Y0099578D01*
X0133840Y0099368D01*
X0134010Y0098903D01*
X0135156Y0079252D02*
X0135756Y0079852D01*
X0135076Y0077984D01*
X0133274Y0077144D01*
X0131406Y0077824D01*
X0130566Y0079626D01*
X0131246Y0081494D01*
X0133048Y0082334D01*
X0134916Y0081654D01*
X0135756Y0079852D01*
X0134782Y0079810D01*
X0134357Y0078642D01*
X0133232Y0078118D01*
X0132064Y0078543D01*
X0131540Y0079668D01*
X0131965Y0080836D01*
X0133090Y0081360D01*
X0134258Y0080935D01*
X0134782Y0079810D01*
X0133809Y0079767D01*
X0133639Y0079301D01*
X0133189Y0079091D01*
X0132723Y0079261D01*
X0132513Y0079711D01*
X0132683Y0080177D01*
X0133133Y0080387D01*
X0133599Y0080217D01*
X0133809Y0079767D01*
X0135132Y0060839D02*
X0135732Y0061439D01*
X0135217Y0059519D01*
X0133496Y0058525D01*
X0131576Y0059040D01*
X0130582Y0060761D01*
X0131097Y0062681D01*
X0132818Y0063675D01*
X0134738Y0063160D01*
X0135732Y0061439D01*
X0134766Y0061312D01*
X0134444Y0060112D01*
X0133369Y0059491D01*
X0132169Y0059813D01*
X0131548Y0060888D01*
X0131870Y0062088D01*
X0132945Y0062709D01*
X0134145Y0062387D01*
X0134766Y0061312D01*
X0133800Y0061185D01*
X0133671Y0060705D01*
X0133242Y0060457D01*
X0132762Y0060586D01*
X0132514Y0061015D01*
X0132643Y0061495D01*
X0133072Y0061743D01*
X0133552Y0061614D01*
X0133800Y0061185D01*
X0135434Y0043723D02*
X0136034Y0044323D01*
X0135861Y0042343D01*
X0134338Y0041065D01*
X0132358Y0041238D01*
X0131080Y0042761D01*
X0131253Y0044741D01*
X0132776Y0046019D01*
X0134756Y0045846D01*
X0136034Y0044323D01*
X0135105Y0044030D01*
X0134996Y0042793D01*
X0134045Y0041994D01*
X0132808Y0042103D01*
X0132009Y0043054D01*
X0132118Y0044291D01*
X0133069Y0045090D01*
X0134306Y0044981D01*
X0135105Y0044030D01*
X0134176Y0043737D01*
X0134132Y0043242D01*
X0133752Y0042923D01*
X0133257Y0042967D01*
X0132938Y0043347D01*
X0132982Y0043842D01*
X0133362Y0044161D01*
X0133857Y0044117D01*
X0134176Y0043737D01*
X0109151Y0045839D02*
X0109751Y0046439D01*
X0109236Y0044519D01*
X0107515Y0043525D01*
X0105595Y0044040D01*
X0104601Y0045761D01*
X0105116Y0047681D01*
X0106837Y0048675D01*
X0108757Y0048160D01*
X0109751Y0046439D01*
X0108785Y0046312D01*
X0108463Y0045112D01*
X0107388Y0044491D01*
X0106188Y0044813D01*
X0105567Y0045888D01*
X0105889Y0047088D01*
X0106964Y0047709D01*
X0108164Y0047387D01*
X0108785Y0046312D01*
X0107819Y0046185D01*
X0107690Y0045705D01*
X0107261Y0045457D01*
X0106781Y0045586D01*
X0106533Y0046015D01*
X0106662Y0046495D01*
X0107091Y0046743D01*
X0107571Y0046614D01*
X0107819Y0046185D01*
X0107967Y0066574D02*
X0108567Y0067174D01*
X0107887Y0065306D01*
X0106085Y0064466D01*
X0104217Y0065146D01*
X0103377Y0066948D01*
X0104057Y0068816D01*
X0105859Y0069656D01*
X0107727Y0068976D01*
X0108567Y0067174D01*
X0107593Y0067132D01*
X0107168Y0065964D01*
X0106043Y0065440D01*
X0104875Y0065865D01*
X0104351Y0066990D01*
X0104776Y0068158D01*
X0105901Y0068682D01*
X0107069Y0068257D01*
X0107593Y0067132D01*
X0106620Y0067089D01*
X0106450Y0066623D01*
X0106000Y0066413D01*
X0105534Y0066583D01*
X0105324Y0067033D01*
X0105494Y0067499D01*
X0105944Y0067709D01*
X0106410Y0067539D01*
X0106620Y0067089D01*
X0107166Y0089157D02*
X0107766Y0088557D01*
X0106925Y0086755D01*
X0105058Y0086075D01*
X0103256Y0086916D01*
X0102576Y0088783D01*
X0103417Y0090585D01*
X0105284Y0091265D01*
X0107086Y0090424D01*
X0107766Y0088557D01*
X0106792Y0088600D01*
X0106267Y0087473D01*
X0105101Y0087049D01*
X0103974Y0087574D01*
X0103550Y0088740D01*
X0104075Y0089867D01*
X0105241Y0090291D01*
X0106368Y0089766D01*
X0106792Y0088600D01*
X0105819Y0088643D01*
X0105609Y0088192D01*
X0105144Y0088022D01*
X0104693Y0088232D01*
X0104523Y0088697D01*
X0104733Y0089148D01*
X0105198Y0089318D01*
X0105649Y0089108D01*
X0105819Y0088643D01*
X0105731Y0111833D02*
X0106331Y0111233D01*
X0105190Y0109605D01*
X0103233Y0109259D01*
X0101605Y0110400D01*
X0101259Y0112357D01*
X0102400Y0113985D01*
X0104357Y0114331D01*
X0105985Y0113190D01*
X0106331Y0111233D01*
X0105380Y0111444D01*
X0104667Y0110426D01*
X0103444Y0110210D01*
X0102426Y0110923D01*
X0102210Y0112146D01*
X0102923Y0113164D01*
X0104146Y0113380D01*
X0105164Y0112667D01*
X0105380Y0111444D01*
X0104428Y0111655D01*
X0104143Y0111248D01*
X0103655Y0111162D01*
X0103248Y0111447D01*
X0103162Y0111935D01*
X0103447Y0112342D01*
X0103935Y0112428D01*
X0104342Y0112143D01*
X0104428Y0111655D01*
X0112453Y0024439D02*
X0113053Y0025039D01*
X0112880Y0023059D01*
X0111357Y0021781D01*
X0109377Y0021954D01*
X0108099Y0023477D01*
X0108272Y0025457D01*
X0109795Y0026735D01*
X0111775Y0026562D01*
X0113053Y0025039D01*
X0112124Y0024746D01*
X0112015Y0023509D01*
X0111064Y0022710D01*
X0109827Y0022819D01*
X0109028Y0023770D01*
X0109137Y0025007D01*
X0110088Y0025806D01*
X0111325Y0025697D01*
X0112124Y0024746D01*
X0111195Y0024453D01*
X0111151Y0023958D01*
X0110771Y0023639D01*
X0110276Y0023683D01*
X0109957Y0024063D01*
X0110001Y0024558D01*
X0110381Y0024877D01*
X0110876Y0024833D01*
X0111195Y0024453D01*
D17*
X0025167Y0040700D03*
D18*
X0025167Y0050700D03*
X0015167Y0050700D03*
X0015167Y0040700D03*
X0015167Y0060700D03*
X0025167Y0060700D03*
D19*
X0049567Y0244487D03*
D20*
X0049567Y0165746D03*
D21*
X0088067Y0241600D03*
M02*
