%
M48
M72
T01C0.0236
T02C0.0240
T03C0.0276
T04C0.0320
T05C0.0400
T06C0.0512
T07C0.1260
%
T01
X9973Y6029
X10723Y6529
X11473Y5529
T02
X5973Y26529
T03
X4190Y17624
X3190Y17624
X3165Y15762
X4165Y15762
X4168Y13879
X3168Y13879
X3098Y11654
X3098Y10654
X5063Y11399
X5063Y9399
X3123Y9054
X3123Y8054
T04
X7303Y7674
X7303Y8674
X7303Y9674
X7303Y10674
X7303Y11674
X7303Y12674
X7303Y13674
X7303Y14674
X7303Y15674
X7303Y16674
X7303Y17674
X7303Y18674
X7303Y19674
X7303Y20674
X7213Y22794
X10213Y22794
X10303Y20674
X10303Y19674
X10303Y18674
X10303Y17674
X10303Y16674
X10303Y15674
X10303Y14674
X10303Y13674
X10303Y12674
X10303Y11674
X10303Y10674
X10303Y9674
X10303Y8674
X10303Y7674
X13273Y8219
X13273Y9219
X13273Y10889
X13273Y11889
X13273Y13559
X13273Y14559
X13273Y16229
X13273Y17229
X13273Y18899
X13273Y19899
X13273Y21569
X13273Y22569
X13273Y24239
X13273Y25239
X13273Y26909
X13273Y27909
X13273Y29579
X13273Y30579
X13273Y32249
X13273Y33249
X15470Y31279
X16998Y29284
X15470Y28279
X15468Y27002
X16998Y26284
X16963Y25049
X15468Y24002
X15505Y22792
X16963Y22049
X16975Y20787
X15505Y19792
X15475Y18517
X16975Y17787
X17020Y16537
X15475Y15517
X15503Y14294
X17020Y13537
X16998Y12274
X15503Y11294
X15478Y10027
X16998Y9274
X16983Y8077
X15478Y7027
X13273Y6549
X13273Y5549
X13273Y3879
X13273Y2879
X16983Y5077
T05
X10863Y4689
X9863Y4689
X8863Y4689
X8863Y3689
X9863Y3689
X10863Y3689
X7833Y3679
X6833Y3679
X5833Y3679
X3933Y19949
X3933Y20949
X3933Y21949
X8523Y33179
X9523Y33179
X10523Y33179
T06
X10924Y27702
X3050Y27702
T07
X3473Y3529
X16473Y3279
X16473Y33029
X3473Y33029
M30
