%
M48
M72
T01C0.02400
T02C0.02756
T03C0.03200
T04C0.04000
T05C0.05118
T06C0.06299
T07C0.12598
%
T01
X88067Y241600
T02
X22742Y115130
X12742Y115130
X12492Y96515
X22492Y96515
X22517Y77700
X12517Y77700
T03
X44767Y76030
X44767Y66030
X44767Y56030
X44767Y46030
X44767Y36030
X44767Y26030
X44767Y16030
X74767Y16030
X74767Y26030
X74767Y36030
X74767Y46030
X74767Y56030
X74767Y66030
X74767Y76030
X74767Y86030
X74767Y96030
X74767Y106030
X74767Y116030
X74767Y126030
X74767Y136030
X74767Y146030
X81337Y151000
X99667Y148200
X103467Y141100
X103467Y133200
X99667Y126200
X109667Y126200
X103795Y111795
X99667Y104200
X109667Y104200
X105171Y88670
X109667Y82200
X99667Y82200
X105972Y67061
X109667Y60200
X99667Y60200
X107176Y46100
X109667Y38200
X99667Y38200
X110576Y24258
X109667Y16200
X99667Y16200
X133557Y43542
X133157Y61100
X133161Y79739
X133362Y98930
X133339Y117005
X133467Y133200
X133467Y141100
X133739Y157795
X133456Y176618
X133362Y195970
X133157Y213300
X133157Y231258
X109667Y236200
X107176Y228300
X99667Y236200
X110176Y250542
X109667Y258200
X99667Y258200
X99667Y214200
X105171Y206230
X109667Y214200
X109667Y192200
X104478Y184382
X99667Y192200
X81337Y181000
X99667Y170200
X104195Y163005
X109667Y170200
X109667Y148200
X44767Y146030
X44767Y136030
X44767Y126030
X44767Y116030
X44767Y106030
X44767Y96030
X44767Y86030
T04
X25167Y60700
X15167Y60700
X15167Y50700
X25167Y50700
X25167Y40700
X15167Y40700
X18267Y140180
X18267Y150180
X18267Y160180
X67767Y258700
X77767Y258700
X87767Y258700
T05
X49567Y244487
T06
X49567Y165746
T07
X17367Y17900
X126567Y17900
X126567Y254800
X17367Y254800
M30
